<?xml version="1.0" encoding="UTF-8"?><svg id="Layer_2" xmlns="http://www.w3.org/2000/svg" viewBox="0 0 335 531.71"><defs><style>.cls-1{fill:#a88ab3;}.cls-1,.cls-2,.cls-3,.cls-4,.cls-5,.cls-6,.cls-7,.cls-8,.cls-9,.cls-10{stroke-width:0px;}.cls-2{fill:#3f216a;}.cls-3{fill:#fff265;}.cls-4{fill:#ffed00;}.cls-11{fill:none;stroke:#20164d;stroke-miterlimit:10;stroke-width:3px;}.cls-5{fill:#fff;}.cls-6{fill:#d2bbcd;}.cls-7{fill:#6c488e;}.cls-8{fill:#fff7b2;}.cls-9{fill:#20164d;}.cls-10{fill:#fd0;}</style></defs><g id="Layer_1-2"><rect class="cls-5" x="0" width="335" height="531.71" rx="14.25" ry="14.25"/><path class="cls-9" d="m51.2,387.97l1.06-1.54c.77-1.06,1.58-1.1,2.78-.43,1.1.77,3.55,2.5,6.91,2.5,3.17,0,5.09-1.58,5.09-3.89,0-6.48-15.89-5.14-15.89-15.75,0-6,4.99-9.89,11.47-9.89,4.03,0,7.34,1.54,8.79,2.59,1.06.77,1.2,1.68.62,2.74l-.86,1.58c-.72,1.39-1.73,1.2-2.74.67-1.39-.82-3.26-1.87-5.9-1.87-3.17,0-5.18,1.54-5.18,3.84,0,6.38,15.89,4.75,15.89,15.6,0,5.52-4.13,10.08-11.28,10.08-4.85,0-8.79-2.16-10.46-3.46-.77-.67-1.25-1.49-.29-2.78Z"/><path class="cls-9" d="m89.07,364.88h-9.17c-1.34,0-2.02-.67-2.02-1.97v-1.34c0-1.3.67-2.02,2.02-2.02h24.48c1.3,0,1.97.72,1.97,2.02v1.34c0,1.3-.67,1.97-1.97,1.97h-9.17v26.74c0,1.34-.67,2.02-2.02,2.02h-2.16c-1.3,0-1.97-.67-1.97-2.02v-26.74Z"/><path class="cls-9" d="m127.56,361.57c0-1.3.67-2.02,1.97-2.02h11.14c6.38,0,10.85,4.46,10.85,11.09s-4.46,11.23-10.85,11.23h-6.96v9.75c0,1.34-.67,2.02-1.97,2.02h-2.21c-1.3,0-1.97-.67-1.97-2.02v-30.05Zm11.95,14.93c3.65,0,5.71-2.3,5.71-5.86s-2.06-5.76-5.62-5.76h-5.9v11.62h5.81Z"/><path class="cls-9" d="m164.72,361.19c.38-1.1,1.1-1.63,2.26-1.63h3.07c1.15,0,1.92.53,2.26,1.63l10.66,30.15c.48,1.39-.14,2.3-1.63,2.3h-2.21c-1.15,0-1.92-.53-2.26-1.63l-2.4-7.1h-11.95l-2.35,7.06c-.34,1.15-1.1,1.68-2.26,1.68h-2.21c-1.49,0-2.11-.91-1.63-2.3l10.66-30.15Zm8.21,18.67l-3.02-9.12c-.58-1.92-1.34-5.28-1.34-5.28h-.1s-.77,3.36-1.34,5.28l-3.07,9.12h8.88Z"/><path class="cls-9" d="m189.29,361.57c0-1.3.67-2.02,1.97-2.02h2.16c1.34,0,2.02.72,2.02,2.02v19.78c0,4.61,2.98,7.2,7.54,7.2s7.58-2.59,7.58-7.2v-19.78c0-1.3.67-2.02,1.97-2.02h2.21c1.3,0,1.97.72,1.97,2.02v19.83c0,7.63-5.47,12.82-13.68,12.82s-13.73-5.18-13.73-12.82v-19.83Z"/><path class="cls-9" d="m226.68,361.57c0-1.3.67-2.02,1.97-2.02h2.21c1.3,0,1.97.72,1.97,2.02v26.74h12.72c1.34,0,2.02.67,2.02,1.97v1.34c0,1.34-.67,2.02-2.02,2.02h-16.9c-1.3,0-1.97-.67-1.97-2.02v-30.05Z"/><path class="cls-9" d="m247.66,367.95l1.63-7.2c.24-1.2.91-1.78,2.16-1.78h1.34c1.49,0,2.11.86,1.68,2.26l-2.45,7.3c-.38,1.06-1.1,1.58-2.26,1.58h-.48c-1.44,0-1.92-.82-1.63-2.16Z"/><path class="cls-9" d="m260.91,387.97l1.06-1.54c.77-1.06,1.58-1.1,2.78-.43,1.1.77,3.55,2.5,6.91,2.5,3.17,0,5.09-1.58,5.09-3.89,0-6.48-15.89-5.14-15.89-15.75,0-6,4.99-9.89,11.47-9.89,4.03,0,7.34,1.54,8.79,2.59,1.06.77,1.2,1.68.62,2.74l-.86,1.58c-.72,1.39-1.73,1.2-2.74.67-1.39-.82-3.26-1.87-5.9-1.87-3.17,0-5.18,1.54-5.18,3.84,0,6.38,15.89,4.75,15.89,15.6,0,5.52-4.13,10.08-11.28,10.08-4.85,0-8.79-2.16-10.46-3.46-.77-.67-1.25-1.49-.29-2.78Z"/><path class="cls-9" d="m66.94,404.21c5.57,0,9.31,2.11,11.14,3.41,1.01.77,1.06,1.73.38,2.78l-.86,1.39c-.67,1.1-1.58,1.2-2.74.48-1.49-.96-4.18-2.4-7.68-2.4-7.44,0-11.42,5.42-11.42,11.71s4.13,12.19,11.47,12.19c3.84,0,6.77-1.82,8.35-2.98,1.06-.77,2.02-.77,2.78.34l.96,1.3c.72.96.67,1.97-.29,2.78-1.92,1.54-6,4.22-12.05,4.22-10.71,0-17.62-7.73-17.62-17.76s7.25-17.47,17.57-17.47Z"/><path class="cls-9" d="m92.67,406.42c.38-1.1,1.1-1.63,2.26-1.63h3.07c1.15,0,1.92.53,2.26,1.63l10.66,30.15c.48,1.39-.14,2.3-1.63,2.3h-2.21c-1.15,0-1.92-.53-2.26-1.63l-2.4-7.1h-11.95l-2.35,7.06c-.34,1.15-1.1,1.68-2.26,1.68h-2.21c-1.49,0-2.11-.91-1.63-2.3l10.66-30.15Zm8.21,18.67l-3.02-9.12c-.58-1.92-1.34-5.28-1.34-5.28h-.1s-.77,3.36-1.34,5.28l-3.07,9.12h8.88Z"/><path class="cls-9" d="m120.08,410.11h-9.17c-1.34,0-2.02-.67-2.02-1.97v-1.34c0-1.3.67-2.02,2.02-2.02h24.48c1.3,0,1.97.72,1.97,2.02v1.34c0,1.3-.67,1.97-1.97,1.97h-9.17v26.74c0,1.34-.67,2.02-2.02,2.02h-2.16c-1.3,0-1.97-.67-1.97-2.02v-26.74Z"/><path class="cls-9" d="m141.58,406.8c0-1.3.67-2.02,1.97-2.02h2.21c1.3,0,1.97.72,1.97,2.02v12.43h15.6v-12.43c0-1.3.67-2.02,2.02-2.02h2.16c1.3,0,1.97.72,1.97,2.02v30.05c0,1.34-.67,2.02-1.97,2.02h-2.16c-1.34,0-2.02-.67-2.02-2.02v-12.29h-15.6v12.29c0,1.34-.67,2.02-1.97,2.02h-2.21c-1.3,0-1.97-.67-1.97-2.02v-30.05Z"/><path class="cls-9" d="m192.94,404.21c10.32,0,17.62,7.63,17.62,17.38s-7.3,17.86-17.62,17.86-17.62-7.82-17.62-17.86,7.3-17.38,17.62-17.38Zm0,29.57c6.53,0,11.23-5.28,11.23-12.19s-4.7-11.71-11.23-11.71-11.23,5.09-11.23,11.71,4.7,12.19,11.23,12.19Z"/><path class="cls-9" d="m216.41,406.8c0-1.3.67-2.02,1.97-2.02h2.21c1.3,0,1.97.72,1.97,2.02v26.74h12.72c1.34,0,2.02.67,2.02,1.97v1.34c0,1.34-.67,2.02-2.02,2.02h-16.9c-1.3,0-1.97-.67-1.97-2.02v-30.05Z"/><path class="cls-9" d="m241.42,406.8c0-1.3.67-2.02,1.97-2.02h2.21c1.3,0,1.97.72,1.97,2.02v30.05c0,1.34-.67,2.02-1.97,2.02h-2.21c-1.3,0-1.97-.67-1.97-2.02v-30.05Z"/><path class="cls-9" d="m270.99,404.21c5.57,0,9.31,2.11,11.14,3.41,1.01.77,1.06,1.73.38,2.78l-.86,1.39c-.67,1.1-1.58,1.2-2.74.48-1.49-.96-4.18-2.4-7.68-2.4-7.44,0-11.42,5.42-11.42,11.71s4.13,12.19,11.47,12.19c3.84,0,6.77-1.82,8.35-2.98,1.06-.77,2.02-.77,2.78.34l.96,1.3c.72.96.67,1.97-.29,2.78-1.92,1.54-6,4.22-12.05,4.22-10.71,0-17.62-7.73-17.62-17.76s7.25-17.47,17.57-17.47Z"/><path class="cls-9" d="m66.86,447.5c5.57,0,9.31,2.11,11.14,3.41,1.01.77,1.06,1.73.38,2.78l-.86,1.39c-.67,1.1-1.58,1.2-2.74.48-1.49-.96-4.18-2.4-7.68-2.4-7.44,0-11.42,5.42-11.42,11.71s4.13,12.19,11.47,12.19c3.84,0,6.77-1.82,8.35-2.98,1.06-.77,2.02-.77,2.78.34l.96,1.3c.72.96.67,1.97-.29,2.78-1.92,1.54-6,4.22-12.05,4.22-10.71,0-17.62-7.73-17.62-17.76s7.25-17.47,17.57-17.47Z"/><path class="cls-9" d="m104.64,447.5c10.32,0,17.62,7.63,17.62,17.38s-7.3,17.86-17.62,17.86-17.62-7.82-17.62-17.86,7.3-17.38,17.62-17.38Zm0,29.57c6.53,0,11.23-5.28,11.23-12.19s-4.7-11.71-11.23-11.71-11.23,5.09-11.23,11.71,4.7,12.19,11.23,12.19Z"/><path class="cls-9" d="m132.62,450.09c0-1.3.67-2.02,1.97-2.02h2.21c1.3,0,1.97.72,1.97,2.02v26.74h12.72c1.34,0,2.02.67,2.02,1.97v1.34c0,1.34-.67,2.02-2.02,2.02h-16.9c-1.3,0-1.97-.67-1.97-2.02v-30.05Z"/><path class="cls-9" d="m162.14,450.09c0-1.3.67-2.02,1.97-2.02h2.21c1.3,0,1.97.72,1.97,2.02v26.74h12.72c1.34,0,2.02.67,2.02,1.97v1.34c0,1.34-.67,2.02-2.02,2.02h-16.9c-1.3,0-1.97-.67-1.97-2.02v-30.05Z"/><path class="cls-9" d="m191.66,450.09c0-1.3.67-2.02,1.97-2.02h16.42c1.3,0,2.02.72,2.02,2.02v1.34c0,1.3-.72,1.97-2.02,1.97h-12.24v8.93h9.5c1.3,0,2.02.67,2.02,1.97v1.34c0,1.34-.72,2.02-2.02,2.02h-9.5v9.17h13.01c1.3,0,2.02.67,2.02,1.97v1.34c0,1.34-.72,2.02-2.02,2.02h-17.19c-1.3,0-1.97-.67-1.97-2.02v-30.05Z"/><path class="cls-9" d="m237.93,447.5c5.62,0,9.7,2.11,11.14,3.12,1.06.82,1.15,1.68.43,2.78l-.86,1.34c-.72,1.1-1.58,1.2-2.78.53-1.49-.86-3.94-2.11-7.58-2.11-7.44,0-11.57,5.38-11.57,11.81,0,7.15,5.04,12.1,11.38,12.1,5.71,0,8.64-3.75,8.64-3.75v-3.79h-3.26c-1.3,0-2.02-.72-2.02-2.02v-1.3c0-1.34.72-2.02,2.02-2.02h6.82c1.3,0,1.97.67,1.97,2.02v13.92c0,1.34-.67,2.02-1.97,2.02h-1.2c-1.3,0-1.97-.67-1.97-1.63v-.82c0-.43.05-.82.05-.82h-.1s-3.41,3.84-9.98,3.84c-9.03,0-16.75-7.06-16.75-17.47s7.44-17.76,17.62-17.76Z"/><path class="cls-9" d="m263.04,450.09c0-1.3.67-2.02,1.97-2.02h16.42c1.3,0,2.02.72,2.02,2.02v1.34c0,1.3-.72,1.97-2.02,1.97h-12.24v8.93h9.5c1.3,0,2.02.67,2.02,1.97v1.34c0,1.34-.72,2.02-2.02,2.02h-9.5v9.17h13.01c1.3,0,2.02.67,2.02,1.97v1.34c0,1.34-.72,2.02-2.02,2.02h-17.19c-1.3,0-1.97-.67-1.97-2.02v-30.05Z"/><path class="cls-4" d="m52.28,98.36l39.66,12.57c-2.52,6.73-4.25,13.88-5.07,21.31h-30.81c-2.09,0-3.78-1.92-3.78-4.29v-29.59Z"/><path class="cls-10" d="m155.63,131.12l.18.38c-.6.46-1.32.73-2.1.74h-.7s-66.13,0-66.13,0c.82-7.43,2.55-14.57,5.07-21.31l63.68,20.19Z"/><path class="cls-1" d="m52.78,67.14l46.7,28.41c-2.98,4.82-5.51,9.97-7.54,15.38l-39.66-12.57v-31.22h.5Z"/><path class="cls-2" d="m157.46,127.95h0c0,1.48-.66,2.78-1.65,3.54l-.18-.38-63.68-20.19c2.02-5.41,4.55-10.56,7.54-15.38l56.14,34.16-23.64-64.72c7.8-4.14,16.32-7.04,25.31-8.46h.17v71.43Z"/><path class="cls-10" d="m131.98,64.98l23.64,64.72-56.14-34.16c8-12.94,19.22-23.54,32.5-30.57Z"/><path class="cls-3" d="m52.28,67.14v-16.85h0c0-2.38,1.7-4.3,3.78-4.29h68.98l6.94,18.98c-13.28,7.03-24.5,17.63-32.5,30.57l-46.7-28.41h-.5Z"/><path class="cls-7" d="m153.68,46c2.08,0,3.77,1.91,3.77,4.27h0v6.24h-.17c-8.99,1.42-17.5,4.32-25.31,8.46l-6.94-18.98h28.64Z"/><path class="cls-11" d="m86.88,132.24c.82-7.43,2.55-14.57,5.07-21.31,2.02-5.41,4.55-10.56,7.54-15.38,8-12.94,19.22-23.54,32.5-30.57,7.8-4.14,16.32-7.04,25.31-8.46"/><path class="cls-11" d="m52.28,98.36v29.59c0,2.37,1.69,4.3,3.78,4.29h.67s30.14,0,30.14,0h66.83c.78-.01,1.5-.28,2.1-.74,1-.77,1.65-2.07,1.65-3.54h0V50.29h0c0-2.38-1.69-4.29-3.77-4.29h-.68s-27.96,0-27.96,0H56.07c-2.09,0-3.78,1.91-3.78,4.28h0v48.08Z"/><polyline class="cls-11" points="155.63 131.12 91.95 110.93 52.28 98.36 52.04 98.28"/><polyline class="cls-11" points="155.63 129.71 99.48 95.55 52.78 67.14"/><polyline class="cls-11" points="155.63 129.71 131.98 64.98 125.05 46"/><path class="cls-4" d="m283.17,98.49l-39.66,12.57c2.52,6.73,4.25,13.88,5.07,21.31h30.81c2.09,0,3.78-1.92,3.78-4.29v-29.59Z"/><path class="cls-10" d="m179.83,131.24l-.18.38c.6.46,1.32.73,2.1.74h.7s66.13,0,66.13,0c-.82-7.43-2.55-14.57-5.07-21.31l-63.68,20.19Z"/><path class="cls-1" d="m282.68,67.26l-46.7,28.41c2.98,4.82,5.51,9.97,7.54,15.38l39.66-12.57v-31.22h-.5Z"/><path class="cls-2" d="m176.87,128.08h0c0,1.48.66,2.78,1.65,3.54l.18-.38,63.68-20.19c-2.02-5.41-4.55-10.56-7.54-15.38l-56.14,34.16,23.64-64.72c-7.8-4.14-16.32-7.04-25.31-8.46h-.17v71.43Z"/><path class="cls-10" d="m203.47,65.11l-23.64,64.72,56.14-34.16c-8-12.94-19.22-23.54-32.5-30.57Z"/><path class="cls-3" d="m283.17,67.26v-16.85h0c0-2.38-1.7-4.3-3.78-4.29h-68.98l-6.94,18.98c13.28,7.03,24.5,17.63,32.5,30.57l46.7-28.41h.5Z"/><path class="cls-7" d="m181.77,46.13c-2.08,0-3.77,1.91-3.77,4.27h0v6.24h.17c8.99,1.42,17.5,4.32,25.31,8.46l6.94-18.98h-28.64Z"/><path class="cls-11" d="m248.58,132.36c-.82-7.43-2.55-14.57-5.07-21.31-2.02-5.41-4.55-10.56-7.54-15.38-8-12.94-19.22-23.54-32.5-30.57-7.8-4.14-16.32-7.04-25.31-8.46"/><path class="cls-11" d="m283.17,98.49v29.59c0,2.37-1.69,4.3-3.78,4.29h-.67s-30.14,0-30.14,0h-66.83c-.78-.01-1.5-.28-2.1-.74-1-.77-1.65-2.07-1.65-3.54h0V50.41h0c0-2.38,1.69-4.29,3.77-4.29h.68s27.96,0,27.96,0h68.98c2.09,0,3.78,1.91,3.78,4.28h0v48.08Z"/><polyline class="cls-11" points="179.83 131.24 243.51 111.05 283.17 98.49 283.42 98.41"/><polyline class="cls-11" points="179.83 129.83 235.97 95.68 282.68 67.26"/><polyline class="cls-11" points="179.83 129.83 203.47 65.11 210.41 46.12"/><path class="cls-6" d="m157.16,296.24v33.15c0,1.73-2.01,3.13-4.49,3.13l-27.88-.14,7.03-40.61c7.72,1.4,17.35,3.15,25.35,4.48Z"/><path class="cls-1" d="m157.16,224.04v72.21c-8.68-.74-17.15-2.26-25.35-4.48l12.27-70.97c4.22,1.44,8.59,2.53,13.08,3.24Z"/><path class="cls-2" d="m157.16,157.93v66.11c-4.49-.71-8.86-1.8-13.08-3.24l11.5-66.55c.97.91,1.58,2.22,1.58,3.68Z"/><path class="cls-10" d="m155.59,154.25l-11.5,66.55c-7.59-2.59-14.71-6.3-21.16-10.95l32.66-55.6Z"/><path class="cls-2" d="m155.59,154.25l-32.66,55.6c-8.63-6.22-16.07-14.11-21.91-23.23l54.58-32.37Z"/><path class="cls-10" d="m155.59,154.25l-54.58,32.37c-2.84-4.44-5.3-9.16-7.34-14.13l61.91-18.24Z"/><path class="cls-2" d="m155.59,154.25l-61.91,18.24c-2.52-6.17-4.38-12.7-5.49-19.51h64.21c1.23,0,2.35.48,3.19,1.27Z"/><path class="cls-3" d="m144.08,220.8l-12.27,70.97c-7.22-1.95-14.22-4.45-20.98-7.45-8.35-3.71-16.31-8.19-23.82-13.34l35.9-61.12c6.45,4.65,13.57,8.36,21.16,10.95Z"/><path class="cls-8" d="m131.81,291.77l-8.22,41.89H58.6c-2.36,0-4.15-.25-5.62-2.28l-.66-3.04,34.69-57.36c6.71,3.78,16.34,10.62,23.82,13.34,6.05,2.2,14.52,6.02,20.98,7.45Z"/><path class="cls-1" d="m122.92,209.85l-35.9,61.12c-8.71-6-16.8-12.91-24.14-20.62-7.24-7.6-4.86-2.89-10.51-11.89l.12-13.8.15-9.37h0l21.04-12.46,27.33-16.21c5.84,9.12,13.29,17.02,21.91,23.23Z"/><path class="cls-3" d="m101.01,185.04l-23.03,14.4-25.34,15.84h-.27v-29.62l42.46-13.19c1.71,4.42,3.79,8.62,6.18,12.56Z"/><path class="cls-7" d="m93.67,171.19l-41.3,13.85v-27.44c0-2.55,1.75-4.62,3.91-4.62h32.89c.91,6.35,2.43,12.45,4.5,18.21Z"/><path class="cls-6" d="m86.41,271.36l-34.41,57.44v-92.62h.15c4.45,6.95,9.57,13.4,15.26,19.27,5.77,5.95,12.14,11.28,18.99,15.91Z"/><path class="cls-11" d="m157.16,224.04c-4.49-.71-8.86-1.8-13.08-3.24-7.59-2.59-14.71-6.3-21.16-10.95-8.63-6.22-16.07-14.11-21.91-23.23-2.84-4.44-5.3-9.16-7.34-14.13-2.52-6.17-4.38-12.7-5.49-19.51"/><path class="cls-11" d="m52.33,323.1v5.24c0,2.42,1.96,4.38,4.39,4.38h96.05c2.43,0,4.39-1.96,4.39-4.38v-170.98c0-1.29-.56-2.45-1.45-3.25-.78-.7-1.81-1.13-2.94-1.13H56.72c-2.43,0-4.39,1.96-4.39,4.38v165.74Z"/><polyline class="cls-11" points="155.59 154.25 144.08 220.8 131.81 291.77 124.79 332.37"/><polyline class="cls-11" points="155.59 154.25 122.92 209.85 87.02 270.97 52.98 329.17"/><polyline class="cls-11" points="155.59 154.25 101.01 186.62 73.68 202.83 52.98 215.24"/><polyline class="cls-11" points="155.59 154.25 93.67 172.48 52.33 184.69 52.33 184.69"/><path class="cls-11" d="m157.16,296.24c-8.68-.74-17.15-2.26-25.35-4.48-7.22-1.95-14.22-4.45-20.98-7.45-8.35-3.71-16.31-8.19-23.82-13.34-8.71-6-16.8-12.91-24.14-20.62-3.64-3.82-7.09-7.84-10.35-12.03"/><path class="cls-6" d="m178.67,295.84v33.15c0,1.73,2.01,3.13,4.49,3.13l27.88-.14-7.03-40.61c-7.72,1.4-17.35,3.15-25.35,4.48Z"/><path class="cls-1" d="m178.67,223.63v72.21c8.68-.74,17.15-2.26,25.35-4.48l-12.27-70.97c-4.22,1.44-8.59,2.53-13.08,3.24Z"/><path class="cls-2" d="m178.67,157.53v66.11c4.49-.71,8.86-1.8,13.08-3.24l-11.5-66.55c-.97.91-1.58,2.22-1.58,3.68Z"/><path class="cls-10" d="m180.25,153.85l11.5,66.55c7.59-2.59,14.71-6.3,21.16-10.94l-32.66-55.6Z"/><path class="cls-2" d="m180.25,153.85l32.66,55.6c8.63-6.22,16.07-14.11,21.92-23.23l-54.58-32.37Z"/><path class="cls-10" d="m180.25,153.85l54.58,32.37c2.84-4.44,5.3-9.16,7.34-14.13l-61.91-18.24Z"/><path class="cls-2" d="m180.25,153.85l61.91,18.24c2.52-6.17,4.38-12.7,5.49-19.51h-64.21c-1.23,0-2.35.48-3.19,1.27Z"/><path class="cls-3" d="m191.76,220.39l12.27,70.97c7.22-1.95,14.22-4.45,20.98-7.45,8.35-3.71,16.31-8.19,23.82-13.34l-35.9-61.12c-6.45,4.65-13.57,8.36-21.16,10.94Z"/><path class="cls-8" d="m204.02,291.36l8.22,41.89h64.99c2.36,0,4.15-.25,5.62-2.28l.66-3.04-34.69-57.36c-6.71,3.78-16.34,10.62-23.82,13.34-6.05,2.2-14.52,6.02-20.98,7.45Z"/><path class="cls-1" d="m212.91,209.45l35.9,61.12c8.71-6,16.8-12.91,24.14-20.62,7.24-7.6,4.86-2.89,10.51-11.89l-.12-13.8-.15-9.37h0l-21.04-12.46-27.33-16.21c-5.84,9.12-13.29,17.02-21.92,23.23Z"/><path class="cls-3" d="m234.83,184.64l23.03,14.4,25.34,15.84h.27v-29.62l-42.46-13.19c-1.71,4.42-3.79,8.62-6.18,12.56Z"/><path class="cls-7" d="m242.17,170.78l41.3,13.85v-27.44c0-2.55-1.75-4.62-3.91-4.62h-32.89c-.91,6.35-2.43,12.45-4.5,18.21Z"/><path class="cls-6" d="m249.43,270.95l34.41,57.44v-92.62h-.15c-4.45,6.95-9.57,13.4-15.26,19.27-5.77,5.95-12.14,11.28-18.99,15.91Z"/><path class="cls-11" d="m178.67,223.63c4.49-.71,8.86-1.8,13.08-3.24,7.59-2.59,14.71-6.3,21.16-10.94,8.63-6.22,16.07-14.11,21.92-23.23,2.84-4.44,5.3-9.16,7.34-14.13,2.52-6.17,4.38-12.7,5.49-19.51"/><path class="cls-11" d="m283.51,322.69v5.24c0,2.42-1.96,4.38-4.39,4.38h-96.05c-2.43,0-4.39-1.96-4.39-4.38v-170.98c0-1.29.56-2.45,1.45-3.25.78-.7,1.81-1.13,2.94-1.13h96.05c2.43,0,4.39,1.96,4.39,4.38v165.74Z"/><polyline class="cls-11" points="180.25 153.85 191.76 220.39 204.02 291.36 211.05 331.97"/><polyline class="cls-11" points="180.25 153.85 212.91 209.45 248.82 270.57 282.86 328.77"/><polyline class="cls-11" points="180.25 153.85 234.83 186.22 262.16 202.43 282.86 214.83"/><polyline class="cls-11" points="180.25 153.85 242.17 172.08 283.51 184.28 283.51 184.28"/><path class="cls-11" d="m178.67,295.84c8.68-.74,17.15-2.26,25.35-4.48,7.22-1.95,14.22-4.45,20.98-7.45,8.35-3.71,16.31-8.19,23.82-13.34,8.71-6,16.8-12.91,24.14-20.62,3.64-3.82,7.09-7.84,10.35-12.03"/></g></svg>