<?xml version="1.0" encoding="UTF-8"?><svg id="Layer_1" xmlns="http://www.w3.org/2000/svg" viewBox="0 0 370.8 595.44"><defs><style>.cls-1{fill:#a88ab3;}.cls-1,.cls-2,.cls-3,.cls-4,.cls-5,.cls-6,.cls-7,.cls-8,.cls-9,.cls-10{stroke-width:0px;}.cls-2{fill:#3f216a;}.cls-3{fill:#fff265;}.cls-4{fill:#ffed00;}.cls-11{fill:none;stroke:#20164d;stroke-miterlimit:10;stroke-width:3px;}.cls-5{fill:#fff;}.cls-6{fill:#d2bbcd;}.cls-7{fill:#6c488e;}.cls-8{fill:#fff7b2;}.cls-9{fill:#20164d;}.cls-10{fill:#fd0;}</style></defs><rect class="cls-5" width="370.8" height="595.44" rx="19.42" ry="19.42"/><path class="cls-4" d="m303.86,125.83v27.97c0,2.44-2.03,4.42-4.53,4.42h-37.09c-.76-6.47-2.35-12.7-4.68-18.58l46.3-13.81Z"/><path class="cls-1" d="m303.86,95.89v29.94l-46.3,13.81c-1.87-4.74-4.22-9.25-6.98-13.47l52.77-30.28h.51Z"/><path class="cls-3" d="m303.86,73.81v22.08h-.51l-52.77,30.28c-7.4-11.32-17.81-20.58-30.11-26.7l11.64-30.08h67.23c2.5,0,4.53,1.98,4.53,4.42Z"/><path class="cls-8" d="m303.44,347.63v5.17c0,1.19-.5,2.27-1.31,3.05-.81.78-1.93,1.26-3.16,1.26h-67.92l-10.43-56.24c6.82-1.71,13.44-3.91,19.83-6.55,7.76-3.21,15.16-7.09,22.13-11.54l40.86,64.85Z"/><path class="cls-6" d="m303.44,268.43v79.19l-40.86-64.85c8.22-5.25,15.84-11.32,22.74-18.08,6.65-6.51,12.64-13.68,17.87-21.38h.25v25.12Z"/><path class="cls-1" d="m303.44,238.79v4.52h-.25c-5.22,7.7-11.22,14.87-17.87,21.38-6.9,6.77-14.52,12.83-22.74,18.08l-33.59-53.31c8.11-5.42,15.11-12.31,20.6-20.28l53.55,29.61h.3Z"/><path class="cls-3" d="m303.44,209.71v29.08h-.3l-53.55-29.61c2.67-3.88,4.98-8.02,6.89-12.36l46.95,12.89Z"/><path class="cls-7" d="m303.44,184.07v25.64l-46.95-12.89c2.38-5.4,4.12-11.12,5.16-17.07h37.32c1.23,0,2.35.48,3.16,1.27.81.78,1.31,1.86,1.31,3.05Z"/><path class="cls-3" d="m229,229.46l33.59,53.31c-6.97,4.46-14.37,8.33-22.13,11.54-6.38,2.64-13.01,4.84-19.83,6.55l-11.48-61.9c7.12-2.24,13.79-5.47,19.85-9.51Z"/><path class="cls-10" d="m262.24,158.22h-60.81c-1.07,0-2.06-.37-2.84-.98l58.97-17.6c2.32,5.87,3.92,12.1,4.68,18.58Z"/><path class="cls-2" d="m250.17,179.75h11.48c-1.04,5.96-2.79,11.68-5.16,17.07l-58.11-15.96c.79-.69,1.84-1.11,2.99-1.11h48.81Z"/><path class="cls-2" d="m257.57,139.64l-58.97,17.6c-.41-.32-.76-.71-1.03-1.15l1.03-.08,51.99-29.84c2.77,4.22,5.11,8.73,6.98,13.47Z"/><path class="cls-10" d="m198.38,180.86l58.11,15.96c-1.91,4.35-4.22,8.48-6.89,12.36l-51.22-28.32Z"/><path class="cls-10" d="m250.58,126.18l-51.99,29.84,21.88-56.54c12.3,6.12,22.71,15.38,30.11,26.7Z"/><path class="cls-2" d="m198.38,180.86l51.22,28.32c-5.49,7.97-12.49,14.86-20.6,20.28l-30.62-48.6Z"/><path class="cls-7" d="m232.11,69.39l-11.64,30.08c-7.27-3.62-15.2-6.15-23.57-7.36v-18.31c0-2.44,2.03-4.42,4.53-4.42h30.68Z"/><path class="cls-6" d="m220.63,300.87l10.43,56.24h-29.69c-1.23,0-2.35-.48-3.15-1.26-.81-.78-1.31-1.86-1.31-3.05v-48.06c8.12-.63,16.05-1.94,23.73-3.87Z"/><path class="cls-10" d="m198.38,180.86l30.62,48.6c-6.06,4.05-12.72,7.27-19.85,9.51l-10.78-58.11Z"/><path class="cls-1" d="m209.15,238.97l11.48,61.9c-7.68,1.93-15.61,3.24-23.73,3.87v-62.97c4.21-.61,8.3-1.55,12.25-2.79Z"/><path class="cls-2" d="m220.47,99.47l-21.88,56.54-1.03.08c-.42-.67-.66-1.45-.66-2.29v-61.69c8.37,1.21,16.3,3.74,23.57,7.36Z"/><path class="cls-2" d="m198.38,180.86l10.78,58.11c-3.95,1.24-8.05,2.19-12.25,2.79v-57.7c0-1.19.5-2.27,1.31-3.05.05-.05.11-.1.17-.15Z"/><path class="cls-6" d="m173.9,304.72v48.07c0,2.39-2,4.32-4.47,4.32h-29.69l10.44-56.3c7.67,1.94,15.6,3.26,23.72,3.91Z"/><path class="cls-1" d="m173.9,241.74v62.99c-8.12-.65-16.05-1.97-23.72-3.91l11.48-61.91c3.95,1.26,8.04,2.21,12.24,2.83Z"/><path class="cls-2" d="m173.9,184.07v57.67c-4.2-.62-8.29-1.57-12.24-2.83l10.76-58.05c.91.79,1.48,1.94,1.48,3.21Z"/><path class="cls-2" d="m173.9,92.17v61.63c0,1.07-.39,2.05-1.03,2.81l-.66-.6-21.84-56.45c7.21-3.61,15.08-6.15,23.38-7.39h.15Z"/><path class="cls-7" d="m173.9,92.15v.02h-.15c-8.3,1.24-16.17,3.78-23.38,7.39l-11.67-30.17h30.68c2.5,0,4.52,1.98,4.52,4.42v18.34Z"/><path class="cls-2" d="m172.21,156.01l.66.6c-.2.23-.42.45-.66.63l-58.79-17.54c1.86-4.73,4.2-9.22,6.95-13.44l51.84,29.75Z"/><path class="cls-10" d="m172.42,180.86l-10.76,58.05c-7.1-2.26-13.76-5.49-19.8-9.55l30.56-48.5Z"/><path class="cls-2" d="m172.42,180.86l-30.56,48.5c-8.07-5.42-15.04-12.31-20.5-20.27l51.06-28.24Z"/><path class="cls-10" d="m172.42,180.86l-51.06,28.24c-2.66-3.87-4.96-7.99-6.86-12.33l57.92-15.91Z"/><path class="cls-2" d="m172.42,180.86l-57.92,15.91c-2.36-5.38-4.1-11.08-5.13-17.02h60.07c1.15,0,2.2.42,2.99,1.11Z"/><path class="cls-10" d="m150.37,99.56l21.84,56.45-51.84-29.75c7.38-11.3,17.74-20.56,30-26.7Z"/><path class="cls-10" d="m113.42,139.7l58.79,17.54c-.77.61-1.76.98-2.83.98h-60.61c.76-6.46,2.34-12.67,4.65-18.52Z"/><path class="cls-3" d="m161.66,238.91l-11.48,61.91c-6.75-1.7-13.31-3.88-19.63-6.5-7.81-3.24-15.26-7.14-22.28-11.64l33.59-53.32c6.04,4.06,12.69,7.29,19.8,9.55Z"/><path class="cls-3" d="m138.69,69.39l11.67,30.17c-12.26,6.14-22.62,15.4-30,26.7l-52.92-30.37h-.51v-22.08c0-2.44,2.03-4.42,4.53-4.42h67.23Z"/><path class="cls-8" d="m150.18,300.82l-10.44,56.3h-67.92c-2.47,0-4.47-1.93-4.47-4.32v-5.17l40.91-64.95c7.02,4.5,14.47,8.4,22.28,11.64,6.32,2.62,12.88,4.8,19.63,6.5Z"/><path class="cls-1" d="m141.86,229.36l-33.59,53.32c-8.15-5.23-15.72-11.26-22.59-17.99-6.77-6.63-12.86-13.93-18.15-21.78h-.18v-4.12h.3l28.13-15.55,25.57-14.14c5.47,7.96,12.43,14.84,20.5,20.27Z"/><path class="cls-3" d="m121.36,209.1l-25.57,14.14-28.13,15.55h-.3v-29.08l47.14-12.94c1.9,4.34,4.2,8.46,6.86,12.33Z"/><path class="cls-1" d="m67.45,95.89l52.92,30.37c-2.75,4.21-5.09,8.71-6.95,13.44l-46.48-13.87v-29.94h.51Z"/><path class="cls-7" d="m114.5,196.77l-47.14,12.94v-25.64c0-2.39,2-4.32,4.47-4.32h37.54c1.03,5.94,2.77,11.64,5.13,17.02Z"/><path class="cls-4" d="m66.94,125.83l46.48,13.87c-2.31,5.86-3.9,12.07-4.65,18.52h-37.3c-2.5,0-4.53-1.98-4.53-4.42v-27.97Z"/><path class="cls-6" d="m108.27,282.68l-40.91,64.95v-104.72h.18c5.29,7.85,11.38,15.15,18.15,21.78,6.86,6.72,14.43,12.76,22.59,17.99Z"/><path class="cls-11" d="m108.77,158.22c.76-6.46,2.34-12.67,4.65-18.52,1.86-4.73,4.2-9.22,6.95-13.44,7.38-11.3,17.74-20.56,30-26.7,7.21-3.61,15.08-6.15,23.38-7.39"/><path class="cls-11" d="m173.9,241.74c-4.2-.62-8.29-1.57-12.24-2.83-7.1-2.26-13.76-5.49-19.8-9.55-8.07-5.42-15.04-12.31-20.5-20.27-2.66-3.87-4.96-7.99-6.86-12.33-2.36-5.38-4.1-11.08-5.13-17.02"/><path class="cls-11" d="m261.65,179.75c-1.04,5.96-2.79,11.68-5.16,17.07-1.91,4.35-4.22,8.48-6.89,12.36-5.49,7.97-12.49,14.86-20.6,20.28-6.06,4.05-12.72,7.27-19.85,9.51-3.95,1.24-8.05,2.19-12.25,2.79"/><path class="cls-11" d="m196.9,92.12c8.37,1.21,16.3,3.74,23.57,7.36,12.3,6.12,22.71,15.38,30.11,26.7,2.77,4.22,5.11,8.73,6.98,13.47,2.32,5.87,3.92,12.1,4.68,18.58"/><path class="cls-11" d="m303.44,347.63v5.17c0,1.19-.5,2.27-1.31,3.05-.81.78-1.93,1.26-3.16,1.26h-97.61c-1.23,0-2.35-.48-3.15-1.26-.81-.78-1.31-1.86-1.31-3.05v-168.73c0-1.19.5-2.27,1.31-3.05.05-.05.11-.1.17-.15.79-.69,1.84-1.11,2.99-1.11h97.61c1.23,0,2.35.48,3.16,1.27.81.78,1.31,1.86,1.31,3.05v163.56Z"/><polyline class="cls-11" points="198.38 180.86 209.15 238.97 220.63 300.87 231.06 357.11"/><polyline class="cls-11" points="198.38 180.86 229 229.46 262.59 282.78 303.44 347.63"/><polyline class="cls-11" points="198.38 180.86 249.6 209.18 303.14 238.79"/><polyline class="cls-11" points="198.38 180.86 256.49 196.82 303.44 209.71 303.86 209.82"/><path class="cls-11" d="m67.36,347.63v5.17c0,2.39,2,4.32,4.47,4.32h97.61c2.47,0,4.47-1.93,4.47-4.32v-168.73c0-1.27-.57-2.42-1.48-3.21-.79-.69-1.84-1.11-2.99-1.11h-97.61c-2.47,0-4.47,1.94-4.47,4.32v163.56Z"/><polyline class="cls-11" points="172.42 180.86 161.66 238.91 150.18 300.82 139.74 357.11"/><polyline class="cls-11" points="172.42 180.86 141.86 229.36 108.27 282.68 67.36 347.63"/><polyline class="cls-11" points="172.42 180.86 121.36 209.1 95.79 223.24 67.66 238.79"/><polyline class="cls-11" points="172.42 180.86 114.5 196.77 67.36 209.71 66.94 209.82"/><path class="cls-11" d="m303.86,125.83v27.97c0,2.44-2.03,4.42-4.53,4.42h-97.91c-1.07,0-2.06-.37-2.84-.98-.41-.32-.76-.71-1.03-1.15-.42-.67-.66-1.45-.66-2.29v-80c0-2.44,2.03-4.42,4.53-4.42h97.91c2.5,0,4.53,1.98,4.53,4.42v52.02Z"/><polyline class="cls-11" points="198.59 157.24 198.59 157.24 257.57 139.64 303.86 125.83"/><polyline class="cls-11" points="198.59 156.01 250.58 126.18 303.35 95.89"/><polyline class="cls-11" points="198.59 156.01 220.47 99.47 232.11 69.39"/><path class="cls-11" d="m66.94,125.83v27.97c0,2.44,2.03,4.42,4.53,4.42h97.91c1.07,0,2.06-.37,2.83-.98.24-.18.46-.4.66-.63.64-.76,1.03-1.74,1.03-2.81v-80c0-2.44-2.02-4.42-4.52-4.42h-97.91c-2.5,0-4.53,1.98-4.53,4.42v52.02Z"/><polyline class="cls-11" points="172.21 157.24 113.42 139.7 66.94 125.83"/><polyline class="cls-11" points="172.21 156.01 120.37 126.26 67.45 95.89"/><polyline class="cls-11" points="172.21 156.01 150.37 99.56 138.69 69.39"/><path class="cls-11" d="m173.9,304.72c-8.12-.65-16.05-1.97-23.72-3.91-6.75-1.7-13.31-3.88-19.63-6.5-7.81-3.24-15.26-7.14-22.28-11.64-8.15-5.23-15.72-11.26-22.59-17.99-6.77-6.63-12.86-13.93-18.15-21.78"/><path class="cls-11" d="m303.2,243.31c-5.22,7.7-11.22,14.87-17.87,21.38-6.9,6.77-14.52,12.83-22.74,18.08-6.97,4.46-14.37,8.33-22.13,11.54-6.38,2.64-13.01,4.84-19.83,6.55-7.68,1.93-15.61,3.24-23.73,3.87"/><path class="cls-9" d="m67.62,413.3l1.08-1.54c.78-1.06,1.62-1.1,2.84-.43,1.13.77,3.63,2.5,7.06,2.5,3.23,0,5.19-1.58,5.19-3.89,0-6.48-16.22-5.14-16.22-15.75,0-6,5.1-9.89,11.71-9.89,4.12,0,7.5,1.54,8.97,2.59,1.08.77,1.22,1.68.64,2.74l-.88,1.58c-.74,1.39-1.76,1.2-2.79.67-1.42-.82-3.33-1.87-6.03-1.87-3.24,0-5.29,1.54-5.29,3.84,0,6.38,16.22,4.75,16.22,15.6,0,5.52-4.22,10.08-11.52,10.08-4.95,0-8.97-2.16-10.68-3.46-.78-.67-1.27-1.49-.29-2.78Z"/><path class="cls-9" d="m100.21,399.67h-1.32c-1.32,0-2.01-.67-2.01-2.02v-.82c0-1.3.69-2.02,2.06-2.02h1.42v-4.99c0-1.3.73-2.02,2.06-2.02h1.96c1.32,0,2.06.72,2.06,2.02v4.99h3.63c1.32,0,2.06.72,2.06,2.02v.82c0,1.34-.74,2.02-2.01,2.02h-3.68v9.5c0,3.65,2.3,4.37,4.02,4.56,1.52.14,2.06.62,2.06,1.97v1.49c0,1.44-.83,2.02-2.55,2.02-4.46,0-9.75-2.35-9.75-8.98v-10.56Z"/><path class="cls-9" d="m137.91,386.9c0-1.3.69-2.02,2.01-2.02h11.37c6.52,0,11.08,4.46,11.08,11.09s-4.56,11.23-11.08,11.23h-7.11v9.74c0,1.34-.69,2.02-2.01,2.02h-2.25c-1.32,0-2.01-.67-2.01-2.02v-30.05Zm12.2,14.93c3.72,0,5.83-2.3,5.83-5.86s-2.11-5.76-5.73-5.76h-6.03v11.62h5.93Z"/><path class="cls-9" d="m177.32,386.51c.39-1.1,1.13-1.63,2.3-1.63h3.14c1.18,0,1.96.53,2.3,1.63l10.88,30.15c.49,1.39-.15,2.3-1.67,2.3h-2.25c-1.18,0-1.96-.53-2.3-1.63l-2.45-7.1h-12.2l-2.4,7.06c-.34,1.15-1.13,1.68-2.3,1.68h-2.25c-1.52,0-2.16-.91-1.67-2.3l10.88-30.15Zm8.38,18.67l-3.09-9.12c-.59-1.92-1.37-5.28-1.37-5.28h-.1s-.78,3.36-1.37,5.28l-3.14,9.12h9.07Z"/><path class="cls-9" d="m203.88,386.9c0-1.3.69-2.02,2.01-2.02h2.21c1.37,0,2.06.72,2.06,2.02v19.78c0,4.61,3.04,7.2,7.69,7.2s7.74-2.59,7.74-7.2v-19.78c0-1.3.69-2.02,2.01-2.02h2.25c1.32,0,2.01.72,2.01,2.02v19.83c0,7.63-5.59,12.82-13.97,12.82s-14.02-5.18-14.02-12.82v-19.83Z"/><path class="cls-9" d="m243.54,386.9c0-1.3.69-2.02,2.01-2.02h2.25c1.32,0,2.01.72,2.01,2.02v26.74h12.99c1.37,0,2.06.67,2.06,1.97v1.34c0,1.34-.69,2.02-2.06,2.02h-17.25c-1.32,0-2.01-.67-2.01-2.02v-30.05Z"/><path class="cls-9" d="m266.43,393.28l1.67-7.2c.25-1.2.93-1.78,2.21-1.78h1.37c1.52,0,2.16.86,1.71,2.26l-2.5,7.3c-.39,1.06-1.13,1.58-2.3,1.58h-.49c-1.47,0-1.96-.82-1.67-2.16Z"/><path class="cls-9" d="m281.43,413.3l1.08-1.54c.78-1.06,1.62-1.1,2.84-.43,1.13.77,3.63,2.5,7.06,2.5,3.23,0,5.19-1.58,5.19-3.89,0-6.48-16.22-5.14-16.22-15.75,0-6,5.1-9.89,11.71-9.89,4.12,0,7.5,1.54,8.97,2.59,1.08.77,1.22,1.68.64,2.74l-.88,1.58c-.74,1.39-1.76,1.2-2.79.67-1.42-.82-3.33-1.87-6.03-1.87-3.24,0-5.29,1.54-5.29,3.84,0,6.38,16.22,4.75,16.22,15.6,0,5.52-4.22,10.08-11.52,10.08-4.95,0-8.97-2.16-10.68-3.46-.78-.67-1.27-1.49-.29-2.78Z"/><path class="cls-9" d="m83.33,430.03c5.69,0,9.51,2.11,11.37,3.41,1.03.77,1.08,1.73.39,2.78l-.88,1.39c-.69,1.1-1.62,1.2-2.79.48-1.52-.96-4.26-2.4-7.84-2.4-7.6,0-11.67,5.42-11.67,11.71s4.22,12.19,11.71,12.19c3.92,0,6.91-1.82,8.53-2.98,1.08-.77,2.06-.77,2.84.34l.98,1.3c.73.96.69,1.97-.29,2.78-1.96,1.54-6.13,4.22-12.3,4.22-10.93,0-17.99-7.73-17.99-17.76s7.4-17.47,17.94-17.47Z"/><path class="cls-9" d="m109.6,432.24c.39-1.1,1.13-1.63,2.3-1.63h3.14c1.18,0,1.96.53,2.3,1.63l10.88,30.15c.49,1.39-.15,2.3-1.67,2.3h-2.25c-1.18,0-1.96-.53-2.3-1.63l-2.45-7.1h-12.2l-2.4,7.06c-.34,1.15-1.13,1.68-2.3,1.68h-2.25c-1.52,0-2.16-.91-1.67-2.3l10.88-30.15Zm8.38,18.67l-3.09-9.12c-.59-1.92-1.37-5.28-1.37-5.28h-.1s-.78,3.36-1.37,5.28l-3.14,9.12h9.07Z"/><path class="cls-9" d="m137.59,435.94h-9.36c-1.37,0-2.06-.67-2.06-1.97v-1.34c0-1.3.69-2.02,2.06-2.02h25c1.32,0,2.01.72,2.01,2.02v1.34c0,1.3-.69,1.97-2.01,1.97h-9.36v26.74c0,1.34-.69,2.02-2.06,2.02h-2.21c-1.32,0-2.01-.67-2.01-2.02v-26.74Z"/><path class="cls-9" d="m159.55,432.63c0-1.3.69-2.02,2.01-2.02h2.25c1.32,0,2.01.72,2.01,2.02v12.43h15.93v-12.43c0-1.3.69-2.02,2.06-2.02h2.21c1.32,0,2.01.72,2.01,2.02v30.05c0,1.34-.69,2.02-2.01,2.02h-2.21c-1.37,0-2.06-.67-2.06-2.02v-12.29h-15.93v12.29c0,1.34-.69,2.02-2.01,2.02h-2.25c-1.32,0-2.01-.67-2.01-2.02v-30.05Z"/><path class="cls-9" d="m211.99,430.03c10.54,0,17.99,7.63,17.99,17.38s-7.45,17.86-17.99,17.86-17.99-7.83-17.99-17.86,7.45-17.38,17.99-17.38Zm0,29.57c6.67,0,11.47-5.28,11.47-12.19s-4.8-11.71-11.47-11.71-11.47,5.09-11.47,11.71,4.8,12.19,11.47,12.19Z"/><path class="cls-9" d="m235.96,432.63c0-1.3.69-2.02,2.01-2.02h2.25c1.32,0,2.01.72,2.01,2.02v26.74h12.99c1.37,0,2.06.67,2.06,1.97v1.34c0,1.34-.69,2.02-2.06,2.02h-17.25c-1.32,0-2.01-.67-2.01-2.02v-30.05Z"/><path class="cls-9" d="m261.5,432.63c0-1.3.69-2.02,2.01-2.02h2.25c1.32,0,2.01.72,2.01,2.02v30.05c0,1.34-.69,2.02-2.01,2.02h-2.25c-1.32,0-2.01-.67-2.01-2.02v-30.05Z"/><path class="cls-9" d="m291.7,430.03c5.69,0,9.51,2.11,11.37,3.41,1.03.77,1.08,1.73.39,2.78l-.88,1.39c-.69,1.1-1.62,1.2-2.79.48-1.52-.96-4.26-2.4-7.84-2.4-7.6,0-11.67,5.42-11.67,11.71s4.22,12.19,11.71,12.19c3.92,0,6.91-1.82,8.53-2.98,1.08-.77,2.06-.77,2.84.34l.98,1.3c.73.96.69,1.97-.29,2.78-1.96,1.54-6.13,4.22-12.3,4.22-10.93,0-17.99-7.73-17.99-17.76s7.4-17.47,17.94-17.47Z"/><path class="cls-9" d="m84.23,475.59c5.69,0,9.51,2.11,11.37,3.41,1.03.77,1.08,1.73.39,2.78l-.88,1.39c-.69,1.1-1.62,1.2-2.79.48-1.52-.96-4.26-2.4-7.84-2.4-7.6,0-11.67,5.42-11.67,11.71s4.22,12.19,11.71,12.19c3.92,0,6.91-1.82,8.53-2.98,1.08-.77,2.06-.77,2.84.34l.98,1.3c.74.96.69,1.97-.29,2.78-1.96,1.54-6.13,4.22-12.3,4.22-10.93,0-17.99-7.73-17.99-17.76s7.4-17.47,17.94-17.47Z"/><path class="cls-9" d="m122.61,475.59c10.54,0,17.99,7.63,17.99,17.38s-7.45,17.86-17.99,17.86-17.99-7.83-17.99-17.86,7.45-17.38,17.99-17.38Zm0,29.57c6.67,0,11.47-5.28,11.47-12.19s-4.8-11.71-11.47-11.71-11.47,5.09-11.47,11.71,4.8,12.19,11.47,12.19Z"/><path class="cls-9" d="m150.99,478.18c0-1.3.69-2.02,2.01-2.02h2.25c1.32,0,2.01.72,2.01,2.02v26.74h12.99c1.37,0,2.06.67,2.06,1.97v1.34c0,1.34-.69,2.02-2.06,2.02h-17.25c-1.32,0-2.01-.67-2.01-2.02v-30.05Z"/><path class="cls-9" d="m180.94,478.18c0-1.3.69-2.02,2.01-2.02h2.25c1.32,0,2.01.72,2.01,2.02v26.74h12.99c1.37,0,2.06.67,2.06,1.97v1.34c0,1.34-.69,2.02-2.06,2.02h-17.25c-1.32,0-2.01-.67-2.01-2.02v-30.05Z"/><path class="cls-9" d="m210.89,478.18c0-1.3.69-2.02,2.01-2.02h16.76c1.32,0,2.06.72,2.06,2.02v1.34c0,1.3-.74,1.97-2.06,1.97h-12.5v8.93h9.7c1.32,0,2.06.67,2.06,1.97v1.34c0,1.34-.73,2.02-2.06,2.02h-9.7v9.17h13.28c1.32,0,2.06.67,2.06,1.97v1.34c0,1.34-.74,2.02-2.06,2.02h-17.55c-1.32,0-2.01-.67-2.01-2.02v-30.05Z"/><path class="cls-9" d="m257.94,475.59c5.73,0,9.9,2.11,11.37,3.12,1.08.82,1.18,1.68.44,2.78l-.88,1.34c-.74,1.1-1.62,1.2-2.84.53-1.52-.86-4.02-2.11-7.74-2.11-7.6,0-11.81,5.38-11.81,11.81,0,7.15,5.15,12.1,11.62,12.1,5.83,0,8.82-3.74,8.82-3.74v-3.79h-3.33c-1.32,0-2.06-.72-2.06-2.02v-1.3c0-1.34.74-2.02,2.06-2.02h6.96c1.32,0,2.01.67,2.01,2.02v13.92c0,1.34-.69,2.02-2.01,2.02h-1.22c-1.32,0-2.01-.67-2.01-1.63v-.82c0-.43.05-.82.05-.82h-.1s-3.48,3.84-10.19,3.84c-9.21,0-17.1-7.06-17.1-17.47s7.6-17.76,17.99-17.76Z"/><path class="cls-9" d="m283.38,478.18c0-1.3.69-2.02,2.01-2.02h16.76c1.32,0,2.06.72,2.06,2.02v1.34c0,1.3-.74,1.97-2.06,1.97h-12.5v8.93h9.71c1.32,0,2.06.67,2.06,1.97v1.34c0,1.34-.73,2.02-2.06,2.02h-9.71v9.17h13.28c1.32,0,2.06.67,2.06,1.97v1.34c0,1.34-.74,2.02-2.06,2.02h-17.55c-1.32,0-2.01-.67-2.01-2.02v-30.05Z"/></svg>