<?xml version="1.0" encoding="UTF-8"?><svg id="Layer_2" xmlns="http://www.w3.org/2000/svg" viewBox="0 0 540.06 842.88"><defs><style>.cls-1{fill:#a67c52;}.cls-1,.cls-2,.cls-3{stroke-width:0px;}.cls-3{fill:#8c6239;}</style></defs><g id="Layer_1-2"><path class="cls-3" d="m4,838.88V15.6C13.3,12.8,45.91,4,89.69,4c18.43,0,36.82,1.55,54.63,4.62,86.74,14.92,167.97,73.71,239.63,125.57,59.21,42.85,110.6,80.04,152.06,82.38.09,49.71,0,571.06-.02,622.32H4Z"/><path class="cls-2" d="m89.69,8c18.21,0,36.36,1.53,53.95,4.56,85.83,14.77,166.65,73.26,237.96,124.86,57.96,41.94,108.49,78.51,150.42,82.83.08,65.75,0,546.43-.02,614.63H8V18.6c11.81-3.33,42.11-10.6,81.69-10.6m0-8C36.47,0,0,12.68,0,12.68v830.2h540s.13-630.2,0-630.2c-89-.13-233-180.13-395-208C125.29,1.29,106.64,0,89.69,0h0Z"/><rect class="cls-1" x="67" y="251.55" width="408" height="525"/><path class="cls-2" d="m472,254.55v519H70V254.55h402m6-6H64v531h414V248.55h0Z"/><rect class="cls-1" x="67" y="269.55" width="408" height="57"/><path class="cls-2" d="m472,272.55v51H70v-51h402m6-6H64v63h414v-63h0Z"/><rect class="cls-1" x="67" y="323.55" width="408" height="57"/><path class="cls-2" d="m472,326.55v51H70v-51h402m6-6H64v63h414v-63h0Z"/><rect class="cls-1" x="67" y="377.55" width="408" height="57"/><path class="cls-2" d="m472,380.55v51H70v-51h402m6-6H64v63h414v-63h0Z"/><rect class="cls-1" x="67" y="485.55" width="408" height="57"/><path class="cls-2" d="m472,488.55v51H70v-51h402m6-6H64v63h414v-63h0Z"/><rect class="cls-1" x="67" y="539.55" width="408" height="57"/><path class="cls-2" d="m472,542.55v51H70v-51h402m6-6H64v63h414v-63h0Z"/><rect class="cls-1" x="67" y="431.55" width="408" height="57"/><path class="cls-2" d="m472,434.55v51H70v-51h402m6-6H64v63h414v-63h0Z"/><rect class="cls-1" x="67" y="593.55" width="408" height="57"/><path class="cls-2" d="m472,596.55v51H70v-51h402m6-6H64v63h414v-63h0Z"/><rect class="cls-1" x="67" y="647.55" width="408" height="57"/><path class="cls-2" d="m472,650.55v51H70v-51h402m6-6H64v63h414v-63h0Z"/><rect class="cls-1" x="67" y="701.55" width="408" height="57"/><path class="cls-2" d="m472,704.55v51H70v-51h402m6-6H64v63h414v-63h0Z"/></g></svg>