<?xml version="1.0" encoding="UTF-8"?><svg id="Layer_2" xmlns="http://www.w3.org/2000/svg" viewBox="0 0 540.06 842.88"><defs><style>.cls-1{fill:#a67c52;}.cls-1,.cls-2,.cls-3{stroke-width:0px;}.cls-3{fill:#8c6239;}</style></defs><g id="Layer_1-2"><path class="cls-3" d="m4.06,838.88c0-51.26-.11-572.61-.02-622.32,41.45-2.33,92.85-39.52,152.06-82.38C227.77,82.32,308.99,23.54,395.73,8.62c17.81-3.06,36.19-4.62,54.63-4.62,43.79,0,76.4,8.8,85.69,11.6v823.28H4.06Z"/><path class="cls-2" d="m450.37,8c39.58,0,69.88,7.27,81.68,10.6v816.28H8.05c-.01-68.2-.1-548.88-.02-614.63,41.92-4.31,92.45-40.88,150.42-82.83C229.76,85.82,310.59,27.33,396.41,12.56c17.59-3.03,35.74-4.56,53.96-4.56h0M450.36,0c-16.95,0-35.6,1.29-55.31,4.68C233.06,32.55,89.06,212.55.06,212.68c-.13,0,0,630.2,0,630.2h540V12.68S503.59,0,450.36,0h0Z"/><rect class="cls-1" x="65.06" y="251.55" width="408" height="525"/><path class="cls-2" d="m470.06,254.55v519H68.06V254.55h402m6-6H62.06v531h414V248.55h0Z"/><rect class="cls-1" x="65.06" y="269.55" width="408" height="57"/><path class="cls-2" d="m470.06,272.55v51H68.06v-51h402m6-6H62.06v63h414v-63h0Z"/><rect class="cls-1" x="65.06" y="323.55" width="408" height="57"/><path class="cls-2" d="m470.06,326.55v51H68.06v-51h402m6-6H62.06v63h414v-63h0Z"/><rect class="cls-1" x="65.06" y="377.55" width="408" height="57"/><path class="cls-2" d="m470.06,380.55v51H68.06v-51h402m6-6H62.06v63h414v-63h0Z"/><rect class="cls-1" x="65.06" y="485.55" width="408" height="57"/><path class="cls-2" d="m470.06,488.55v51H68.06v-51h402m6-6H62.06v63h414v-63h0Z"/><rect class="cls-1" x="65.06" y="539.55" width="408" height="57"/><path class="cls-2" d="m470.06,542.55v51H68.06v-51h402m6-6H62.06v63h414v-63h0Z"/><rect class="cls-1" x="65.06" y="431.55" width="408" height="57"/><path class="cls-2" d="m470.06,434.55v51H68.06v-51h402m6-6H62.06v63h414v-63h0Z"/><rect class="cls-1" x="65.06" y="593.55" width="408" height="57"/><path class="cls-2" d="m470.06,596.55v51H68.06v-51h402m6-6H62.06v63h414v-63h0Z"/><rect class="cls-1" x="65.06" y="647.55" width="408" height="57"/><path class="cls-2" d="m470.06,650.55v51H68.06v-51h402m6-6H62.06v63h414v-63h0Z"/><rect class="cls-1" x="65.06" y="701.55" width="408" height="57"/><path class="cls-2" d="m470.06,704.55v51H68.06v-51h402m6-6H62.06v63h414v-63h0Z"/></g></svg>