<?xml version="1.0" encoding="UTF-8"?><svg id="Layer_2" xmlns="http://www.w3.org/2000/svg" xmlns:xlink="http://www.w3.org/1999/xlink" viewBox="0 0 1621.14 1080.49"><defs><style>.cls-1{fill:#517196;}.cls-1,.cls-2,.cls-3,.cls-4,.cls-5,.cls-6,.cls-7,.cls-8,.cls-9,.cls-10,.cls-11,.cls-12,.cls-13,.cls-14,.cls-15,.cls-16,.cls-17,.cls-18,.cls-19,.cls-20,.cls-21,.cls-22,.cls-23,.cls-24,.cls-25,.cls-26,.cls-27,.cls-28,.cls-29,.cls-30{stroke-width:0px;}.cls-2{fill:#242a33;}.cls-3{fill:#46819d;}.cls-4{fill:#3f3f3f;}.cls-5{fill:#a1e2ff;}.cls-6{fill:#7a746e;}.cls-7{fill:#1d2430;}.cls-8{fill:#b7b800;}.cls-9{fill:#3b4455;}.cls-10{fill:#323946;}.cls-11{fill:#d9d300;}.cls-12{fill:#41383c;}.cls-13{fill:#585657;}.cls-14{fill:#243620;}.cls-15{fill:#35363d;}.cls-16{fill:#e5f297;}.cls-17{fill:#4c6b90;}.cls-18{fill:#666d00;}.cls-19{fill:#00285c;}.cls-20{fill:#4f4f4f;}.cls-21{fill:#bfb4b1;}.cls-22{fill:#b8a389;}.cls-23{fill:#bdc8d6;}.cls-24{fill:blue;}.cls-25{fill:#b8d6c6;}.cls-26{fill:#2d3035;}.cls-27{fill:#636363;}.cls-28{fill:#262935;}.cls-29{fill:#2d2c32;}.cls-30{fill:#5b5b5b;}</style></defs><g id="Layer_1-2"><image width="5184" height="3456" transform="translate(0) scale(.31)" xlink:href="IMG_7157.jpg"/><rect class="cls-27" x="988.64" y="586.51" width="632.5" height="464.71"/><path class="cls-16" d="m1179.55,803.72c8-74.46,392.21-89.02,441.19-90.67v-25.72H0v393.17h1620.74v-88.58c-39.7-9.57-449.58-110.12-441.19-188.19Z"/><rect class="cls-9" x="1422.3" y="535.57" width="198.43" height="44.04"/><rect class="cls-5" x="0" y=".51" width="1620.74" height="531.45"/><polygon class="cls-29" points="919.31 712.79 924.53 712.79 924.53 473.96 878.27 467.13 919.31 712.79"/><polygon class="cls-28" points="924.07 712.87 1061.25 719.09 1060.55 475.67 924.07 473.96 924.07 712.87"/><polygon class="cls-6" points="1407.88 698.37 1061.25 719.09 1060.55 476.26 1407.88 550.37 1407.88 698.37"/><rect class="cls-26" x="1407.88" y="550.37" width="34.83" height="148.69"/><polygon class="cls-13" points="1518.97 697.45 1442.71 699.06 1442.71 550.37 1518.97 571.47 1518.97 697.45"/><polygon class="cls-15" points="1620.74 703.43 1518.97 697.45 1518.97 579.6 1620.74 579.6 1620.74 703.43"/><polygon class="cls-2" points="328.01 623.31 560.1 627.33 560.1 569.47 331.78 563.95 328.01 623.31"/><rect class="cls-24" x="577.44" y="515.93" width="2.46" height="0"/><polygon class="cls-30" points="440.76 365.14 364.86 425.18 371.42 433.47 445.54 374.84 440.76 365.14"/><polygon class="cls-2" points="578.24 713.03 555.77 713.03 563.58 430 638.05 432.29 578.24 713.03"/><polygon class="cls-2" points="338.12 476.54 562.42 484.95 563.94 430 340.19 421.67 338.12 476.54"/><polygon class="cls-2" points="347.89 564.34 334.82 564.03 338.12 476.54 351.85 477.06 347.89 564.34"/><polygon class="cls-23" points="440.75 365.21 543.95 384.54 543.09 375.45 436.19 355.66 440.75 365.21"/><path class="cls-22" d="m328.01,744.86L0,780.3V141.37s120.5,45.59,159.92,62.61c25.94,11.2,76.67,36.29,101.27,50.18,9.45,5.33,27.46,17.51,36.37,23.71,6.36,4.42,18.7,13.85,24.4,19.1,4.17,3.84,11.59,12.54,14.73,17.26,2.82,4.24,8.23,13.18,9.21,18.18l-17.89,412.46Z"/><polygon class="cls-1" points="435.97 355.51 360.06 415.55 366.62 423.84 440.75 365.21 435.97 355.51"/><path class="cls-19" d="m921.92,724.46s-100.51,1.99-183.98,1.07c-103.72-1.14-160.5-8.75-160.5-8.75l83.78-393.58s20.05-27.09,92.07-33.6c81.48-7.37,100.35,18.41,100.35,18.41l68.28,416.45Z"/><polygon class="cls-3" points="559.73 569.47 347.89 564.34 351.85 477.06 562.06 484.95 559.73 569.47"/><polygon class="cls-3" points="555.81 713.03 329.28 713.03 332.89 623.11 558.14 627.21 555.81 713.03"/><polygon class="cls-23" points="637.9 432.6 342.02 421.67 342.32 414.8 639.41 425.66 637.9 432.6"/><polygon class="cls-17" points="942.33 476.92 879.73 467.13 876.92 450.01 945.02 461.07 942.33 476.92"/><polygon class="cls-17" points="1109.93 476.26 942.78 474.27 945.02 461.07 1116.72 461.07 1109.93 476.26"/><polygon class="cls-23" points="1242.93 502.88 1109.93 476.26 1116.72 461.07 1248.91 490.76 1242.93 502.88"/><polygon class="cls-20" points="1191.68 504.24 1237.32 501.76 1109.93 476.26 1060.55 475.67 1060.55 476.26 1191.68 504.24"/><polygon class="cls-23" points="1443.37 549.43 1232.88 508.98 1239.4 498.59 1444.32 540.25 1443.37 549.43"/><polygon class="cls-17" points="1443.37 549.43 1485.37 551.6 1485.37 542.09 1444.32 540.25 1443.37 549.43"/><polygon class="cls-17" points="1531.59 557.85 1559.67 563.27 1557.72 571.66 1531.13 566.48 1531.59 557.85"/><polygon class="cls-23" points="1542.6 563.26 1485.37 551.6 1485.37 542.09 1542.6 554.67 1542.6 563.26"/><polygon class="cls-4" points="1230.64 512.55 1203.56 506.78 1191.84 504.24 1237.41 501.76 1230.64 512.55"/><polygon class="cls-20" points="1407.88 550.37 1230.64 512.55 1232.88 508.98 1443.37 549.43 1442.71 550.37 1407.88 550.37"/><polygon class="cls-20" points="1485.37 562.17 1442.71 550.37 1443.37 549.43 1485.37 551.6 1485.37 562.17"/><polygon class="cls-20" points="1518.97 571.47 1485.37 562.17 1485.37 551.6 1531.43 560.99 1518.97 571.47"/><polygon class="cls-20" points="1557.35 579.6 1518.72 579.6 1518.72 571.18 1531.43 560.99 1531.13 566.48 1557.72 571.66 1557.35 579.6"/><rect class="cls-23" x="1403.56" y="531.96" width="217.17" height="3.61"/><polygon class="cls-1" points="572.29 353.7 543.09 375.45 543.95 384.54 573.3 363.22 572.29 353.7"/><polygon class="cls-23" points="649.41 378.67 573.3 363.22 572.29 353.7 651.32 369.69 649.41 378.67"/><polygon class="cls-7" points="590.94 423.84 547.21 422.29 547.21 389.67 580.66 366.18 590.94 423.84"/><polygon class="cls-10" points="547.21 422.29 441.5 418.42 443.14 370.1 547.21 389.67 547.21 422.29"/><polygon class="cls-12" points="443.14 370.1 441.5 418.42 384.56 416.34 443.14 370.1"/><polygon class="cls-21" points="611.81 424.65 590.94 423.84 580.66 366.18 601.55 368.95 611.81 424.65"/><polygon class="cls-21" points="645.85 395.42 604.79 386.55 601.55 368.95 649.41 378.67 645.85 395.42"/><polygon class="cls-30" points="443.14 370.1 547.21 389.67 543.95 384.54 440.75 365.14 443.14 370.1"/><polygon class="cls-30" points="573.3 363.22 543.95 384.46 547.21 389.67 580.66 366.18 573.3 363.22"/><polygon class="cls-30" points="601.55 368.95 580.66 366.18 573.3 363.22 590.23 366.66 601.55 368.95"/><polygon class="cls-23" points="1063.55 461.07 872.38 422.3 871.2 415.13 1086.88 461.07 1063.55 461.07"/><polygon class="cls-21" points="993.43 461.07 874.97 438.1 872.38 422.3 1063.55 461.07 993.43 461.07"/><polygon class="cls-21" points="926.88 458.12 912.36 455.77 909.9 444.86 925.26 447.85 926.88 458.12"/><polygon class="cls-23" points="1280.61 506.96 1246.62 500.05 1248.7 495.4 1280.02 502.17 1280.61 506.96"/><polygon class="cls-23" points="1244.61 499.65 1246.62 500.05 1248.7 495.4 1248.91 490.76 1244.61 499.65"/><polygon class="cls-5" points="639.41 425.66 611.81 424.65 604.79 386.55 645.85 395.42 639.41 425.66"/><polygon class="cls-5" points="912.36 455.77 876.92 450.01 874.97 438.1 909.9 444.86 912.36 455.77"/><polygon class="cls-5" points="945.02 461.07 926.88 458.12 925.26 447.85 993.43 461.07 945.02 461.07"/><polygon class="cls-5" points="1158.61 590.76 1094.62 586.51 1094.62 514.01 1158.61 524.72 1158.61 590.76"/><polygon class="cls-5" points="1325.06 615.43 1284.73 613.29 1284.73 557.59 1325.06 563.65 1325.06 615.43"/><polygon class="cls-5" points="1228.29 610.22 1187.5 608.3 1187.46 542.85 1228.29 548.92 1228.29 610.22"/><polygon class="cls-5" points="1241.24 708.54 1187.76 711.52 1187.78 647.27 1241.12 646.93 1241.24 708.54"/><polygon class="cls-5" points="1336.38 702.64 1284.73 705.73 1284.73 646.64 1336.38 646.35 1336.38 702.64"/><polygon class="cls-5" points="1362.15 588.35 1353.1 587.28 1353.1 567.79 1362.31 569.07 1362.15 588.35"/><polygon class="cls-5" points="1378.13 590.22 1369.07 589.16 1369.07 570.21 1378.29 571.49 1378.13 590.22"/><polygon class="cls-5" points="1393.92 591.95 1384.86 590.97 1384.86 572.57 1394.07 573.99 1393.92 591.95"/><polygon class="cls-5" points="1095.78 717.02 1162.89 713.01 1162.89 646.7 1095.78 646.35 1095.78 717.02"/><polygon class="cls-5" points="1450.5 566.08 1450.5 610.04 1478.24 613.84 1478.24 573.12 1450.5 566.08"/><path class="cls-14" d="m560.52,800.63c21.8-9.05,32.7-13.58,38.67-13.81,1.63-.06,12.13,2.11,33.14,6.44,13.18,2.72,19.04,4.04,26.7,1.84,9.05-2.6,9.09-6.79,15.65-7.37,8.51-.74,11.7,6.04,29.46,17.49,9.37,6.04,15.57,10.04,24.86,12.89,14.04,4.31,17.42.57,25.78,5.52,11.11,6.58,8.7,15.28,18.41,19.33,4.48,1.87,12.26.35,27.62-2.76,18.71-3.79,19.25-5.25,24.86-4.6,5.01.58,6.65,1.98,26.7,13.81,18.27,10.78,18.21,10.39,24.86,14.73,4.27,2.79,10.21,7.07,22.1,15.65,13.03,9.4,19.55,14.11,21.18,15.65,8.73,8.3,10.57,13.14,17.49,14.73,4.45,1.02,5.62-.53,14.73-1.84,8.85-1.27,19.26-2.77,28.54.92,8.96,3.56,6.39,7.78,17.49,13.81,3.18,1.73,15.24,8.28,27.62,4.6,4.06-1.21,3.45-2.12,10.13-5.52,6.54-3.33,18.19-9.28,31.3-7.37,4.21.61,14,2.04,16.57,8.29,2.99,7.27-6.77,13.83-3.68,21.18,2.29,5.45,10.41,8.36,16.57,7.37,6.48-1.05,6.6-5.74,14.73-10.13,9.16-4.94,18.71-4.22,25.78-3.68,8.91.68,15.43,3.11,19.33,4.6,7.82,2.99,8.38,4.64,23.02,12.89,15.14,8.53,16.48,7.86,20.25,11.97,6.96,7.57,3.68,11.24,11.05,20.25,1.58,1.93,11.19,13.7,23.02,12.89,3.97-.27,3.85-1.67,10.13-3.68,3.19-1.03,17.22-5.16,29.46,0,6.66,2.81,4.92,5.05,14.73,11.97,10.44,7.36,20.25,10.34,25.78,11.97,7.45,2.2,15.4,4.54,25.78,3.68,8.68-.72,8.19-2.77,16.57-3.68,9.58-1.04,17.44,1.15,33.14,5.52,9.07,2.53,13.61,3.79,19.33,6.44,3.86,1.79,10.3,6.13,23.02,14.73,9.94,6.72,13.45,9.3,17.49,13.81,3.47,3.87,5.84,7.52,7.37,10.13v9.02H397.57v-267.73c-1.06-3.38-1.75-7.79,0-11.97,4.43-10.59,21.28-11.94,33.14-12.89,9.52-.76,38.11-3.05,47.87,11.97,2.55,3.93,2.3,6.71,6.44,11.05,6.06,6.34,13.89,8.03,19.33,9.21,5.45,1.18,12.92,2.79,21.18,0,6.21-2.1,7.23-4.78,15.65-10.13,2.52-1.6,6.21-3.76,19.33-9.21Z"/><polygon class="cls-5" points="1450.5 650.09 1450.5 698.9 1478.24 698.31 1478.24 651.92 1450.5 650.09"/><path class="cls-8" d="m755.69,1040.79c-2.77,3.93-5.02,7.13-9.21,10.13-8.55,6.12-16.01,4.85-18.41,10.13-.79,1.73-1.21,4.56.92,9.21l-.92,9.94H0V354.9c.39-4.35,1.49-7.3,1.7-10.61.71-11.69,33-2.02,46,1.4,21.36,5.62,35.09,9.23,39.59,20.25,4.89,11.96-6.34,19.82-.92,31.3,6.34,13.42,27.88,15.79,34.99,16.57,13.62,1.5,16.36-2.06,34.99-3.68,19.03-1.66,35.79-3.12,51.56,4.6,17.86,8.74,16.09,20.29,35.91,27.62,4.5,1.67,15.69,5.65,28.54,2.76,13.09-2.94,15-10.12,29.46-19.33,5.48-3.49,7.97-4.23,53.4-16.57,21.98-5.97,33.07-8.89,37.75-5.52,9.41,6.78,9.83,25.79,3.68,38.67-4.3,9.02-8.9,8.9-26.7,25.78-13.48,12.78-20.27,19.36-23.02,28.54-.77,2.59-6.19,20.7,5.52,33.14,8.71,9.25,22.58,10.81,32.22,7.37,7.37-2.63,11.76-8.01,20.25-18.41,6.38-7.81,5.16-8.36,11.05-15.65,5.39-6.68,13.41-16.41,26.7-22.1,6.71-2.88,11.55-4.95,17.49-3.68,12.54,2.67,20.18,18.09,21.18,30.38.82,10.1-2.89,17.76-4.6,21.18-1.97,3.93-8.9,17.78-21.18,20.25-5.24,1.05-9.02-.45-12.89,2.76-3.24,2.69-4.06,6.62-4.6,9.21-.28,1.31-2.41,12.21,3.68,19.33,2.96,3.46,5.7,3.5,27.62,8.29,14.09,3.07,16.33,3.79,19.33,5.52,9.86,5.68,9.5,11.57,14.73,11.97,9.39.72,12.25-18.12,28.54-22.1,1.99-.49,7.74-1.89,12.89.92,2.63,1.43,4.79,3.79,10.13,17.49,4.2,10.78,6.3,16.18,6.44,20.25.12,3.31.47,13.12-5.52,21.18-3.01,4.04-5.22,4.43-6.44,8.29-1.55,4.87-.33,11.48,3.68,14.73,4.55,3.69,8.69-.19,15.65,1.84,11.78,3.43,20.6,20.58,17.49,32.22-.18.67-1.96,4.13-5.52,11.05-4.43,8.6-6.65,12.9-7.37,13.81-6.95,8.78-18.23,11.66-23.02,12.89-9.24,2.37-12.72.7-14.73,3.68-3.29,4.9,1.8,15.78,9.21,22.1,5.52,4.71,12.65,6.27,26.7,9.21,16.23,3.39,18.22,1.98,23.94,5.52,10.82,6.71,14.48,18.48,14.73,19.33,2.5,8.47-.95,10.13,1.84,17.49,3.65,9.64,12.74,15.16,16.57,17.49,8.98,5.46,12.54,3.65,15.65,8.29,4.34,6.48-1.38,11.85,2.76,19.33,2.4,4.34,7.13,6.58,16.57,11.05,10.25,4.85,11.02,3.19,15.65,6.44,6.58,4.63,12.8,13.44,12.89,23.02.08,9.19-5.55,11.42-3.68,17.49,1.53,4.98,6.06,5.92,20.25,13.81,13.3,7.39,10.16,7.02,21.18,12.89,11.66,6.21,17.26,7.73,23.02,14.73,1.24,1.5,3.74,4.6,5.52,9.21,3.55,9.18,1.02,16.1,0,25.78-1.9,17.99,2.52,34.96,4.6,34.99"/><path class="cls-18" d="m.06,1080.2V487.71c-.05-1.65-.09-4.13,0-7.14.4-12.97.6-19.45,3.96-23.48,4.08-4.89,11.01-5.56,24.86-6.9,4.01-.39,6.85-.42,10.59-.46,20-.22,29.42,2.95,33.6,4.6,5.44,2.15,7.48,3.9,8.75,5.98,2.47,4.09.37,6.85,1.84,11.97,2.48,8.61,11.87,12.73,13.35,13.35,4.35,1.82,8.94,1.55,17.95.92,15.36-1.07,18.08-3.58,24.86-1.38,4.19,1.36,6.94,3.67,12.43,8.29,5.37,4.51,10.41,8.75,12.43,15.65,1.25,4.26.01,5,1.38,8.75,2.72,7.47,10.04,11.21,11.51,11.97,14.4,7.38,25.27-4.71,35.45,2.76,4.35,3.2,6.47,8.42,9.21,15.19,2.93,7.25,2.13,9.81,1.84,10.59-1.17,3.16-3.47,3.09-8.29,8.29-3.07,3.32-5.04,5.45-5.52,8.75-.37,2.54-.02,6.82,2.76,9.21,3.09,2.65,6.73.85,20.25,0,6.19-.39,9.34-.57,11.97,0,4.15.91,7.88,3.07,15.19,7.37,8.24,4.84,8.59,5.76,10.59,5.52,3.2-.38,6.74-4.55,13.81-12.89,2.13-2.51,3.44-4.19,5.98-5.06,4.07-1.4,8.04.39,9.21.92,5.13,2.32,7.53,6.83,8.75,9.21,1.34,2.62,1.26,3.56,3.22,13.35,2.2,10.99,2.61,11.27,2.76,14.73.35,7.71-1.57,7.96-.46,11.97,2.09,7.52,8.99,7.09,11.05,14.27,1.75,6.1-2.64,8.48-.46,14.27,1.61,4.29,5.34,6.52,10.59,9.67,10.12,6.06,14.28,4.19,16.57,8.29,3.04,5.43-.59,15.29-6.44,20.25-3.88,3.29-7.39,3.29-7.83,5.98-.54,3.37,4.38,6.88,8.29,9.67,4.76,3.39,8.97,4.72,10.13,5.06,1.85.55,4.66,1.21,11.05,1.38,12.57.33,13.33-1.94,18.41-.46,5.34,1.55,10.85,5.89,12.89,11.51.89,2.43.74,6.69.46,15.19-.27,8.22-.73,9.34.46,11.05,1.96,2.8,6.4,3.44,15.19,4.6,2.44.32,4.02.46,9.67.92,15.67,1.27,17.1,1.32,19.33,2.76,5.52,3.56,7.45,10.2,7.83,11.51,1.98,6.81-.64,10.59,2.3,13.81,2.19,2.4,4.65,1.42,9.67,2.76,6.98,1.87,14.11,6.95,17.03,12.89,4.1,8.32-2.9,12.52.46,20.25,4.72,10.88,21.42,9.13,23.02,18.41.26,1.52-.59,5.16-2.3,12.43-1.27,5.4-1.98,7.21-2.3,8.75-2.92,13.88,19.88,32.5,20.71,31.76.51-.45-6.79-8.46-6.44-8.75.5-.42,17.35,15.06,13.81,23.02-1.1,2.47-3.41,2.52-5.98,6.9-.89,1.51-3.06,5.21-2.76,9.21.55,7.27,9.03,12.29,14.73,15.65,7.03,4.15,8.79,3.09,11.51,6.44,2.74,3.38,1.51,5.15,4.14,16.57,2.13,9.21,3.64,11.15,2.3,14.73-1.08,2.89-2.48,2.74-6.44,7.83-4.08,5.23-6.76,8.67-5.98,11.51.85,3.13,5.33,3.36,19.33,7.37,14.93,4.28,18.48,6.5,21.18,9.67,2.42,2.85,3.92,6.2,5.06,8.75,2.18,4.86,2.96,8.73,3.68,12.43.91,4.66,1.35,7.03.46,9.21-1.45,3.56-4.19,3.43-4.6,5.98-.76,4.76,7.98,10.29,9.21,11.05,3.91,2.42,6.31,2.6,7.37,5.06.99,2.32.06,4.98-.92,6.9l-.92,3.96H.06Z"/><path class="cls-11" d="m0,1080.2v-466.13s27.16-14.7,43.78-9.67c12.33,3.74,25.66,13.46,30.38,26.93,2.59,7.4.49,9.95,4.14,15.19,5.73,8.22,16.66,10.22,29.69,12.43,14.33,2.43,14,.04,22.79,2.07,2.54.59,28.46,6.95,35.22,25.55,4.89,13.46-4.66,21.16,1.38,29.69,4.1,5.79,14.24,6.62,34.52,8.29,16.63,1.36,24.94,2.05,35.91,0,18.43-3.44,22.37-10.14,29.69-6.9,10.55,4.66,13.27,23.38,13.12,33.83-.23,15.51-6.9,19.42-3.45,27.62,4.53,10.78,17.59,7.66,26.24,19.33,6.62,8.93,1.31,13.91,4.83,33.83,4.86,27.48,16.96,29.31,16.57,50.41-.26,14.01-5.68,17.99-2.07,29,3.38,10.31,11.53,17.16,16.57,21.41,11.74,9.87,16.44,7.44,23.48,15.88,1.72,2.07,9.67,12.09,8.98,24.86-.65,11.9-8.22,15.47-6.21,24.86,1.74,8.15,9.05,12.95,10.36,13.81,12.65,8.31,24.05-.8,33.14,6.9,5.85,4.96,8.45,14.92,5.52,21.41-1.99,4.41-5.46,4.82-24.86,16.57-7.13,4.32-11.35,7.1-11.05,10.36.23,2.55,3.15,4.39,5.52,5.52v6.95s-384.2,0-384.2,0Z"/><polygon class="cls-25" points="805.03 411.71 806.6 431.02 786.73 430.55 786.73 436.88 807.07 437.45 811.95 504.09 818.95 504.09 813.8 437.68 833.38 438.95 833.38 432.5 813.43 431.35 811.34 411.71 805.03 411.71"/></g></svg>