<?xml version="1.0" encoding="UTF-8"?><svg id="Layer_2" xmlns="http://www.w3.org/2000/svg" viewBox="0 0 541.31 843.75"><defs><style>.cls-1{fill:#a67c52;}.cls-1,.cls-2,.cls-3,.cls-4{stroke-width:0px;}.cls-2{fill:#42210b;}.cls-3{fill:#603813;}.cls-4{fill:#8c6239;}</style></defs><g id="Layer_1-2"><path class="cls-4" d="m541.31,843.75H1.31s-.13-630.2,0-630.2c89-.13,233-180.13,395-208,81.59-14.04,145,8,145,8v830.2Z"/><path class="cls-3" d="m485.43,813.86c-.02,2.5.46,5.25.73,7.9.3-2.33.6-4.66.9-6.99-.26-2.64-.51-7.2-.8-7.38-.28-.17-.81,4-.83,6.47Z"/><path class="cls-3" d="m6.98,328.4s0,.04,0,.06v-.06Z"/><path class="cls-3" d="m405.02,151.53c-.02,6.59.2,13.26.33,19.89.5-2.79,1-5.58,1.54-8.6-.33-6.27-.66-12.59-.99-18.9-.31,2.53-.87,5-.88,7.61Z"/><path class="cls-3" d="m371.34,813.86c-.02,2.5.46,5.25.73,7.9.3-2.33.6-4.66.9-6.99-.26-2.64-.51-7.2-.8-7.38-.28-.17-.81,4-.83,6.47Z"/><path class="cls-3" d="m518.43,744.63c.11,65.08,2.32,82.35,9.5,83.46,7.88,1.22,9.49-28.11,8.92-87.81-.4-41.61-.08-83.76-.08-134.21-.84-161.43-2.07-331.33-2.41-501.36-.12-62.59-1.84-84.86-9.3-85.31-7.65-.47-9.47,23.96-9.13,86.21,1.14,212.9,2.16,425.94,2.51,639.02Zm14.29-47.87c.41,4.98.81,9.95,1.22,14.88-.46,4.39-.9,8.5-1.33,12.6-.25-6.48-.59-12.84-.7-19.5-.04-2.28.52-5.3.81-7.98Zm-7.66,102.08c-.26-2.64-.53-5.29-.79-7.93l.9-6.99c.26,2.64.75,5.41.73,7.88-.02,2.51-.53,4.71-.83,7.05Zm.9-516.77c-.56.82-1.16-.06-1.74-.33.15-6.53.3-13.06.48-20.93.54,4.2,1.09,7.13,1.4,11.4.17,2.24-.02,9.68-.14,9.86Zm-.14-156.48c1.18,30.52,2.35,61.03,3.53,91.55-1.07,2.81-2.14,5.62-3.21,8.44-.89-31.35-1.79-62.7-2.68-94.06.79-1.98,1.57-3.95,2.36-5.93Z"/><path class="cls-3" d="m269.52,54.48c1.97,24.75,3.32,58.31,4.37,72.05.64-11.34,1.84-51.1,3.4-76.43-2.6,1.44-5.19,2.9-7.77,4.38Z"/><path class="cls-3" d="m386.58,44.51l-.35-3.13s.28,2.5.34,3.06c0,.02,0,.05.01.07Z"/><path class="cls-3" d="m252.28,181.89c1.78-32.46,1.19-82.59,2.26-118.58-1.14.69-2.28,1.39-3.42,2.09,1.45,30.49,1.08,72.04,1.16,116.5Z"/><path class="cls-3" d="m306.01,35.25c4.17,3.88,8.33,8.78,12.46,14.28.9,1.2.12,101.65,3.08,156.56,0-39.43-.86-81.01.29-117.57.77-24.39,4.02-42.63,6.35-63.16-7.45,3.06-14.85,6.37-22.19,9.88Z"/><path class="cls-3" d="m395.71,5.37c-22.71,3.91-45.07,10.81-66.97,19.78,1.13,20.58,2.76,40.53,3.1,62.1,1.19,74.56,1.93,149.7,2.81,224.65,2.56-59.95,5.24-119.5,7.45-180.38.28-7.7-2.87-21.97-3.11-35.08-.42-23.22.02-68.65.36-68.84,5.05-2.82,10.78-11.3,14.96,6.79,2.1,9.09,1.8,68.93,1.88,105.94.22,107.99.08,216.03.08,347.82,2.01-32.5,3.55-46.04,3.59-59.93.37-122.71.3-245.55.93-368.12.07-13.29,3.82-25.09,5.86-37.57.78,17.49,1.68,34.67,2.31,52.57.4,11.4.43,23.86,1.61,43.56,3.2-69.67,5.84-142.16,15.63-76.67,0-.2.02-.4.02-.6,3.7-6.53,7.38-17.51,11.11-18.75,10.41-3.46,9.51-5.02,5.42,87.54-2.13,48.2-.37,109.83,1.08,167.52.42-16.17.85-32.34,1.27-48.51.52-.38,1.04-.77,1.56-1.15v364.46c1.02-.06,2.03-.12,3.05-.17,0-161.65-.31-323.39.28-484.88.11-29.01,3.9-56.96,5.99-85.4,2.23,27.18,6.1,53.1,6.39,81.79.85,86.41.31,173.9,2.91,260.95,0-90.57.28-181.23-.11-271.67-.23-53.85,1.68-72.75,8-73.11,6.62-.38,8.13,23.8,7.72,75.23-.35,43.92-.07,88.24,1.19,132.48,1.26-38.59,3.31-76.67,3.63-115.87.64-77.04,1.17-134.91,11.61-56.42,1.28,9.63,6.42-30.79,9.84-31.96,12.44-4.25,24.93,2.38,37.35-3.14,7.89-3.5,9.16,26.64,9.04,86.99-.35,183.63-.23,367.34-.06,551.01.05,51.7.87,103.35,1.35,155.63q-13.68,21.2-16.97-142.45c0,28.2-.04,56.4,0,84.6.1,66.18-1.36,101.03-8.56,36.95-.97-8.67-4.18-13.93-4.46-10-6.04,82.9-9.51,16.35-13.55-15.76-2.01,67.64-8.54,66.08-14.04,55.69-4.12-7.78-7.6-41.7-11.06-62.11-.12,5.06-.55,22.24-.97,39.44-.49.37-.97.74-1.46,1.1v-339.61c-.99.12-1.97.23-2.96.35,0,96.17-.38,192.51.14,288.47.32,60.86-2.09,79.29-8.79,76.35-10.16-4.45-20.42-6.75-30.54.45-9.87,7.03-13.98-17.67-12.96-111.1.45-40.79-2.02-84.09-3.33-126.39.36,58.62,1,117.32.83,175.81-.06,20.04-2.39,39.55-3.67,59.3-2.16-16.02-5.89-29.8-6.23-48.43-1.83-100.38-2.83-201.97-5.56-308.46-.83,31.14-2.16,62.02-2.37,93.48-.38,58.41.39,117.63-.31,175.58-.37,30.4-2.83,58.81-4.34,88.12-3.64-22.76-7.35-44.79-10.89-68.84-.76-5.18-.89-17.62-1.52-31.32-2.12,109.48-1.99,104.42-14.21,81.28-5.16-9.77-10.95,8.93-16.47,10.96-10.01,3.68-20.03,5.68-30.05,4.68-.87-.09-2.41-27.45-2.44-42.34-.22-103.5-.11-207.04-2.61-313.98v358.16c-1.2-.49-2.39-.98-3.59-1.47-1.95-104.82-3.9-209.64-5.94-319.36v318.24c-.68,1.52-1.36,3.04-2.04,4.56-.84-32.13-1.69-64.25-2.53-96.38-2.8,79.17-7.49,123-17.08,75.56-.02.38-.03.76-.05,1.14-5.35,18.04-10.87,51.27-9.71-48.56.41-34.94-4.1-74.37-6.91-120.77,0,70.11.12,125.1-.27,179.79-.03,3.83-5.46,11.48-5.66,7.21-1.06-22.38-1.25-48.03-1.85-77.85-2.06,24.02-3.92,45.69-5.92,69-.64-22.11-1.22-41.84-1.24-42.46-3.65,18.62-6.98,49.28-10.46,50.85-13.09,5.88-26.25,5.62-39.33-.8-2.45-1.2-6.36-39.78-6.64-63.8-.87-74.96-.32-151.21-2.68-227.37v269.65c-.73.18-1.46.35-2.2.53-.47-38.26-.93-76.53-1.36-111.51-1.96,45.21-3.89,89.78-5.81,134.36-1.21-53.99-2.63-107.72-3.49-162.14-.23-14.9,1.22-31.88,1.9-47.9-1.12-2.22-2.23-4.44-3.35-6.66-.5,42.08-1.35,84.13-1.41,126.26-.07,51.62.71,95.99-8.24,94.31-7.61-1.42-11.5-14.49-10.1-88.09.18-9.29-.61-20.02-.47-15.85-2.02,28.98-4.53,64.9-7.04,100.82-2.6-43.07-5.2-86.14-7.38-122.36.36-7.04-.3,1.29-.48,10.37-.64,30.76-1.12,61.78-1.66,92.7-3.64-44.62-13.87,103.54-14.29-38.06,0-.19-1.98-1.34-2.02.11-3.08,114.26-13.26,36.82-19.86,54.18-1.35,3.55-5.66-35.33-6.04-58.03-.91-54.24-.29-110.49-2.91-165.85,0,52.6-.48,105.64.11,157.71.94,82.16-5.2,67.95-10.73,70.39-7.53,3.33-9.22-23.89-6.28-80.82-4.08,27.15-7.89,71.47-12.31,77-22.42,28.04-22.59,23.08-22.66-176.11-.03-89.51-1.35-180.16-.15-268.2,1.23-89.79-3.05-69.54-8.37-48.82.26,48.48.61,96.94.73,145.44.13,48.06.03,96.17,2.07,145.17.34-30.9.67-61.8,1.01-92.7.71.49,1.42.98,2.13,1.46,0,77.53.34,155.26-.22,232.47-.16,22-2.94,42.51-4.52,63.71-1.87-18.59-5.33-36.97-5.36-55.8-.3-185.26-.25-370.56-.26-555.86-.64.02-1.27.03-1.9.03-.11,0-.03,457.89,0,593.06.87,18.79,2.38,30.46,4.71,37.14h528.58c4.7-13.64,5.91-47.16,5.64-113.51-.82-202.57-.94-405.84.04-608.3.29-59.9-.69-92.97-3.91-109.93-16.41-4.75-71.88-18.19-140.04-6.47Zm9.64,166.05c-.12-6.63-.35-13.3-.33-19.89,0-2.62.57-5.08.88-7.61.33,6.31.66,12.63.99,18.9-.54,3.02-1.04,5.81-1.54,8.6Zm-33.28,650.33c-.26-2.64-.74-5.4-.73-7.9.02-2.47.55-6.64.83-6.47.28.18.53,4.74.8,7.38-.3,2.33-.6,4.66-.9,6.99Zm114.1,0c-.26-2.64-.74-5.4-.73-7.9.02-2.47.55-6.64.83-6.47.28.17.53,4.74.8,7.38-.3,2.33-.6,4.66-.9,6.99ZM525.06,19.4c7.46.45,9.18,22.72,9.3,85.31.34,170.04,1.57,339.93,2.41,501.36,0,50.45-.32,92.6.08,134.21.57,59.7-1.04,89.03-8.92,87.81-7.18-1.11-9.39-18.38-9.5-83.46-.35-213.08-1.37-426.12-2.51-639.02-.33-62.24,1.48-86.67,9.13-86.21Z"/><path class="cls-3" d="m334.58,319.57l.17,1.46c-.04-3.04-.07-6.09-.11-9.13-.09,2-.17,4.01-.26,6.01,0,.06.1.87.19,1.66Z"/><path class="cls-3" d="m253.93,803.07l.35,3.13s-.29-2.63-.34-3.1c0-.01,0-.02,0-.03Z"/><path class="cls-3" d="m6.98,328.4v.06c-.07.61-.19,1.71-.21,1.83h0s0,.02,0,0h0s-.03.23-.03.23c.09-.36.18-.71.28-1.07,0-.46,0-.93,0-1.39,0,0-.01.14-.04.34Z"/><path class="cls-3" d="m50.58,744.44c-.02.38-.04.75-.06,1.13.05-.35.1-.7.16-1.04l-.1-.09Z"/><path class="cls-3" d="m220.12,85.32c.17,9.16.27,19.06.28,29.63.08,59.24.02,118.5,2.69,178.09,0-47.7.31-95.59-.06-143.06-.21-26.76-.14-48.83.34-66.83-1.08.72-2.17,1.44-3.25,2.17Z"/><path class="cls-3" d="m471.12,765.79c.06.49.13.98.19,1.48.05-1.53.09-3.08.13-4.68l-.32,3.2Z"/><path class="cls-3" d="m446.24,760.23c0-.35.01-.59.02-.73,0,.14,0,.38-.02.73Z"/><path class="cls-3" d="m446.25,759.5c0-.18,0-.19,0,0h0Z"/><path class="cls-3" d="m385.29,583.92l-.1.79c.05,1.73.11,3.47.16,5.21-.01-2.04-.03-4.08-.04-6.12,0,0,0,.05-.02.13Z"/><path class="cls-3" d="m446.22,760.85h0c0-.23.01-.44.02-.62,0,.18,0,.38-.02.62Z"/><path class="cls-3" d="m19.67,317.5c.55-35.6,1.04-71.31,1.58-106.96-.75.19-1.5.37-2.24.55.09,35.33.24,70.79.66,106.41Z"/><path class="cls-3" d="m176.21,115.91c-.68.48-1.35.97-2.03,1.45.17,19.59.35,40.1,1.42,60.14.2-20.53.41-41.06.61-61.6Z"/><path class="cls-3" d="m101.02,169.42c-.05,18.31-.19,30.77-.42,30.98-10.39,9.32-4.08,77.09-4.14,105.56-.15,73.63,1.98,147.62,3.21,221.73,1.43-9.67,3.28-22.13,5.13-34.63V166.86c-1.26.86-2.52,1.71-3.77,2.55Z"/><path class="cls-3" d="m123.45,153.88c-1.33.94-2.66,1.88-3.99,2.81.21,45.56.22,91.63,1.21,137.87.93-46.89,1.8-93.87,2.78-140.69Z"/><path class="cls-3" d="m160.73,127.07c.37,78.12.41,156.58,2.65,234.94,0-78.97-.12-157.97.06-236.89-.9.65-1.8,1.3-2.7,1.95Z"/><path class="cls-3" d="m147.97,136.3c.25,42.13.75,84.45,2.45,127.04,0-42.88-.22-85.96-.1-128.74-.78.57-1.57,1.13-2.35,1.7Z"/><path class="cls-3" d="m199.68,99.3c.07,21.87.11,43.74.61,59.66.78-18.66,1.31-40.63,1.91-61.41-.84.58-1.68,1.16-2.52,1.75Z"/><path class="cls-3" d="m33.75,206.61c.06,77.76-.04,158.13-.04,245.81,3.06-31.5,4.73-48.64,7.62-78.32v214.07c.83.21,1.65.42,2.48.62,0-97.14.14-194.32-.22-291.36-.03-8.66-2.77-16.54-4.5-24.7-.33-22.61-.66-45.2-1-67.8-1.46.59-2.9,1.15-4.34,1.67Z"/><path class="cls-3" d="m104.79,493.05v.14l.11-.91c-.04.26-.08.52-.11.78Z"/><path class="cls-3" d="m63.28,464.82c1.38-15,3.76-28.94,3.98-45.17,1.03-76.57,1.71-153.51,2.39-230.44-1.65.95-3.29,1.88-4.91,2.79-.33,19.2-.65,38.41-.94,57.66-.81,52.82-1.31,106.01-4.14,159.62v-214.51c-.87.46-1.73.92-2.59,1.37-.06,73.98-.16,147.98.31,221.7.1,16.59,3.85,31.37,5.91,46.98Z"/><path class="cls-3" d="m91.92,239.85c0-.15,0-.31.01-.46l-.1.84c.02-.2.1-.82.09-.73v.35Z"/><path class="cls-3" d="m82.24,615.26c.28-.36.56-.72.84-1.09,2.91-123.41,5.83-246.82,8.74-370.24v-3.65c-.07-21.55-.15-43.09-.22-64.64-2.17,1.41-4.33,2.8-6.47,4.16-.97,145.31-1.93,290.38-2.9,435.46Z"/><path class="cls-3" d="m105.99,226.42c.98-.16,1.95-.33,2.93-.49,0-20.5-.13-41.19-.18-61.77-.92.63-1.84,1.26-2.75,1.88v60.38Z"/><path class="cls-3" d="m505.26,646.31c.35-57.6.67-109.51.99-161.42.46.37.91.74,1.37,1.11.51,35.43,1.02,70.86,1.53,106.28.39-.69.78-1.38,1.17-2.07V229.14c-1.3-1.44-2.6-2.89-3.9-4.33-1.59,93.19-3.18,186.38-4.77,279.58-.88.3-1.76.59-2.64.89V165.29c-1.19.65-2.39,1.3-3.58,1.94.89,161.37-4.69,332.49,9.84,479.07Z"/><path class="cls-3" d="m270.49,611.13c0-.06.01-.12.02-.18l-.02.18Z"/><path class="cls-3" d="m271.99,271.73c-2.37,91.07-4.77,183.13-7.61,292.23v-218.25c-.08.09-.16.18-.24.28v410.07c2.92-65.2,4.68-104.45,6.39-142.74-.02-.64-.05-1.28-.07-1.91.51-113.22,1.02-226.45,1.53-339.67Z"/><path class="cls-3" d="m270.73,608.94l-.03.24c0,.17,0,.34,0,.51.01-.25.02-.5.03-.74Z"/><path class="cls-3" d="m272.42,254.76c-.05-.48-.34-3.05-.34-3.05-.03,6.67-.06,13.34-.09,20.02.15-5.63.29-11.26.44-16.88,0,0,0-.04,0-.08Z"/><path class="cls-3" d="m78.29,184.06c-.6.37-1.21.74-1.81,1.1v497.78c.6-.25,1.21-.5,1.81-.75V184.06Z"/><path class="cls-3" d="m312.36,279.24c-.33-.25-.67-.51-1-.76-.92,119.57-1.84,239.15-2.76,358.72,1.25.6,2.51,1.19,3.76,1.79v-359.75Z"/><path class="cls-3" d="m91.83,773.51c.03.07.06.15.09.22,0-177.93,0-355.85.01-533.89v-.35c0-.09-.07.54-.09.73,0,.04,0,.06,0,.06v533.22Z"/><path class="cls-3" d="m201.7,730.48V232.78c-.43,1.3-.86,2.6-1.3,3.9v493.95c.43-.05.86-.1,1.3-.15Z"/><path class="cls-3" d="m257.33,402.42c-1.17,121.15-2.2,227.76-3.23,334.37,1.08.52,2.15,1.03,3.23,1.55v-335.92Z"/><path class="cls-3" d="m241.61,338.61V89.74c-.58.31-1.17.62-1.75.92v249.3c.58-.45,1.17-.9,1.75-1.35Z"/><path class="cls-3" d="m397.48,235.37v312.69c.33-.06.67-.13,1-.19V234.99c-.33.13-.67.26-1,.39Z"/><path class="cls-3" d="m392.47,162.93v287.64c.32-.15.64-.31.97-.46V162.67c-.32.08-.64.17-.97.25Z"/><path class="cls-3" d="m23.01,756.1c.8-.57,1.6-1.15,2.4-1.72-.54-81.84-1.07-163.68-1.61-245.51-1.11.84-2.23,1.69-3.34,2.53.85,81.57,1.7,163.14,2.55,244.71Z"/><path class="cls-3" d="m468.43,465.37c.91,89.48,1.81,178.96,2.72,268.45.02-89.94.02-179.71.02-269.48-.91.35-1.82.69-2.74,1.04Z"/><path class="cls-3" d="m471.15,765.55c-.02.24.3-2.96.3-2.96-.1-9.59-.19-19.18-.29-28.78,0,10.58,0,21.15,0,31.73Z"/><path class="cls-3" d="m464.94,139.21v268.05c.41-.02.82-.05,1.23-.07V139.15c-.41.02-.82.04-1.23.06Z"/><path class="cls-3" d="m324.31,226.33c-1.05,75.17-2.1,150.35-3.15,225.52.82.72,1.64,1.45,2.46,2.17l3.45-224.72c-.92-.99-1.84-1.98-2.76-2.97Z"/><path class="cls-3" d="m431.16,336.53V107.65c-.75,2.88-1.5,5.76-2.25,8.64.63,73.84,1.26,147.68,1.89,221.52.12-.42.24-.85.36-1.27Z"/><path class="cls-3" d="m150.37,525.36c.36-.26.73-.51,1.09-.77v-218.58c-.36.6-.73,1.19-1.09,1.79v217.56Z"/><path class="cls-3" d="m455.21,377.99c.37-48.96.74-97.92,1.11-146.88-.67-.51-1.34-1.01-2-1.52-1.13,48.78-2.25,97.55-3.38,146.33,1.42.69,2.85,1.38,4.27,2.07Z"/><path class="cls-3" d="m386.65,365.38c-.44,70.98-.88,141.95-1.31,212.93,1.59-69.38,3.17-138.69,4.75-208-1.15-1.64-2.29-3.29-3.44-4.93Z"/><path class="cls-3" d="m385.31,583.79l.03-5.48c-.05,2.1-.1,4.21-.14,6.31,0,.06.06-.45.09-.7.01-.08.02-.13.02-.13h0Z"/><path class="cls-3" d="m336.52,529.18c-.41.03-.81.06-1.22.08v200.61c.41-.03.81-.06,1.22-.09v-200.61Z"/><path class="cls-3" d="m214.19,371.76c-.05,1.84-.1,3.68-.15,5.51l.09.52c.02-2.01.04-4.02.06-6.03Z"/><path class="cls-3" d="m216.05,183.42c-.62,62.78-1.24,125.56-1.86,188.34,1.66-61.13,3.32-122.26,4.98-183.39-1.04-1.65-2.08-3.3-3.13-4.95Z"/><path class="cls-3" d="m456.92,592.34c.59-.09,1.18-.17,1.77-.26v-132.41c-1.25-.41-2.49-.83-3.74-1.24.66,44.64,1.31,89.27,1.97,133.91Z"/><path class="cls-3" d="m318.31,614.77v-177.31c-.37.08-.75.16-1.12.24v177.34c.38-.09.75-.18,1.12-.27Z"/><path class="cls-3" d="m378.05,566.7c1.13-1.91,2.27-3.83,3.4-5.74-.8-39.26-1.6-78.52-2.4-117.78-1.14,1.94-2.28,3.88-3.42,5.82.81,39.23,1.61,78.47,2.42,117.7Z"/><path class="cls-3" d="m305.77,786.71c1.22,2.58,2.43,5.16,3.65,7.75.51-38.1,1.02-76.21,1.53-114.31-1.23-1.41-2.45-2.81-3.68-4.22-.5,36.93-1,73.85-1.5,110.78Z"/><path class="cls-3" d="m340.57,413.86c-2.11-19.26-4.23-38.52-6.34-57.78.56,26.27,1.12,52.54,1.68,78.81,1.55-7.01,3.11-14.02,4.66-21.03Z"/><path class="cls-3" d="m334.02,348.57c-.09.85-.31,2.77-.31,2.77.17,1.58.35,3.16.52,4.73-.06-2.63-.11-5.27-.17-7.9,0,0,0,.01,0,.04,0,.06-.02.19-.04.36Z"/><path class="cls-3" d="m26.51,446.89c1.11-.97,2.22-1.94,3.34-2.91-.56-34.53-1.13-69.05-1.69-103.58-.55.46-1.1.92-1.65,1.37v105.12Z"/><path class="cls-3" d="m227.74,529.92c-.43.43-.86.87-1.29,1.3v129.82c.43-.24.86-.47,1.29-.71v-130.41Z"/><path class="cls-3" d="m212.12,728.5v-130.96c-.38,1.45-.77,2.89-1.15,4.34v127.16c.38-.18.77-.35,1.15-.53Z"/><path class="cls-3" d="m298.09,289.46c-.9,40.83-1.8,81.67-2.7,122.5.61,1.06,1.21,2.12,1.82,3.18l3.67-113.26c-.93-4.14-1.86-8.28-2.79-12.43Z"/><path class="cls-3" d="m104.79,493.19c.02,1.51.04,3.03.06,4.54.02-1.78.03-3.56.05-5.35.01-.1-.1.81-.1.81Z"/><path class="cls-3" d="m106.61,641.08c-.59-47.78-1.18-95.57-1.77-143.35-.44,47.84-.86,95.59-1.29,143.34,1.02,0,2.03,0,3.05.01Z"/><path class="cls-3" d="m428.6,641.45c.43,0,.86-.01,1.29-.02v-109.9c-.43-1.38-.86-2.75-1.29-4.13v114.05Z"/><path class="cls-3" d="m363.75,735c.39-.03.79-.06,1.18-.09v-117.11c-.39.03-.79.06-1.18.09v117.11Z"/><path class="cls-3" d="m215.43,526.14c-.45-47.81-.9-95.62-1.34-143.43-.56,47.89-1.14,95.59-1.72,143.29,1.02.05,2.04.09,3.07.14Z"/><path class="cls-3" d="m214.15,378.01c-.02-.21-.11-.74-.11-.74.02,1.82.03,3.63.05,5.45.02-1.57.04-3.14.06-4.71Z"/><path class="cls-3" d="m138.06,690.56c.43.09.86.19,1.29.28v-92.13c-.43-.85-.86-1.7-1.29-2.55v94.4Z"/><path class="cls-3" d="m435.08,479.86c-.49.17-.98.34-1.48.51v94.83c.66-1.82,1.33-3.64,1.99-5.45-.17-29.96-.35-59.93-.52-89.89Z"/><path class="cls-3" d="m232.5,184.62c-.34.09-.69.18-1.03.27v92.31c.34-.07.69-.14,1.03-.21v-92.37Z"/><path class="cls-3" d="m345.51,323.42c.43.02.86.03,1.29.05v-93.69c-.43-.39-.86-.78-1.29-1.17v94.81Z"/><path class="cls-3" d="m480.48,85.14c-.59,30.93-1.17,61.86-1.76,92.79.91.96,1.81,1.92,2.72,2.88.29-31.23.59-62.47.88-93.7-.61-.66-1.23-1.32-1.84-1.97Z"/><path class="cls-3" d="m139.93,160.12c.93-.23,1.86-.45,2.79-.68-.1-6.38-.21-12.76-.31-19.14-.76.55-1.51,1.09-2.27,1.63-.07,6.06-.15,12.12-.22,18.18Z"/><path class="cls-3" d="m179.47,665.23c.63.81,1.26,1.62,1.89,2.43-.16-24.93-.32-49.86-.48-74.79-.47.13-.94.27-1.41.4v71.97Z"/><path class="cls-3" d="m459.23,143.78c-.83-11.03-1.44-19.2-2.06-27.37-1.07,7.68-2.73,13.83-3.05,23.47-.3,9.05.81,21.79,1.3,32.9,1.2-9.11,2.39-18.21,3.81-29Z"/><path class="cls-3" d="m246.85,641.71c.65.73,1.3,1.45,1.95,2.18-.18-24.82-.36-49.63-.54-74.45-.47.18-.94.35-1.4.53v71.74Z"/><path class="cls-3" d="m380.54,693.65v-80.28h-1.28v80.28h1.28Z"/><path class="cls-3" d="m188.2,171.78c.03-1.34.06-2.67.09-4.01-.07,1.11-.14,2.23-.2,3.34l.11.66Z"/><path class="cls-3" d="m189.73,106.28c-.48,20.5-.96,40.99-1.44,61.49,1.29-21.07,2.57-42.13,3.86-63.2-.81.57-1.62,1.14-2.42,1.71Z"/><path class="cls-3" d="m408.07,660.1c-.2,19.41-.39,38.82-.74,73.69,1.44-20.52,2.27-26.95,2.17-31.99-.27-14.21-.92-27.84-1.43-41.7Z"/><path class="cls-3" d="m188.08,171.12c.04,1.05.08,2.1.12,3.15,0-.75.01-1.49.02-2.24-.02-.25-.13-.91-.13-.91Z"/><path class="cls-3" d="m188.2,174.27c-.19,24.92-.4,49.61-.61,74.3,1.07-1.01,2.15-2.02,3.22-3.03-.87-23.76-1.74-47.51-2.61-71.27Z"/><path class="cls-3" d="m35.13,535.41c.89-12.25,1.78-24.5,2.74-37.59-.38-4.83-.75-9.48-1.11-14.14-.99,8.98-2.28,16.73-2.85,27.46-.28,5.21.77,16,1.22,24.27Z"/><path class="cls-3" d="m283.42,223.93c1.01-17.08,1.76-23.91,1.64-28.95-.34-13.12-1.06-25.46-1.64-38.11v67.06Z"/><path class="cls-3" d="m48.66,649.78v-58.67c-.63.72-1.25,1.44-1.88,2.17.17,19.02.35,38.04.52,57.06.45-.18.91-.37,1.36-.55Z"/><path class="cls-3" d="m348.5,651.94c.57-7.24,1.15-14.48,1.64-20.75-.45-9-.77-15.29-1.09-21.57-.49,7.77-1.21,15.15-1.39,23.44-.12,5.64.53,12.55.83,18.89Z"/><path class="cls-3" d="m321.91,655.62c-.16,2.64-.32,5.28-.48,7.92,0,0,.01.11.03.29.09.77.34,2.81.34,2.81.04-3.67.07-7.35.11-11.02Z"/><path class="cls-3" d="m322.32,612.83c-.14,14.27-.27,28.53-.41,42.8.67-11.12,1.34-22.24,1.92-33.71.04-.85-.98-5.96-1.51-9.09Z"/><path class="cls-3" d="m492.44,461.12c-.03-4.47-.84-8.57-1.29-12.85-.29,9.85-.74,19.63-.79,29.57-.02,4.21.8,8.74,1.58,16.42.23-13.17.56-23.25.5-33.14Z"/><path class="cls-3" d="m329.07,438.14c-.03-4.47-.84-8.57-1.29-12.85-.29,9.85-.74,19.63-.79,29.57-.02,4.21.8,8.74,1.58,16.42.23-13.17.56-23.25.5-33.14Z"/><path class="cls-3" d="m424.4,565.27c-.55,6.44-1.35,12.31-1.56,19.51-.16,5.5.45,12.7.71,19.14.62-5.79,1.25-11.57,1.79-16.61-.4-9.23-.67-15.63-.95-22.04Z"/><path class="cls-3" d="m138.49,494.78c-.31,6.27-.97,13.07-.86,18.68.17,8.34.88,15.83,1.35,23.68.33-6.2.65-12.41,1.12-21.25-.49-6.43-1.06-13.77-1.62-21.11Z"/><path class="cls-3" d="m50.71,694.88c0-1.43-1.42-2.39-2.17-3.57.68,16.91,1.36,33.81,2.04,50.72.08-15.77.2-31.49.13-47.15Z"/><path class="cls-3" d="m50.57,744.37c.01.08.11.16.11.16-.03-.83-.07-1.67-.1-2.5,0,.78,0,1.56-.01,2.34Z"/><path class="cls-3" d="m377.22,400.76c.41-5.75,1.15-11.49,1.15-17.27,0-9.88-.44-19.8-.78-32.8-.64,9.33-1.4,15.34-1.35,20.89.07,9.88.63,19.47.99,29.18Z"/><path class="cls-3" d="m300.45,758.02l.33-2.92c-.11-1.26-.22-2.52-.33-3.77,0,2.29-.02,4.58-.03,6.87,0,0,0-.07.02-.18Z"/><path class="cls-3" d="m300.6,711.17c0,1.73-.01,3.46-.02,5.18.12-.68.25-1.37.37-2.05l-.35-3.13Z"/><path class="cls-3" d="m298.45,728.24c.67,7.7,1.34,15.4,2.01,23.09.04-11.66.09-23.31.13-34.97-.71,3.96-1.43,7.92-2.14,11.88Z"/><path class="cls-3" d="m418.63,719.73c-.29,2.68-.85,5.7-.81,7.98.11,6.66.45,13.02.7,19.5.43-4.11.87-8.21,1.33-12.6-.4-4.93-.81-9.91-1.22-14.88Z"/><path class="cls-3" d="m346.25,120.94c-.31,2.53-.87,5-.87,7.61-.02,6.59.2,13.25.33,19.89.5-2.79,1-5.58,1.54-8.6-.33-6.28-.66-12.59-.99-18.9Z"/><path class="cls-3" d="m288.65,217.36c.5-2.79,1-5.58,1.54-8.6-.33-6.27-.66-12.59-.99-18.9-.31,2.53-.87,5-.88,7.61-.02,6.59.2,13.25.33,19.89Z"/><path class="cls-3" d="m360.94,220.45c-.02,6.59.2,13.25.33,19.89.5-2.79,1-5.58,1.54-8.6-.33-6.28-.66-12.59-.99-18.9-.31,2.53-.87,5-.88,7.61Z"/><path class="cls-3" d="m476.69,236.11c.12-.17.31-7.62.14-9.86-.32-4.27-.86-7.21-1.4-11.4-.18,7.87-.33,14.4-.48,20.93.58.27,1.18,1.15,1.74.33Z"/><path class="cls-3" d="m5.61,290.86c.42,11.07.84,22.15,1.25,33.22.17-11.3.32-22.47.47-33.63-.58.14-1.15.27-1.73.41Z"/><path class="cls-3" d="m6.77,330.29h0s0,.02,0,0Z"/><path class="cls-3" d="m6.97,328.45s0-.04,0-.06c.02-.2.04-.34.04-.34-.05-1.32-.1-2.65-.15-3.97-.03,2.07-.06,4.13-.09,6.2h0c.01-.12.13-1.22.2-1.83Z"/><path class="cls-3" d="m475.56,310.73c.43-4.11.87-8.21,1.33-12.6-.4-4.93-.81-9.91-1.22-14.88-.29,2.68-.85,5.7-.81,7.98.11,6.66.45,13.02.7,19.5Z"/><path class="cls-3" d="m231.47,353.67c.54-1.72,1.09-3.44,1.63-5.18-.27-6.47-.55-12.92-.82-19.37-.3,1.64-.84,3.05-.86,4.97-.08,6.43.02,13.04.05,19.58Z"/><path class="cls-3" d="m285.93,399.61c.54-1.72,1.09-3.44,1.63-5.17-.27-6.47-.55-12.92-.82-19.37-.3,1.64-.84,3.05-.86,4.96-.08,6.43.02,13.04.05,19.58Z"/><path class="cls-3" d="m301.84,374.84c-.28,7.54-.62,13.9-.72,20.54-.04,2.39.51,5.45.79,8.21.41-4.95,1.09-9.72,1.13-14.91.03-4.09-.72-8.68-1.2-13.84Z"/><path class="cls-3" d="m158.87,445.56c.54-1.72,1.09-3.44,1.63-5.18-.27-6.47-.55-12.92-.82-19.37-.3,1.64-.84,3.05-.86,4.97-.08,6.43.02,13.04.05,19.58Z"/><path class="cls-3" d="m83.8,722.77c.5-2.79,1-5.58,1.54-8.6-.33-6.27-.66-12.59-.99-18.9-.31,2.53-.87,5-.88,7.61-.02,6.59.2,13.25.33,19.89Z"/><path class="cls-3" d="m362.18,500.21c.02,1.06.86,2.71,1.11,1.25.48-2.79.81-7.63,1.29-12.43-.89-1.6-1.63-2.94-2.36-4.27-.03,5.18-.13,10.45-.04,15.45Z"/><path class="cls-3" d="m356.75,512.9c-.3,1.64-.84,3.05-.86,4.96-.08,6.43.02,13.04.05,19.58.54-1.72,1.09-3.44,1.63-5.17-.27-6.47-.55-12.92-.82-19.37Z"/><path class="cls-3" d="m22.24,398.04c-.3,1.64-.84,3.05-.86,4.97-.08,6.43.02,13.04.05,19.58.54-1.72,1.09-3.44,1.63-5.18-.27-6.47-.55-12.92-.82-19.37Z"/><path class="cls-3" d="m271.87,648.6c-.42-11.07-.84-22.15-1.25-33.22-.17,11.3-.32,22.47-.47,33.63.58-.14,1.15-.27,1.73-.41Z"/><path class="cls-3" d="m270.7,609.17h0s0-.02,0,0Z"/><path class="cls-3" d="m270.49,611.13c-.02.17-.03.28-.03.28.02.64.05,1.28.07,1.91.03.69.05,1.37.08,2.06.03-1.9.06-3.79.09-5.69,0-.17,0-.34,0-.51h0c-.01.11-.12,1.14-.19,1.76,0,.07-.01.13-.02.18Z"/><path class="cls-3" d="m297.76,649.62c.12-.17.31-7.62.14-9.86-.32-4.27-.86-7.21-1.4-11.4-.18,7.87-.33,14.4-.48,20.93.58.27,1.18,1.15,1.74.33Z"/><path class="cls-3" d="m434.55,650.74c-.3,1.64-.84,3.05-.86,4.97-.08,6.43.02,13.04.05,19.58.54-1.72,1.09-3.44,1.63-5.18-.27-6.47-.55-12.92-.82-19.37Z"/><path class="cls-3" d="m470.7,72.26c-.28-.17-.81,4-.83,6.47-.02,2.5.46,5.25.73,7.9.3-2.33.6-4.66.9-6.99-.26-2.64-.51-7.2-.8-7.38Z"/><path class="cls-3" d="m486.99,79.63c.02-2.46-.46-5.24-.73-7.88-.3,2.33-.6,4.66-.9,6.99.26,2.64.53,5.29.79,7.93.3-2.34.81-4.54.83-7.04Z"/><path class="cls-3" d="m475.79,361.81c.28.17.59-4.11.89-6.44-.26-2.64-.53-5.29-.79-7.93-.3,2.33-.6,4.66-.9,6.99.26,2.64.51,7.2.8,7.38Z"/><path class="cls-3" d="m334.39,317.9c-.21,10.98-.42,21.99-.65,33.22-.02.17.19-1.71.28-2.55.02-.17.03-.3.04-.36,0-.02,0-.04,0-.04.23-9.03.46-18.06.69-27.12,0-.01-.08-.73-.17-1.48-.09-.79-.19-1.6-.19-1.66,0,0,0,0,0-.01Z"/><path class="cls-3" d="m223.53,331.43c-.02,2.5.46,5.25.73,7.9.3-2.33.6-4.66.9-6.99-.26-2.64-.51-7.2-.8-7.38-.28-.17-.81,4-.83,6.47Z"/><path class="cls-3" d="m365.18,424.28c-.26-2.64-.53-5.29-.79-7.93-.3,2.33-.6,4.66-.9,6.99.26,2.64.51,7.2.8,7.38.28.17.59-4.11.89-6.44Z"/><path class="cls-3" d="m227.74,401.31c-.26-2.64-.53-5.29-.79-7.93-.3,2.33-.6,4.66-.9,6.99.26,2.64.51,7.2.8,7.38.28.17.59-4.11.89-6.44Z"/><path class="cls-3" d="m133.5,569.1c.3-2.34.81-4.54.83-7.04.02-2.46-.46-5.24-.73-7.88-.3,2.33-.6,4.66-.9,6.99.26,2.64.53,5.29.79,7.93Z"/><path class="cls-3" d="m385.03,315.86c.28.17.59-4.11.89-6.44-.26-2.64-.53-5.29-.79-7.93-.3,2.33-.6,4.66-.9,6.99.26,2.64.51,7.2.8,7.38Z"/><path class="cls-3" d="m296.87,569.1c.3-2.34.81-4.54.83-7.04.02-2.46-.46-5.24-.73-7.88-.3,2.33-.6,4.66-.9,6.99.26,2.64.53,5.29.79,7.93Z"/><path class="cls-3" d="m278.72,315.86c.28.17.59-4.11.89-6.44-.26-2.64-.53-5.29-.79-7.93-.3,2.33-.6,4.66-.9,6.99.26,2.64.51,7.2.8,7.38Z"/><path class="cls-3" d="m490.56,561.17c.26,2.64.53,5.29.79,7.93.3-2.34.81-4.54.83-7.04.02-2.46-.46-5.24-.73-7.88-.3,2.33-.6,4.66-.9,6.99Z"/><path class="cls-3" d="m480.25,285.48c-.02,2.5.46,5.25.73,7.9.3-2.33.6-4.66.9-6.99-.26-2.64-.51-7.2-.8-7.38-.28-.17-.81,4-.83,6.47Z"/><path class="cls-3" d="m413.66,255.53c-.3,2.33-.6,4.66-.9,6.99.26,2.64.53,5.29.79,7.93.3-2.34.81-4.54.83-7.04.02-2.46-.46-5.24-.73-7.88Z"/><path class="cls-3" d="m385.03,270.45c.3-2.34.81-4.54.83-7.04.02-2.46-.46-5.24-.73-7.88-.3,2.33-.6,4.66-.9,6.99.26,2.64.53,5.29.79,7.93Z"/><path class="cls-3" d="m342.81,584.16c-.02,2.46.45,7.19.73,7.33.28.14.59-4.11.89-6.44-.26-2.64-.53-5.29-.79-7.93-.3,2.34-.81,4.54-.83,7.04Z"/><path class="cls-3" d="m242.41,431.26c.3-2.34.81-4.54.83-7.04.02-2.46-.46-5.24-.73-7.88-.3,2.33-.6,4.66-.9,6.99.26,2.64.53,5.29.79,7.93Z"/><path class="cls-3" d="m237.23,615.05c.3-2.34.81-4.54.83-7.04.02-2.46-.46-5.24-.73-7.88-.3,2.33-.6,4.66-.9,6.99.26,2.64.53,5.29.79,7.93Z"/><path class="cls-3" d="m377.36,255.53c-.3,2.33-.6,4.66-.9,6.99.26,2.64.53,5.29.79,7.93.3-2.34.81-4.54.83-7.04.02-2.46-.46-5.24-.73-7.88Z"/><path class="cls-3" d="m272.43,254.85c.26-6.49.52-12.98.78-19.47-.38,5.42-.76,10.83-1.14,16.29,0,.04.29,2.61.34,3.09,0,.05,0,.08,0,.08h0Z"/><path class="cls-3" d="m53.11,223.93c.28.14.59-4.11.89-6.44-.26-2.64-.53-5.29-.79-7.93-.3,2.34-.81,4.54-.83,7.04-.02,2.46.45,7.19.73,7.33Z"/><path class="cls-3" d="m385.14,186.62c-.3,2.33-.6,4.66-.9,6.99.26,2.64.53,5.29.79,7.93.3-2.34.81-4.54.83-7.04.02-2.46-.46-5.24-.73-7.88Z"/><path class="cls-3" d="m156.84,637.48c.28.17.59-4.11.89-6.44-.26-2.64-.53-5.29-.79-7.93-.3,2.33-.6,4.66-.9,6.99.26,2.64.51,7.2.8,7.38Z"/><path class="cls-3" d="m71.27,499.64c.28.17.59-4.11.89-6.44-.26-2.64-.53-5.29-.79-7.93-.3,2.33-.6,4.66-.9,6.99.26,2.64.51,7.2.8,7.38Z"/><path class="cls-3" d="m71.37,416.85c-.28-.17-.81,4-.83,6.47-.02,2.5.46,5.25.73,7.9.3-2.33.6-4.66.9-6.99-.26-2.64-.51-7.2-.8-7.38Z"/><path class="cls-3" d="m342.81,630.07c-.02,2.5.46,5.25.73,7.9.3-2.33.6-4.66.9-6.99-.26-2.64-.51-7.2-.8-7.38-.28-.17-.81,4-.83,6.47Z"/><path class="cls-3" d="m448.15,631c-.26-2.64-.53-5.29-.79-7.93-.3,2.34-.81,4.54-.83,7.04-.02,2.46.45,7.19.73,7.33.28.14.59-4.11.89-6.44Z"/><path class="cls-3" d="m221.67,660.45c.28.17.59-4.11.89-6.44-.26-2.64-.53-5.29-.79-7.93-.3,2.33-.6,4.66-.9,6.99.26,2.64.51,7.2.8,7.38Z"/><path class="cls-3" d="m296.97,186.62c-.3,2.33-.6,4.66-.9,6.99.26,2.64.53,5.29.79,7.93.3-2.34.81-4.54.83-7.04.02-2.46-.46-5.24-.73-7.88Z"/><path class="cls-3" d="m296.97,485.26c-.3,2.33-.6,4.66-.9,6.99.26,2.64.53,5.29.79,7.93.3-2.34.81-4.54.83-7.04.02-2.46-.46-5.24-.73-7.88Z"/><path class="cls-3" d="m429.11,384.74c.28.14.59-4.11.89-6.44-.26-2.64-.53-5.29-.79-7.93-.3,2.34-.81,4.54-.83,7.04-.02,2.46.45,7.19.73,7.33Z"/><path class="cls-3" d="m321.19,689.11l.33-2.92c-.1-.41-.21-.83-.31-1.24-.01,1.45-.03,2.89-.04,4.34,0,0,0-.07.02-.18Z"/><path class="cls-3" d="m321.21,684.94c.05-5.22.11-10.45.16-15.67-.54,3.28-1.07,6.57-1.61,9.85.48,1.94.96,3.88,1.45,5.82Z"/><path class="cls-3" d="m321.37,669.27c.14-.88.29-1.75.43-2.63,0,0-.24-2.05-.34-2.82-.02-.18-.03-.29-.03-.29-.02,1.91-.04,3.82-.06,5.73Z"/><path class="cls-3" d="m385.45,60.85c.38-5.42.76-10.83,1.14-16.29,0,0,0-.05-.01-.12-.06-.56-.34-3.06-.34-3.06,0,.2-.02.4-.02.6-.25,6.29-.51,12.58-.76,18.87Z"/><path class="cls-3" d="m187.96,706.94c.3-2.34.81-4.54.83-7.04.02-2.46-.46-5.24-.73-7.88-.3,2.33-.6,4.66-.9,6.99l.79,7.93Z"/><path class="cls-3" d="m300.6,711.13s.35,3.18.35,3.18c.26-6.49.52-12.98.78-19.47-.38,5.41-.76,10.83-1.14,16.29Z"/><path class="cls-3" d="m323.37,696.21c-.61-3.35-1.22-6.7-1.84-10.04,0,.01-.26,2.28-.34,2.94-.01.11-.02.18-.02.18.73,2.31,1.47,4.62,2.2,6.92Z"/><path class="cls-3" d="m349.62,493.2c-.26-2.64-.53-5.29-.79-7.93-.3,2.33-.6,4.66-.9,6.99.26,2.64.51,7.2.8,7.38.28.17.59-4.11.89-6.44Z"/><path class="cls-3" d="m276.12,453.65c.28.14.59-4.11.89-6.44-.26-2.64-.53-5.29-.79-7.93-.3,2.34-.81,4.54-.83,7.04-.02,2.46.45,7.19.73,7.33Z"/><path class="cls-3" d="m433.57,400.38c-.02,2.46.45,7.19.73,7.33.28.15.59-4.11.89-6.44-.26-2.64-.53-5.29-.79-7.93-.3,2.34-.81,4.54-.83,7.04Z"/><path class="cls-3" d="m433.57,721.96c-.02,2.5.46,5.25.73,7.9.3-2.33.6-4.66.9-6.99-.26-2.64-.51-7.2-.8-7.38-.28-.17-.81,4-.83,6.47Z"/><path class="cls-3" d="m463.66,745.84c.02-2.46-.46-5.24-.73-7.88-.3,2.33-.6,4.66-.9,6.99.26,2.64.53,5.29.79,7.93.3-2.34.81-4.54.83-7.04Z"/><path class="cls-3" d="m302.62,765.13c-.61-3.35-1.22-6.7-1.84-10.04,0,.01-.26,2.28-.34,2.94-.01.11-.02.18-.02.18.73,2.31,1.47,4.62,2.2,6.92Z"/><path class="cls-3" d="m143.87,798.29c.28.17.59-4.11.89-6.44-.26-2.64-.53-5.29-.79-7.93-.3,2.33-.6,4.66-.9,6.99.26,2.64.51,7.2.8,7.38Z"/><path class="cls-3" d="m255.06,786.73c-.38,5.41-.76,10.83-1.14,16.29,0,0,0,.04,0,.08.05.47.34,3.1.34,3.1.02-.38.03-.76.05-1.14.25-6.11.49-12.22.74-18.33Z"/><path class="cls-3" d="m529.34,217.13c-1.18-30.52-2.35-61.03-3.53-91.55-.79,1.98-1.57,3.95-2.36,5.93.89,31.35,1.79,62.7,2.68,94.06,1.07-2.81,2.14-5.62,3.21-8.44Z"/><path class="cls-3" d="m524.69,260.8c-.18,7.87-.33,14.4-.48,20.93.58.27,1.18,1.15,1.74.33.12-.17.31-7.62.14-9.86-.32-4.27-.86-7.21-1.4-11.4Z"/><path class="cls-3" d="m533.94,711.64c-.4-4.93-.81-9.91-1.22-14.88-.29,2.68-.85,5.7-.81,7.98.11,6.66.45,13.02.7,19.5.43-4.11.87-8.21,1.33-12.6Z"/><path class="cls-3" d="m524.27,790.89c.26,2.65.53,5.29.79,7.93.3-2.34.81-4.54.83-7.05.02-2.46-.46-5.24-.73-7.88l-.9,6.99Z"/><path class="cls-1" d="m133.87,675.38c-.5,2.79-1,5.58-1.54,8.6.33,6.27.66,12.59.99,18.9.31-2.53.87-5,.88-7.61.02-6.59-.2-13.26-.33-19.89Z"/><path class="cls-1" d="m532.23,518.41s0-.05,0-.07v.07Z"/><path class="cls-1" d="m398,790.77c.01.05.02.1.03.16l.1-1.19-.13,1.03Z"/><path class="cls-1" d="m153.92,262.86l.1-.77c-.05-1.73-.11-3.47-.16-5.21.01,2.04.03,4.08.04,6.13,0,0,0-.06.02-.15Z"/><path class="cls-1" d="m204.63,527.23l-.17-1.46c.04,3.04.07,6.09.11,9.13.09-2,.17-4.01.26-6.01,0-.06-.1-.87-.19-1.66Z"/><path class="cls-1" d="m532.23,518.41v-.07c.07-.61.19-1.71.21-1.83h0s0-.02,0,0c0,0,0,0,0,0l.03-.24c-.09.36-.18.71-.28,1.07,0,.46,0,.93,0,1.39,0,0,.01-.13.04-.33Z"/><path class="cls-1" d="m263.24,343.73V57.31c-1.76,1.03-3.52,2.07-5.27,3.12,1.73,92.86,3.46,186.16,5.27,283.29Z"/><path class="cls-1" d="m447.29,606.95c0,.15,0,.31-.01.46l.1-.8c-.03.23-.09.78-.08.69v-.35Z"/><path class="cls-1" d="m150.51,133.62c-.29,39.87,2.07,82.03,3.35,123.26-.26-41.7-.65-83.43-.8-125.11-.85.62-1.71,1.23-2.56,1.85Z"/><path class="cls-1" d="m163.86,123.97c1.33,82.96,2.4,167.17,4.64,254.69.83-31.14,2.16-62.02,2.37-93.48.36-55.35-.29-111.41.23-166.44-2.43,1.75-4.84,3.49-7.25,5.22Z"/><path class="cls-1" d="m95.42,385.02c.99-.12,1.97-.23,2.96-.35,0-71.45.21-142.98.1-214.38-1.02.68-2.05,1.36-3.06,2.04v212.7Z"/><path class="cls-1" d="m188.23,106.51c-.28.2-.57.4-.85.6.16,4.46.32,9.41.56,14.54.1-5.32.2-10.35.29-15.14Z"/><path class="cls-1" d="m267.81,117.3c.92-26.04,2.05-48.25,3.48-64.65-1.71.97-3.41,1.95-5.1,2.93.54,20.57,1.08,41.14,1.62,61.72Z"/><path class="cls-1" d="m294.48,40.15c.34,10.68.42,26.43.16,49.01-.41,34.94,4.1,74.37,6.91,120.77,0-67.39-.11-120.81.22-173.43-2.44,1.19-4.87,2.41-7.29,3.64Z"/><path class="cls-1" d="m309.33,100.78c2.06-24.02,3.92-45.69,5.92-69,.64,22.11,1.22,41.84,1.24,42.46,3.13-15.96,6.02-40.77,8.98-48.51-5.89,2.47-11.74,5.08-17.56,7.83.7,19.8.91,42.02,1.42,67.22Z"/><path class="cls-1" d="m488.63,102.35c.02-.38.04-.75.06-1.13-.05.35-.1.7-.16,1.04l.1.09Z"/><path class="cls-1" d="m152.63,802.29l.35,3.13s-.28-2.5-.34-3.06c0-.02,0-.05-.01-.07Z"/><path class="cls-1" d="m253.71,63c-.88.53-1.75,1.07-2.63,1.6,0,.85.02,1.68.02,2.46.22,103.5.11,207.04,2.61,313.98V63Z"/><path class="cls-1" d="m434.3,354.52c.04-.26.08-.52.11-.78v-.14l-.11.91Z"/><path class="cls-1" d="m395.5,4.68c-18.21,3.13-36.19,8.19-53.9,14.7,8.23-.81,16.47.79,24.67,4.81,2.45,1.2,6.36,39.78,6.64,63.8.87,74.96.32,151.21,2.68,227.37V45.71c.73-.18,1.46-.35,2.2-.53.47,38.26.93,76.53,1.36,111.51,1.96-45.21,3.89-89.78,5.81-134.36,1.21,53.99,2.63,107.72,3.49,162.14.23,14.9-1.22,31.88-1.9,47.9,1.12,2.22,2.23,4.44,3.35,6.66.5-42.08,1.35-84.13,1.41-126.26.07-51.62-.71-95.99,8.24-94.31,7.61,1.42,11.5,14.49,10.1,88.09-.18,9.29.61,20.02.47,15.85,2.02-28.98,4.53-64.9,7.04-100.82,2.6,43.07,5.2,86.14,7.38,122.36-.36,7.04.3-1.29.48-10.37.64-30.75,1.12-61.78,1.66-92.7,3.64,44.62,13.87-103.54,14.29,38.06,0,.19,1.98,1.34,2.02-.11,3.08-114.26,13.26-36.82,19.86-54.18,1.35-3.55,5.66,35.33,6.04,58.03.91,54.24.29,110.49,2.91,165.85,0-52.6.48-105.64-.11-157.71-.94-82.16,5.2-67.95,10.73-70.39,7.53-3.33,9.22,23.89,6.28,80.82,4.08-27.15,7.89-71.47,12.31-77,22.42-28.04,22.59-23.08,22.66,176.11.03,89.51,1.35,180.16.15,268.2-1.23,89.79,3.05,69.54,8.37,48.82-.26-48.48-.61-96.94-.73-145.44-.13-48.06-.03-96.17-2.07-145.17-.34,30.9-.67,61.8-1.01,92.7-.71-.49-1.42-.98-2.13-1.46,0-77.53-.34-155.26.22-232.47.16-22,2.94-42.51,4.52-63.71,1.87,18.59,5.33,36.97,5.36,55.8.38,229.24.2,458.54.27,687.83.03,97.85-8.29,49.15-13.14,55.54-.59.77-2.77-48.91-2.93-75.81-.42-71.5-.14-143.33-1.01-215.86-1.23,79.06-2.15,158.65-3.88,236.82-.48,21.56-3.4,38.88-5.19,58.15-1.65-20.41-4.65-40.41-4.73-61.31-.46-116.99-.22-234.2-.22-368.58-3.06,31.5-4.73,48.64-7.62,78.32v-214.07c-.83-.21-1.65-.42-2.48-.62,0,97.14-.14,194.32.22,291.36.03,8.66,2.77,16.54,4.5,24.7.93,62.86,1.84,125.63,2.77,188.39.93,63.18-3.09,70.81-8.58,58.32-1.04-2.37-1.76-21.17-2.68-21.53-6.55-2.6-13.1-2.38-19.66-3.06,1.16-66.33,2.43-132.53,3.45-199.03.81-52.82,1.31-106.01,4.14-159.62v268.24c.86.06,1.71.11,2.57.17,0-92.37.3-184.89-.28-276.97-.1-16.59-3.85-31.37-5.91-46.98-1.38,15-3.76,28.94-3.98,45.17-1.21,89.96-1.93,180.44-2.74,270.8q-1.22,135.54-16.13,118.3c1.3-195.28,2.6-390,3.89-584.71-.28.36-.56.72-.84,1.09-2.91,123.41-5.83,246.83-8.74,370.24v3.65c.23,67.38.46,134.76.69,202.15-3.24-3.44-9.2-3.91-9.29-10.79-.73-52.05-.82-150.87-.16-151.47,10.39-9.32,4.08-77.09,4.14-105.56.15-73.63-1.98-147.62-3.2-221.73-1.43,9.67-3.28,22.13-5.13,34.63v441.9c-.4.56-.8,1.12-1.2,1.67v-176.95c-.98.16-1.95.33-2.93.49,0,43.15.57,87.12-.21,129.13-.49,26.28-3,49.61-4.6,74.27-1.85-26.23-4.95-51.22-5.3-78.94-.8-63.37-.25-128.08-1.64-193.1-1.1,55.59-2.12,111.33-3.33,166.73-2.7,123.66-4.94,132.84-17.18,71.97-.89,11.02-1.79,22.04-2.68,33.06-1.31-14.99-3.65-29.44-3.76-45.05-.43-64.71-.18-129.77-2.8-195.48,0,58.88.42,118.12-.21,176.46-.25,22.52-2.9,42.98-4.46,64.37-1.9-22.17-5.26-43.52-5.43-66.64-.64-90.63-.26-181.81-2.87-272.86,0,92.18.19,184.42-.15,276.5-.07,19.94-2.08,39.32-3.19,58.96-2.34-16.16-5.93-28.59-6.72-49.37-1.15-30.34-.3-66.69-2.17-101.59-.24,24.68-.5,49.35-.73,74.04-.45,48.79,1.75,133.13-8.49,49.16-.22-1.82-.71-4.25-.82-3.48-17.81,116.91-12.69-38.41-14.64-101.17-1.94,46.56-2.38,113.78-5.94,131.39-8.37,41.34-14.05-.23-14.17-87.39-.08-59.24-.02-118.5-2.69-178.09,0,47.7-.31,95.59.06,143.06.75,95.3-1.98,131.26-14.69,134.6-16.15,4.24-14.4-74.95-14.57-166.5-3.49,63.53,2.12,194.68-13.46,155.28-4.19-10.6-6.53-78.76-8.14-99.91-.95,16.88-3.16,96.69-5.92,98.22-12.84,7.09-25.9-4.21-38.67-21.23-.9-1.2-.12-101.65-3.08-156.56,0,39.43.86,81.01-.29,117.57-.81,25.69-4.38,44.55-6.71,66.46-1.13-21.68-2.91-42.54-3.27-65.18-1.19-74.56-1.93-149.7-2.81-224.65-2.56,59.95-5.24,119.5-7.45,180.38-.28,7.7,2.87,21.97,3.11,35.08.42,23.22-.02,68.65-.36,68.84-5.05,2.82-10.78,11.3-14.96-6.79-2.1-9.09-1.8-68.93-1.88-105.94-.22-107.99-.08-216.03-.08-347.82-2.01,32.5-3.55,46.04-3.59,59.93-.37,122.71-.3,245.55-.93,368.12-.07,13.29-3.82,25.09-5.86,37.57-.78-17.49-1.68-34.67-2.31-52.57-.41-11.4-.43-23.86-1.61-43.56-3.2,69.67-5.84,142.16-15.63,76.67,0,.2-.02.4-.02.6-3.7,6.53-7.38,17.51-11.11,18.75-10.41,3.46-9.51,5.02-5.42-87.54,2.13-48.2.37-109.83-1.08-167.52-.42,16.17-.85,32.34-1.27,48.51-.52.38-1.04.77-1.56,1.15V254.31c-1.02.06-2.03.12-3.05.17,0,161.65.31,323.39-.28,484.88-.11,29.01-3.9,56.96-5.99,85.4-2.23-27.18-6.1-53.1-6.39-81.79-.85-86.41-.31-173.9-2.91-260.95,0,90.57-.28,181.23.11,271.67.23,53.85-1.68,72.75-8,73.11-6.62.38-8.13-23.8-7.72-75.23.35-43.92.07-88.24-1.19-132.48-1.26,38.59-3.31,76.67-3.63,115.87-.64,77.04-1.17,134.91-11.61,56.42-1.28-9.63-6.42,30.79-9.84,31.96-12.44,4.25-24.93-2.38-37.35,3.14-7.89,3.5-9.16-26.64-9.04-86.99.33-176.94.23-353.97.08-530.95-1.58.48-3.15.91-4.71,1.31.46,177.17,1.32,354.3,2.27,531.33.33,62.24-1.48,86.67-9.13,86.21-7.46-.45-9.18-22.72-9.3-85.31-.34-170.04-1.57-339.93-2.41-501.36,0-9.65.01-18.98.03-28.08-.66.02-1.31.03-1.96.03-.11,0-.03,453.48,0,591.08.91,19.99,2.52,32.21,5.03,39.12h529.3c3.76-12.44,4.73-41.99,4.57-96.33-.59-210.35-.8-421.12.07-631.32.23-55.97-.7-87.54-3.68-104.01-16.1-4.68-71.78-18.32-140.28-6.54ZM132.32,683.98c.54-3.02,1.04-5.81,1.54-8.6.12,6.63.35,13.3.33,19.89,0,2.62-.57,5.08-.88,7.61-.33-6.31-.66-12.63-.99-18.9Z"/><path class="cls-1" d="m32.96,361.91c-.46-.37-.91-.74-1.37-1.11-.51-35.43-1.02-70.86-1.53-106.28l-1.17,2.07v361.07c1.3,1.44,2.6,2.89,3.9,4.33,1.59-93.19,3.18-186.38,4.77-279.58.88-.3,1.76-.59,2.64-.89v339.98c1.19-.65,2.39-1.3,3.58-1.94-.88-159.51,4.55-328.52-9.35-473.97-.17.06-.34.13-.51.19-.34,55.49-.65,105.82-.96,156.12Z"/><path class="cls-1" d="m275.07,500.8V90.74c-2.92,65.2-4.68,104.45-6.39,142.74.02.64.05,1.28.07,1.91-.51,113.22-1.02,226.45-1.53,339.67,2.37-91.07,4.77-183.13,7.61-292.23v218.25c.08-.09.16-.18.24-.28Z"/><path class="cls-1" d="m266.79,591.98c.04.34.35,3.1.35,3.1.03-6.67.06-13.34.09-20.02-.15,5.63-.29,11.26-.44,16.88,0,0,0,.01,0,.04Z"/><path class="cls-1" d="m268.48,237.85l.03-.24c0-.17,0-.34,0-.51-.01.25-.02.5-.03.74Z"/><path class="cls-1" d="m462.73,163.85c-.6.25-1.21.5-1.81.75v587.1l1.81-.42V163.85Z"/><path class="cls-1" d="m230.61,209.59c-1.25-.6-2.51-1.19-3.76-1.79v359.75c.33.25.67.51,1,.76.92-119.57,1.84-239.15,2.76-358.72Z"/><path class="cls-1" d="m447.38,73.28c-.03-.07-.06-.15-.09-.22,0,177.93,0,355.85-.01,533.89v.35c0,.09.06-.46.08-.69,0-.06.01-.1.01-.1V73.28Z"/><path class="cls-1" d="m338.81,610.11V116.16c-.43.05-.86.1-1.3.15v497.7c.43-1.3.86-2.6,1.3-3.9Z"/><path class="cls-1" d="m281.88,108.46v335.92c1.17-121.15,2.2-227.76,3.23-334.37-1.08-.52-2.15-1.03-3.23-1.55Z"/><path class="cls-1" d="m299.36,756.13v-249.3c-.58.45-1.17.9-1.75,1.35v248.87c.58-.31,1.17-.62,1.75-.92Z"/><path class="cls-1" d="m141.74,611.42v-312.69c-.33.06-.67.13-1,.19v312.89c.33-.13.67-.26,1-.39Z"/><path class="cls-1" d="m146.74,683.87v-287.64c-.32.15-.65.31-.97.46v287.43c.32-.08.65-.17.97-.25Z"/><path class="cls-1" d="m516.2,90.7c-.8.57-1.6,1.15-2.4,1.72.54,81.84,1.07,163.68,1.61,245.51,1.11-.84,2.23-1.69,3.34-2.53-.85-81.57-1.7-163.14-2.55-244.71Z"/><path class="cls-1" d="m68.04,382.46c.91-.35,1.82-.69,2.74-1.04-.65-64.18-1.3-128.37-1.95-192.55-.26.15-.52.3-.78.45,0,64.42,0,128.79,0,193.14Z"/><path class="cls-1" d="m74.27,707.59v-268.05c-.41.02-.82.05-1.23.07v268.03c.41-.02.82-.04,1.23-.06Z"/><path class="cls-1" d="m218.05,394.94c-.82-.72-1.64-1.45-2.46-2.17-1.15,74.91-2.3,149.81-3.45,224.72.92.99,1.84,1.98,2.76,2.97,1.05-75.17,2.1-150.35,3.15-225.52Z"/><path class="cls-1" d="m108.05,510.26v228.89c.75-2.88,1.5-5.76,2.25-8.64-.63-73.84-1.26-147.68-1.89-221.52-.12.42-.24.85-.36,1.27Z"/><path class="cls-1" d="m388.84,321.43c-.36.26-.73.51-1.09.77v218.58c.36-.6.73-1.19,1.09-1.79v-217.56Z"/><path class="cls-1" d="m84,468.81c-.37,48.96-.74,97.92-1.11,146.88.67.51,1.34,1.01,2,1.52,1.13-48.78,2.25-97.55,3.38-146.33-1.42-.69-2.85-1.38-4.27-2.07Z"/><path class="cls-1" d="m152.56,481.41l1.31-212.93c-1.59,69.38-3.17,138.69-4.75,208,1.15,1.64,2.29,3.29,3.44,4.93Z"/><path class="cls-1" d="m153.9,263.01c-.01,1.83-.02,3.65-.03,5.48.05-2.1.1-4.21.14-6.31,0-.06-.06.43-.09.68-.01.09-.02.15-.02.15h0Z"/><path class="cls-1" d="m203.91,317.53V116.92c-.41.03-.82.06-1.22.09v200.61c.41-.03.81-.06,1.22-.08Z"/><path class="cls-1" d="m323.16,663.38c.62-62.78,1.24-125.56,1.86-188.34-1.66,61.13-3.32,122.26-4.98,183.39,1.04,1.65,2.08,3.3,3.13,4.95Z"/><path class="cls-1" d="m325.02,475.04c.05-1.84.1-3.68.15-5.52l-.09-.52c-.02,2.01-.04,4.02-.06,6.04Z"/><path class="cls-1" d="m82.29,254.45c-.59.09-1.18.17-1.77.26v132.41c1.25.41,2.49.83,3.74,1.24-.66-44.64-1.31-89.27-1.97-133.91Z"/><path class="cls-1" d="m222.03,409.09v-177.34c-.38.09-.75.18-1.12.27v177.31c.38-.08.75-.16,1.12-.24Z"/><path class="cls-1" d="m161.16,280.09c-1.13,1.91-2.27,3.83-3.4,5.74.8,39.26,1.6,78.52,2.4,117.78,1.14-1.94,2.28-3.88,3.42-5.82-.81-39.23-1.61-78.47-2.42-117.7Z"/><path class="cls-1" d="m233.22,75.87c-1.26.82-2.52,1.64-3.78,2.46-.39,29.44-.79,58.88-1.18,88.32,1.23,1.41,2.45,2.81,3.68,4.22.43-31.67.86-63.33,1.29-95Z"/><path class="cls-1" d="m205.19,498.22c.09-.85.31-2.77.31-2.77-.17-1.58-.35-3.16-.52-4.73.06,2.64.11,5.27.17,7.91,0,0,0-.01,0-.04,0-.06.02-.19.04-.36Z"/><path class="cls-1" d="m198.64,432.94c2.11,19.26,4.23,38.52,6.34,57.78-.56-26.27-1.12-52.54-1.68-78.81-1.55,7.01-3.11,14.02-4.66,21.03Z"/><path class="cls-1" d="m512.7,505.03v-105.12c-1.11.97-2.22,1.94-3.34,2.91.56,34.53,1.13,69.05,1.69,103.58.55-.46,1.1-.92,1.65-1.37Z"/><path class="cls-1" d="m312.76,185.76c-.43.24-.86.47-1.29.71v130.41c.43-.43.86-.87,1.29-1.3v-129.82Z"/><path class="cls-1" d="m328.24,244.92v-127.16c-.38.18-.77.35-1.15.53v130.96l1.15-4.34Z"/><path class="cls-1" d="m242,431.65c-1.22,37.75-2.45,75.51-3.67,113.26.93,4.14,1.86,8.28,2.79,12.43.9-40.83,1.8-81.67,2.7-122.5-.61-1.06-1.21-2.12-1.82-3.18Z"/><path class="cls-1" d="m434.31,354.42c-.01.1.1-.81.1-.81-.02-1.51-.04-3.03-.06-4.54-.02,1.78-.03,3.56-.05,5.35Z"/><path class="cls-1" d="m432.6,205.72c.59,47.78,1.18,95.57,1.77,143.35.44-47.84.86-95.59,1.29-143.34-1.02,0-2.03,0-3.05-.01Z"/><path class="cls-1" d="m110.61,205.35c-.43,0-.86.01-1.29.02v109.9c.43,1.38.86,2.75,1.29,4.13v-114.05Z"/><path class="cls-1" d="m174.28,228.99c.39-.03.79-.06,1.18-.09v-113.3c-.39.28-.79.57-1.18.85v112.53Z"/><path class="cls-1" d="m325.17,469.52c-.02-1.82-.03-3.63-.05-5.45-.02,1.57-.04,3.14-.06,4.71.02.21.11.74.11.74Z"/><path class="cls-1" d="m323.78,320.65c.45,47.81.9,95.62,1.34,143.42.56-47.89,1.14-95.59,1.72-143.28-1.02-.05-2.04-.09-3.07-.14Z"/><path class="cls-1" d="m401.15,156.24c-.43-.09-.86-.19-1.29-.28v92.13c.43.85.86,1.7,1.29,2.55v-94.4Z"/><path class="cls-1" d="m104.13,366.93c.49-.17.98-.34,1.48-.51v-94.83c-.66,1.82-1.33,3.64-1.99,5.45.17,29.96.35,59.93.52,89.89Z"/><path class="cls-1" d="m306.71,662.17c.34-.09.69-.18,1.03-.27v-92.31c-.34.07-.69.14-1.03.21v92.37Z"/><path class="cls-1" d="m193.7,523.38c-.43-.02-.86-.03-1.29-.05v93.69c.43.39.86.78,1.29,1.17v-94.81Z"/><path class="cls-1" d="m58.73,761.65c.59-30.93,1.17-61.86,1.76-92.79-.91-.96-1.81-1.92-2.72-2.88-.29,31.23-.59,62.47-.88,93.7.61.66,1.23,1.32,1.84,1.97Z"/><path class="cls-1" d="m398.01,790.66c-.01.11.12-.92.12-.92-.02-1.24-.04-2.48-.06-3.73-.02,1.55-.04,3.1-.06,4.65Z"/><path class="cls-1" d="m396.48,687.35c.53,32.89,1.06,65.78,1.59,98.67.41-33.17.81-66.26,1.21-99.34-.93.23-1.86.45-2.79.68Z"/><path class="cls-1" d="m359.74,181.56c-.63-.81-1.26-1.62-1.89-2.43.16,24.93.32,49.86.48,74.79.47-.13.94-.27,1.41-.4v-71.97Z"/><path class="cls-1" d="m79.99,703.01c.83,11.03,1.44,19.2,2.06,27.37,1.07-7.68,2.73-13.83,3.05-23.47.3-9.05-.81-21.79-1.3-32.9-1.2,9.11-2.39,18.21-3.81,29Z"/><path class="cls-1" d="m292.36,276.83v-71.74c-.65-.73-1.3-1.45-1.95-2.18.18,24.82.36,49.63.54,74.45.47-.18.94-.35,1.4-.53Z"/><path class="cls-1" d="m158.67,153.14v80.28h1.28v-80.28h-1.28Z"/><path class="cls-1" d="m349.08,757.92c.61-26.3,1.23-52.6,1.84-78.9l-4.37,71.49c.84,2.47,1.68,4.93,2.52,7.4Z"/><path class="cls-1" d="m350.92,679.02c.07-1.11.14-2.23.2-3.34l-.11-.66c-.03,1.34-.06,2.67-.09,4.01Z"/><path class="cls-1" d="m131.54,147.29c-.58.41-1.16.83-1.73,1.24.3,12.93.88,25.47,1.34,38.17.12-11.93.24-23.87.4-39.41Z"/><path class="cls-1" d="m348.4,601.26c.87,23.76,1.74,47.51,2.61,71.27.19-24.92.4-49.61.61-74.3-1.07,1.01-2.15,2.02-3.22,3.03Z"/><path class="cls-1" d="m350.99,674.76c.02.25.13.91.13.91-.04-1.05-.08-2.1-.12-3.15,0,.75-.01,1.49-.02,2.24Z"/><path class="cls-1" d="m504.08,311.38c-.89,12.25-1.78,24.5-2.74,37.59.38,4.83.75,9.48,1.11,14.14.99-8.98,2.28-16.73,2.85-27.46.28-5.21-.77-16-1.22-24.27Z"/><path class="cls-1" d="m255.79,689.92v-67.06c-1.01,17.08-1.76,23.91-1.64,28.95.34,13.12,1.06,25.46,1.64,38.11Z"/><path class="cls-1" d="m491.91,196.47c-.45.18-.91.37-1.36.55v58.67c.63-.72,1.25-1.44,1.88-2.17-.17-19.02-.35-38.04-.52-57.06Z"/><path class="cls-1" d="m530.55,725.3c-.62,5.79-1.25,11.58-1.79,16.61.4,9.23.67,15.63.95,22.04.55-6.44,1.35-12.31,1.56-19.51.16-5.5-.45-12.7-.71-19.14Z"/><path class="cls-1" d="m190.71,194.86c-.57,7.24-1.15,14.48-1.64,20.75.45,9,.77,15.29,1.09,21.57.49-7.77,1.21-15.15,1.39-23.44.12-5.64-.53-12.55-.83-18.89Z"/><path class="cls-1" d="m217.41,180.15c-.04,3.67-.07,7.35-.11,11.02.16-2.64.32-5.28.48-7.92,0,0,0-.05-.02-.13-.07-.59-.36-2.96-.36-2.96Z"/><path class="cls-1" d="m216.89,233.97l.41-42.8c-.67,11.12-1.34,22.24-1.92,33.71-.04.85.98,5.96,1.51,9.09Z"/><path class="cls-1" d="m46.77,385.68c.03,4.47.84,8.57,1.29,12.85.29-9.85.74-19.63.79-29.57.02-4.21-.8-8.74-1.58-16.42-.23,13.17-.56,23.25-.5,33.14Z"/><path class="cls-1" d="m210.14,408.65c.03,4.47.84,8.57,1.29,12.85.29-9.85.74-19.63.79-29.57.02-4.21-.8-8.74-1.58-16.42-.23,13.17-.56,23.25-.5,33.14Z"/><path class="cls-1" d="m114.81,281.52c.55-6.44,1.35-12.31,1.56-19.51.16-5.5-.45-12.7-.71-19.14-.62,5.79-1.25,11.57-1.79,16.61.4,9.23.67,15.63.95,22.04Z"/><path class="cls-1" d="m400.72,352.02c.31-6.27.97-13.07.86-18.68-.17-8.34-.88-15.83-1.35-23.68-.33,6.2-.65,12.41-1.12,21.25.49,6.43,1.06,13.77,1.62,21.11Z"/><path class="cls-1" d="m485.77,719.61c.49-7.77,1.21-15.15,1.39-23.44.12-5.64-.53-12.55-.83-18.89-.57,7.24-1.15,14.48-1.64,20.75.45,9,.77,15.29,1.09,21.57Z"/><path class="cls-1" d="m488.5,151.92c0,1.43,1.42,2.39,2.17,3.57-.68-16.91-1.36-33.81-2.04-50.72-.08,15.77-.2,31.49-.13,47.15Z"/><path class="cls-1" d="m488.65,102.43c-.01-.08-.11-.16-.11-.16.03.83.07,1.67.1,2.5,0-.78,0-1.56.01-2.34Z"/><path class="cls-1" d="m161.99,446.04c-.41,5.75-1.15,11.49-1.15,17.27,0,9.88.44,19.8.78,32.8.64-9.33,1.4-15.34,1.35-20.89-.07-9.88-.63-19.47-.99-29.18Z"/><path class="cls-1" d="m238.76,95.46c-.04,11.66-.09,23.32-.13,34.97.71-3.96,1.43-7.92,2.14-11.88-.67-7.7-1.34-15.4-2.01-23.09Z"/><path class="cls-1" d="m238.77,88.74l-.34,2.96c.11,1.26.22,2.51.33,3.77,0-2.29.02-4.58.03-6.87,0,0,0,.05-.02.14Z"/><path class="cls-1" d="m238.63,130.44c-.12.68-.25,1.37-.37,2.05l.35,3.13c0-1.73.01-3.46.02-5.19Z"/><path class="cls-1" d="m192.96,725.85c.31-2.53.87-5,.88-7.61.02-6.59-.2-13.25-.33-19.89-.5,2.79-1,5.58-1.54,8.6.33,6.28.66,12.59.99,18.9Z"/><path class="cls-1" d="m250.01,656.93c.31-2.53.87-5,.87-7.61.02-6.59-.2-13.25-.32-19.89-.5,2.79-1,5.58-1.54,8.6.33,6.27.66,12.59.99,18.9Z"/><path class="cls-1" d="m178.27,626.35c.02-6.59-.2-13.25-.32-19.89-.5,2.79-1,5.58-1.54,8.6.33,6.28.66,12.59.99,18.9.31-2.53.87-5,.87-7.61Z"/><path class="cls-1" d="m62.52,610.68c-.12.17-.31,7.62-.14,9.86.32,4.27.86,7.21,1.4,11.4.18-7.87.33-14.4.48-20.93-.58-.27-1.18-1.15-1.74-.33Z"/><path class="cls-1" d="m533.6,555.94c-.42-11.07-.84-22.15-1.25-33.22-.17,11.3-.32,22.47-.47,33.63.58-.14,1.15-.27,1.73-.41Z"/><path class="cls-1" d="m532.44,516.51h0s0-.02,0,0Z"/><path class="cls-1" d="m532.24,518.34s0,.05,0,.07c-.02.2-.04.33-.04.33.05,1.32.1,2.65.15,3.97.03-2.07.06-4.13.09-6.2,0,0,0,0,0,0-.01.12-.13,1.22-.2,1.83Z"/><path class="cls-1" d="m63.65,536.07c-.43,4.11-.87,8.21-1.33,12.6.4,4.93.81,9.91,1.22,14.88.29-2.68.85-5.7.81-7.98-.11-6.66-.45-13.02-.7-19.5Z"/><path class="cls-1" d="m307.74,493.13c-.54,1.72-1.09,3.44-1.63,5.18.27,6.47.55,12.92.82,19.37.3-1.64.84-3.05.86-4.97.08-6.43-.02-13.04-.05-19.58Z"/><path class="cls-1" d="m252.47,471.73c.3-1.64.84-3.05.86-4.96.08-6.43-.02-13.04-.05-19.58-.54,1.72-1.09,3.44-1.63,5.17.27,6.47.55,12.92.82,19.37Z"/><path class="cls-1" d="m236.17,458.12c-.03,4.09.72,8.68,1.2,13.84.28-7.54.62-13.9.72-20.54.04-2.39-.51-5.45-.79-8.21-.41,4.95-1.09,9.72-1.13,14.91Z"/><path class="cls-1" d="m380.34,401.24c-.54,1.72-1.09,3.44-1.63,5.18.27,6.47.55,12.92.82,19.37.3-1.64.84-3.05.86-4.97.08-6.43-.02-13.04-.05-19.58Z"/><path class="cls-1" d="m455.41,124.03c-.5,2.79-1,5.58-1.54,8.6.33,6.27.66,12.59.99,18.9.31-2.53.87-5,.88-7.61.02-6.59-.2-13.25-.33-19.89Z"/><path class="cls-1" d="m177.03,346.59c-.02-1.06-.86-2.71-1.11-1.25-.48,2.79-.81,7.63-1.29,12.43.89,1.6,1.63,2.94,2.36,4.27.03-5.18.13-10.45.04-15.45Z"/><path class="cls-1" d="m182.46,333.89c.3-1.64.84-3.05.86-4.96.08-6.43-.02-13.04-.05-19.58-.54,1.72-1.09,3.44-1.63,5.17.27,6.47.55,12.92.82,19.37Z"/><path class="cls-1" d="m516.97,448.76c.3-1.64.84-3.05.86-4.97.08-6.43-.02-13.04-.05-19.58-.54,1.72-1.09,3.44-1.63,5.18.27,6.47.55,12.92.82,19.37Z"/><path class="cls-1" d="m268.6,231.42c-.03,1.9-.06,3.79-.08,5.69,0,.17,0,.34,0,.51h0c.02-.16.24-2.23.24-2.23-.02-.64-.05-1.28-.07-1.91-.03-.69-.05-1.37-.08-2.06Z"/><path class="cls-1" d="m268.51,237.62h0s0,.02,0,0Z"/><path class="cls-1" d="m267.35,198.19c.42,11.07.84,22.15,1.25,33.22.17-11.3.32-22.47.47-33.63-.58.14-1.15.27-1.73.41Z"/><path class="cls-1" d="m241.45,197.17c-.12.17-.31,7.62-.14,9.86.32,4.27.86,7.21,1.4,11.4.18-7.87.33-14.4.48-20.93-.58-.27-1.18-1.15-1.74-.33Z"/><path class="cls-1" d="m105.48,171.51c-.54,1.72-1.09,3.44-1.63,5.17.27,6.47.55,12.92.82,19.37.3-1.64.84-3.05.86-4.97.08-6.43-.02-13.04-.05-19.58Z"/><path class="cls-1" d="m68.51,774.54c.28.17.81-4,.83-6.47.02-2.5-.46-5.25-.73-7.9-.3,2.33-.6,4.66-.9,6.99.26,2.64.51,7.2.8,7.38Z"/><path class="cls-1" d="m52.94,775.04c.3-2.33.6-4.66.9-6.99-.26-2.64-.53-5.29-.79-7.93-.3,2.34-.81,4.54-.83,7.04-.02,2.46.46,5.24.73,7.88Z"/><path class="cls-1" d="m63.42,484.99c-.28-.17-.59,4.11-.89,6.44.26,2.64.53,5.29.79,7.93.3-2.33.6-4.66.9-6.99-.26-2.64-.51-7.2-.8-7.38Z"/><path class="cls-1" d="m204.82,528.89c.21-10.98.42-21.99.65-33.22.02-.17-.19,1.71-.28,2.55-.02.17-.03.3-.04.36,0,.02,0,.04,0,.04-.23,9.03-.46,18.06-.69,27.12,0,.01.08.74.17,1.49.09.79.19,1.59.19,1.66,0,0,0,0,0,.01Z"/><path class="cls-1" d="m314.06,514.46c.26,2.64.51,7.2.8,7.38.28.17.81-4,.83-6.47.02-2.5-.46-5.25-.73-7.9-.3,2.33-.6,4.66-.9,6.99Z"/><path class="cls-1" d="m174.03,422.51c.26,2.64.53,5.29.79,7.93.3-2.33.6-4.66.9-6.99-.26-2.64-.51-7.2-.8-7.38-.28-.17-.59,4.11-.89,6.44Z"/><path class="cls-1" d="m313.15,446.42c-.26-2.64-.51-7.2-.79-7.38-.28-.17-.59,4.11-.89,6.44.26,2.64.53,5.29.79,7.93.3-2.33.6-4.66.9-6.99Z"/><path class="cls-1" d="m405.71,277.69c-.3,2.34-.81,4.54-.83,7.04-.02,2.46.46,5.24.73,7.88.3-2.33.6-4.66.9-6.99-.26-2.64-.53-5.29-.79-7.93Z"/><path class="cls-1" d="m154.18,530.94c-.28-.17-.59,4.11-.89,6.44.26,2.64.53,5.29.79,7.93.3-2.33.6-4.66.9-6.99-.26-2.64-.51-7.2-.8-7.38Z"/><path class="cls-1" d="m242.34,277.69c-.3,2.34-.81,4.54-.83,7.04-.02,2.46.46,5.24.73,7.88.3-2.33.6-4.66.9-6.99-.26-2.64-.53-5.29-.79-7.93Z"/><path class="cls-1" d="m259.61,537.38c.26,2.64.53,5.29.79,7.93.3-2.33.6-4.66.9-6.99-.26-2.64-.51-7.2-.8-7.38-.28-.17-.59,4.11-.89,6.44Z"/><path class="cls-1" d="m48.65,285.63c-.26-2.64-.53-5.29-.79-7.93-.3,2.34-.81,4.54-.83,7.04-.02,2.46.46,5.24.73,7.88.3-2.33.6-4.66.9-6.99Z"/><path class="cls-1" d="m58.96,561.31c.02-2.5-.46-5.25-.73-7.9-.3,2.33-.6,4.66-.9,6.99.26,2.64.51,7.2.8,7.38.28.17.81-4,.83-6.47Z"/><path class="cls-1" d="m125.55,591.26c.3-2.33.6-4.66.9-6.99-.26-2.64-.53-5.29-.79-7.93-.3,2.34-.81,4.54-.83,7.04-.02,2.46.46,5.24.73,7.88Z"/><path class="cls-1" d="m154.18,576.34c-.3,2.34-.81,4.54-.83,7.04-.02,2.46.46,5.24.73,7.88.3-2.33.6-4.66.9-6.99-.26-2.64-.53-5.29-.79-7.93Z"/><path class="cls-1" d="m196.4,262.63c.02-2.46-.45-7.19-.73-7.33-.28-.14-.59,4.11-.89,6.44.26,2.64.53,5.29.79,7.93.3-2.34.81-4.54.83-7.04Z"/><path class="cls-1" d="m296.69,430.45c.3-2.33.6-4.66.9-6.99-.26-2.64-.53-5.29-.79-7.93-.3,2.34-.81,4.54-.83,7.04-.02,2.46.46,5.24.73,7.88Z"/><path class="cls-1" d="m301.88,246.67c.3-2.33.6-4.66.9-6.99-.26-2.64-.53-5.29-.79-7.93-.3,2.34-.81,4.54-.83,7.04-.02,2.46.46,5.24.73,7.88Z"/><path class="cls-1" d="m161.85,591.26c.3-2.33.6-4.66.9-6.99-.26-2.64-.53-5.29-.79-7.93-.3,2.34-.81,4.54-.83,7.04-.02,2.46.46,5.24.73,7.88Z"/><path class="cls-1" d="m266.78,591.95c-.26,6.49-.52,12.98-.78,19.47.38-5.42.76-10.83,1.14-16.29,0-.04-.31-2.8-.35-3.14,0-.02,0-.04,0-.04h0Z"/><path class="cls-1" d="m486.1,622.87c-.28-.14-.59,4.11-.89,6.44.26,2.64.53,5.29.79,7.93.3-2.34.81-4.54.83-7.04.02-2.46-.45-7.19-.73-7.33Z"/><path class="cls-1" d="m154.07,660.18c.3-2.33.6-4.66.9-6.99-.26-2.64-.53-5.29-.79-7.93-.3,2.34-.81,4.54-.83,7.04-.02,2.46.46,5.24.73,7.88Z"/><path class="cls-1" d="m382.37,209.32c-.28-.17-.59,4.11-.89,6.44.26,2.64.53,5.29.79,7.93.3-2.33.6-4.66.9-6.99-.26-2.64-.51-7.2-.8-7.38Z"/><path class="cls-1" d="m467.94,347.15c-.28-.17-.59,4.11-.89,6.44.26,2.64.53,5.29.79,7.93.3-2.33.6-4.66.9-6.99-.26-2.64-.51-7.2-.8-7.38Z"/><path class="cls-1" d="m467.84,429.95c.28.17.81-4,.83-6.47.02-2.5-.46-5.25-.73-7.9-.3,2.33-.6,4.66-.9,6.99.26,2.64.51,7.2.8,7.38Z"/><path class="cls-1" d="m196.4,216.72c.02-2.5-.46-5.25-.73-7.9-.3,2.33-.6,4.66-.9,6.99.26,2.64.51,7.2.8,7.38.28.17.81-4,.83-6.47Z"/><path class="cls-1" d="m91.06,215.8c.26,2.64.53,5.29.79,7.93.3-2.34.81-4.54.83-7.04.02-2.46-.45-7.19-.73-7.33-.28-.14-.59,4.11-.89,6.44Z"/><path class="cls-1" d="m316.65,192.78c.26,2.64.53,5.29.79,7.93.3-2.33.6-4.66.9-6.99-.26-2.64-.51-7.2-.8-7.38-.28-.17-.59,4.11-.89,6.44Z"/><path class="cls-1" d="m242.24,660.18c.3-2.33.6-4.66.9-6.99-.26-2.64-.53-5.29-.79-7.93-.3,2.34-.81,4.54-.83,7.04-.02,2.46.46,5.24.73,7.88Z"/><path class="cls-1" d="m242.24,361.53c.3-2.33.6-4.66.9-6.99-.26-2.64-.53-5.29-.79-7.93-.3,2.34-.81,4.54-.83,7.04-.02,2.46.46,5.24.73,7.88Z"/><path class="cls-1" d="m110.1,462.06c-.28-.14-.59,4.11-.89,6.44.26,2.64.53,5.29.79,7.93.3-2.34.81-4.54.83-7.04.02-2.46-.45-7.19-.73-7.33Z"/><path class="cls-1" d="m441.12,721.16c.26,2.64.53,5.29.79,7.93.3-2.33.6-4.66.9-6.99-.26-2.64-.51-7.2-.8-7.38-.28-.17-.59,4.11-.89,6.44Z"/><path class="cls-1" d="m217.76,183.12c.01.08.02.13.02.13.02-1.91.04-3.82.06-5.73-.14.88-.29,1.75-.43,2.63,0,0,.28,2.37.35,2.97Z"/><path class="cls-1" d="m218.02,157.65l-.34,2.96.31,1.24c.01-1.45.03-2.89.04-4.34,0,0,0,.05-.02.14Z"/><path class="cls-1" d="m218,161.85c-.05,5.22-.11,10.45-.16,15.67.54-3.28,1.07-6.57,1.61-9.85-.48-1.94-.96-3.88-1.45-5.82Z"/><path class="cls-1" d="m496.47,737.73c-.28-.14-.59,4.11-.89,6.44.26,2.64.53,5.29.79,7.93.3-2.34.81-4.54.83-7.04.02-2.46-.45-7.19-.73-7.33Z"/><path class="cls-1" d="m153.76,785.95c-.38,5.42-.76,10.83-1.14,16.29,0,0,0,.05.01.12.06.56.34,3.06.34,3.06,0-.2.02-.4.02-.6.25-6.29.51-12.58.76-18.87Z"/><path class="cls-1" d="m351.25,139.86c-.3,2.34-.81,4.54-.83,7.04-.02,2.46.46,5.24.73,7.88.3-2.33.6-4.66.9-6.99-.26-2.64-.53-5.29-.79-7.93Z"/><path class="cls-1" d="m238.26,132.49c-.26,6.49-.52,12.98-.78,19.47.38-5.41.76-10.83,1.14-16.29,0-.05-.35-3.18-.35-3.18Z"/><path class="cls-1" d="m215.84,150.59c.61,3.35,1.22,6.7,1.84,10.04,0-.01.27-2.36.34-2.97.01-.09.02-.14.02-.14-.73-2.31-1.47-4.62-2.2-6.92Z"/><path class="cls-1" d="m189.59,353.59c.26,2.64.53,5.29.79,7.93.3-2.33.6-4.66.9-6.99-.26-2.64-.51-7.2-.8-7.38-.28-.17-.59,4.11-.89,6.44Z"/><path class="cls-1" d="m262.2,399.58c.26,2.64.53,5.29.79,7.93.3-2.34.81-4.54.83-7.04.02-2.46-.45-7.19-.73-7.33-.28-.14-.59,4.11-.89,6.44Z"/><path class="cls-1" d="m105.64,446.42c.02-2.46-.45-7.19-.73-7.33-.28-.15-.59,4.11-.89,6.44.26,2.64.53,5.29.79,7.93.3-2.34.81-4.54.83-7.04Z"/><path class="cls-1" d="m236.59,81.67c.61,3.35,1.22,6.7,1.84,10.04,0-.01.27-2.36.34-2.97.01-.09.02-.14.02-.14-.73-2.31-1.47-4.62-2.2-6.92Z"/><path class="cls-1" d="m395.34,48.51c-.28-.17-.59,4.11-.89,6.44.26,2.64.53,5.29.79,7.93.3-2.33.6-4.66.9-6.99-.26-2.64-.51-7.2-.8-7.38Z"/><path class="cls-1" d="m284.75,45.23c-.2,4.95-.4,9.89-.6,14.84.35-5.01.7-10.03,1.05-15.08-.15.08-.3.16-.45.24Z"/><path class="cls-1" d="m13.4,721.22c.79-1.98,1.57-3.95,2.36-5.93-.89-31.35-1.79-62.7-2.68-94.06-1.07,2.81-2.14,5.62-3.21,8.44,1.18,30.52,2.35,61.03,3.53,91.55Z"/><path class="cls-1" d="m14.52,586c.18-7.87.33-14.4.48-20.93-.58-.27-1.18-1.15-1.74-.33-.12.17-.31,7.62-.14,9.86.32,4.27.86,7.21,1.4,11.4Z"/><path class="cls-2" d="m485.61,39.91c.28-.17.53-4.74.8-7.38-.3-2.33-.6-4.66-.9-6.99-.26,2.64-.74,5.4-.73,7.9.02,2.47.55,6.64.83,6.47Z"/><path class="cls-2" d="m524.41,827.89c7.46-.45,9.18-22.72,9.3-85.31.34-170.04,1.57-339.93,2.41-501.36,0-50.45-.32-92.6.08-134.21.57-59.7-1.04-89.03-8.92-87.81-7.18,1.11-9.39,18.38-9.5,83.46-.35,213.08-1.37,426.12-2.51,639.02-.33,62.24,1.48,86.67,9.13,86.21Zm7.55-704.84c.43,4.11.87,8.21,1.33,12.6-.4,4.93-.81,9.91-1.22,14.88-.29-2.68-.85-5.7-.81-7.98.11-6.66.45-13.02.7-19.5Zm-7.55-74.59c.3,2.34.81,4.54.83,7.05.02,2.46-.46,5.24-.73,7.88l-.9-6.99c.26-2.64.53-5.29.79-7.93Zm.9,516.77c.12.17.31,7.62.14,9.86-.32,4.27-.86,7.21-1.4,11.4-.18-7.87-.33-14.4-.48-20.93.58-.27,1.18-1.15,1.74-.33Zm.18,56.49c1.07,2.81,2.14,5.62,3.21,8.44-1.18,30.52-2.35,61.03-3.53,91.55-.79-1.98-1.57-3.95-2.36-5.93.89-31.35,1.79-62.7,2.68-94.06Z"/><path class="cls-2" d="m370.69,33.44c.02,2.47.55,6.64.83,6.47.28-.18.53-4.74.8-7.38-.3-2.33-.6-4.66-.9-6.99-.26,2.64-.74,5.4-.73,7.9Z"/><path class="cls-2" d="m404.37,695.77c0,2.62.57,5.08.88,7.61.33-6.31.66-12.63.99-18.9-.54-3.02-1.04-5.81-1.54-8.6-.12,6.63-.35,13.3-.33,19.89Z"/><path class="cls-2" d="m6.32,518.84s0,.05,0,.07v-.07Z"/><path class="cls-2" d="m104.14,354.11v.14c.04.26.08.52.11.78l-.11-.91Z"/><path class="cls-2" d="m333.93,527.73c-.09.79-.19,1.59-.19,1.66.09,2.01.17,4.01.26,6.01.04-3.04.07-6.09.11-9.13l-.17,1.46Z"/><path class="cls-2" d="m395.06,5.18c-26.19,4.51-51.91,12.99-77.01,24.05.63.22,1.27.44,1.9.68,5.52,2.03,11.31,20.73,16.47,10.96,12.22-23.13,12.09-28.2,14.21,81.28.63-13.7.76-26.14,1.52-31.32,3.53-24.05,7.24-46.08,10.89-68.84,1.51,29.31,3.97,57.73,4.34,88.12.7,57.95-.07,117.17.31,175.58.21,31.46,1.54,62.34,2.37,93.48,2.73-106.49,3.72-208.08,5.56-308.46.34-18.63,4.07-32.41,6.23-48.43,1.29,19.75,3.61,39.25,3.67,59.3.18,58.5-.46,117.19-.83,175.81,1.31-42.3,3.78-85.6,3.33-126.39-1.02-93.42,3.09-118.12,12.96-111.1,10.12,7.2,20.38,4.91,30.54.45,6.7-2.93,9.11,15.49,8.79,76.35-.51,95.96-.14,192.29-.14,288.47.99.12,1.97.23,2.96.35V45.91c.49.37.97.74,1.46,1.1.48,19.51.96,39.01,1.01,40.78,0-.21-.02-.65-.03-1.35,3.45-20.41,6.94-54.33,11.06-62.11,5.5-10.39,12.03-11.95,14.04,55.69,4.05-32.11,7.51-98.66,13.55-15.76.29,3.93,3.49-1.34,4.46-10,7.2-64.08,8.66-29.23,8.56,36.95-.04,28.19,0,56.4,0,84.6q3.3-163.65,16.98-142.45c-.47,52.28-1.3,103.93-1.35,155.63-.17,183.67-.29,367.38.06,551.01.11,60.35-1.15,90.49-9.04,86.99-12.43-5.52-24.92,1.11-37.35-3.14-3.42-1.17-8.56-41.59-9.84-31.96-10.44,78.49-10.97,20.62-11.61-56.42-.32-39.2-2.37-77.29-3.63-115.87-1.26,44.24-1.54,88.56-1.19,132.48.41,51.43-1.1,75.61-7.72,75.23-6.32-.36-8.23-19.26-8-73.11.38-90.44.11-181.1.11-271.67-2.6,87.05-2.06,174.54-2.91,260.95-.28,28.69-4.15,54.6-6.39,81.79-2.09-28.44-5.88-56.39-5.99-85.4-.59-161.48-.28-323.22-.28-484.88-1.02-.06-2.03-.12-3.05-.17v364.46c-.52-.38-1.04-.77-1.56-1.15-.42-16.17-.85-32.34-1.27-48.51-1.45,57.69-3.2,119.32-1.08,167.52,4.08,92.57,4.99,91-5.42,87.54-3.72-1.24-7.41-12.21-11.11-18.75,0-.2-.02-.4-.02-.6-9.79,65.49-12.43-7-15.63-76.67-1.19,19.71-1.21,32.16-1.61,43.56-.64,17.9-1.53,35.08-2.31,52.57-2.04-12.49-5.79-24.28-5.86-37.57-.64-122.57-.56-245.41-.93-368.12-.04-13.89-1.58-27.43-3.59-59.93,0,131.78.14,239.83-.08,347.82-.07,37,.22,96.85-1.88,105.94-4.18,18.09-9.91,9.61-14.96,6.79-.34-.19-.78-45.62-.36-68.84.24-13.11,3.39-27.37,3.11-35.08-2.21-60.88-4.89-120.43-7.45-180.38-.88,74.95-1.62,150.09-2.81,224.65-.36,22.64-2.14,43.5-3.27,65.18-2.34-21.91-5.9-40.77-6.71-66.46-1.16-36.56-.29-78.14-.29-117.57-2.97,54.92-2.18,155.36-3.08,156.56-12.77,17.02-25.82,28.32-38.67,21.23-2.76-1.52-4.97-81.34-5.92-98.22-1.62,21.16-3.95,89.32-8.14,99.91-15.58,39.4-9.97-91.75-13.46-155.28-.17,91.55,1.58,170.74-14.57,166.5-12.71-3.33-15.44-39.3-14.69-134.6.37-47.47.06-95.36.06-143.06-2.67,59.6-2.61,118.85-2.69,178.09-.12,87.15-5.8,128.73-14.17,87.39-3.56-17.61-4.01-84.83-5.94-131.39-1.95,62.76,3.17,218.08-14.64,101.17-.12-.77-.6,1.67-.82,3.48-10.24,83.97-8.05-.37-8.49-49.16-.23-24.69-.49-49.36-.73-74.04-1.87,34.9-1.01,71.25-2.17,101.59-.79,20.78-4.38,33.21-6.72,49.37-1.11-19.64-3.12-39.02-3.19-58.96-.34-92.08-.15-184.32-.15-276.5-2.61,91.05-2.23,182.23-2.87,272.86-.16,23.12-3.53,44.47-5.43,66.64-1.56-21.4-4.21-41.85-4.46-64.37-.64-58.33-.21-117.58-.21-176.46-2.62,65.71-2.37,130.77-2.8,195.48-.1,15.61-2.44,30.07-3.76,45.05-.89-11.02-1.79-22.04-2.68-33.06-12.24,60.87-14.48,51.68-17.18-71.97-1.21-55.41-2.22-111.15-3.33-166.73-1.39,65.03-.84,129.73-1.64,193.1-.35,27.72-3.45,52.71-5.3,78.94-1.6-24.65-4.12-47.99-4.6-74.27-.78-42.02-.21-85.99-.21-129.13-.98-.16-1.95-.33-2.93-.49v176.95c-.4-.56-.8-1.12-1.2-1.67v-441.9c-1.85-12.51-3.7-24.96-5.13-34.63-1.22,74.1-3.35,148.09-3.2,221.73.06,28.47-6.25,96.24,4.14,105.56.66.59.57,99.42-.16,151.47-.1,6.88-6.05,7.35-9.29,10.79.23-67.38.46-134.76.69-202.15v-3.65c-2.91-123.41-5.83-246.83-8.74-370.24-.28-.36-.56-.72-.84-1.09,1.3,194.72,2.59,389.43,3.89,584.71q-14.95,17.26-16.14-118.3c-.81-90.36-1.53-180.84-2.74-270.8-.22-16.22-2.6-30.17-3.98-45.17-2.06,15.61-5.81,30.39-5.91,46.98-.58,92.08-.28,184.6-.28,276.97.86-.06,1.71-.11,2.57-.17v-268.24c2.82,53.61,3.33,106.8,4.14,159.62,1.02,66.5,2.29,132.7,3.45,199.03-6.55.68-13.11.46-19.66,3.06-.92.37-1.64,19.17-2.68,21.53-5.49,12.49-9.51,4.87-8.58-58.32.93-62.76,1.85-125.53,2.77-188.39,1.73-8.17,4.46-16.05,4.5-24.7.36-97.04.22-194.22.22-291.36-.83.21-1.65.42-2.48.62v214.07c-2.89-29.68-4.55-46.82-7.62-78.32,0,134.39.24,251.59-.22,368.58-.08,20.9-3.08,40.9-4.73,61.31-1.8-19.27-4.71-36.58-5.19-58.15-1.74-78.17-2.65-157.76-3.88-236.82-.86,72.53-.59,144.36-1.01,215.86-.16,26.9-2.34,76.58-2.93,75.81-4.86-6.39-13.17,42.32-13.14-55.54.06-184.26-.03-368.54.12-552.78-.67.02-1.34.03-2.01.03-.11,0-.03,472.84,0,599.37.7,14.84,1.87,24.83,3.68,30.83h529.3c4.87-13.39,6.32-46.7,5.98-117.85-.97-202.46-.86-405.73-.04-608.3.23-55.89-.59-88.48-3.67-105.53-16.14-4.69-71.79-18.31-140.25-6.53Zm-23.54,34.73c-.28.17-.81-4-.83-6.47-.02-2.5.46-5.25.73-7.9.3,2.33.6,4.66.9,6.99-.26,2.64-.51,7.2-.8,7.38Zm33.73,663.47c-.31-2.53-.87-5-.88-7.61-.02-6.59.2-13.26.33-19.89.5,2.79,1,5.58,1.54,8.6-.33,6.28-.66,12.59-.99,18.9Zm110.04,38.31c1.14-212.9,2.16-425.94,2.51-639.02.11-65.08,2.32-82.35,9.5-83.46,7.88-1.22,9.49,28.11,8.92,87.81-.4,41.61-.08,83.76-.08,134.21-.84,161.43-2.07,331.33-2.41,501.36-.12,62.59-1.84,84.86-9.3,85.31-7.65.47-9.47-23.96-9.13-86.21ZM485.51,25.54c.3,2.33.6,4.66.9,6.99-.26,2.64-.51,7.2-.8,7.38-.28.17-.81-4-.83-6.47-.02-2.5.46-5.25.73-7.9Z"/><path class="cls-2" d="m12.41,212.09c-.02,35.46-.09,70.94-.09,106.38-.71.49-1.42.98-2.13,1.46-.34-30.9-.67-61.8-1.01-92.7-2.04,48.99-1.94,97.1-2.07,145.17-.13,48.51-.48,96.96-.73,145.44,5.32,20.73,9.6,40.97,8.37-48.82-1.16-84.5.01-171.4.14-257.39-.83.16-1.65.31-2.47.45Z"/><path class="cls-2" d="m284.85,381.55c2.49-106.94,2.39-210.49,2.61-313.98.01-6.66.33-15.82.75-23.91-1.12.59-2.24,1.18-3.36,1.78v336.12Z"/><path class="cls-2" d="m237.01,210.43c2.81-46.4,7.32-85.84,6.91-120.77-.09-7.5-.14-14.24-.15-20.3-2.28,1.43-4.55,2.87-6.81,4.32.12,41.32.05,84.9.05,136.76Z"/><path class="cls-2" d="m275.32,50.63v293.59c1.89-101.79,3.71-199.36,5.52-296.63-1.84,1-3.68,2.02-5.52,3.04Z"/><path class="cls-2" d="m140.43,790.24c.03.4.06.79.1,1.19.01-.05.02-.1.03-.16l-.13-1.03Z"/><path class="cls-2" d="m91.19,607.11l.1.8v-.46c-.01.12-.01.23-.01.35,0,.09-.06-.46-.08-.69Z"/><path class="cls-2" d="m384.64,263.36c.01.09.02.15.02.15.01-2.04.03-4.08.04-6.13-.05,1.74-.11,3.48-.16,5.21l.1.77Z"/><path class="cls-2" d="m162.96,124.79v191.07c2-64.48,1.91-129.01,2.36-192.78-.79.57-1.58,1.14-2.36,1.71Z"/><path class="cls-2" d="m270.75,117.8c.57-21.86,1.15-43.72,1.72-65.57-1.68.95-3.36,1.91-5.04,2.87,1.36,16.2,2.43,37.68,3.32,62.7Z"/><path class="cls-2" d="m470.79,84.7c-.04-1.6-.08-3.15-.13-4.68-.06.5-.13,1-.19,1.48l.32,3.2Z"/><path class="cls-2" d="m445.6,87.8c0,.19,0,.18,0,0h0Z"/><path class="cls-2" d="m229.64,78.4c-.75.49-1.5.98-2.25,1.48.6,7,1.21,14.09,1.84,21.41.16-7.92.29-15.53.42-22.88Z"/><path class="cls-2" d="m159.41,157.19c.12-9.8.24-19.86.37-30.1-.54.39-1.08.78-1.62,1.17.42,9.62.83,19.26,1.25,28.93Z"/><path class="cls-2" d="m68.55,189.27c-.64.37-1.27.73-1.9,1.08.05,19.56.12,39.14.12,58.65.94-19.84,1.45-39.8,1.78-59.73Z"/><path class="cls-2" d="m385.93,802.79s0,.05-.01.07c-.06.56-.34,3.06-.34,3.06l.35-3.13Z"/><path class="cls-2" d="m6.12,517.01h0s0-.02,0,0h0c.01.12.13,1.22.2,1.83v.07c.03.2.04.33.04.33,0-.46,0-.93,0-1.39-.09-.36-.18-.71-.28-1.07l.03.24Z"/><path class="cls-2" d="m151.08,133.39c-1.24.9-2.48,1.79-3.72,2.69.25,34.5.89,68.97,1.3,103.46,1.12-2.22,2.23-4.44,3.35-6.66-.68-16.02-2.13-33.01-1.9-47.9.27-17.26.6-34.44.96-51.58Z"/><path class="cls-2" d="m498.36,682v-339.98c.88.3,1.76.59,2.64.89,1.59,93.19,3.18,186.38,4.77,279.58,1.3-1.44,2.6-2.89,3.9-4.33v-361.07l-1.17-2.07c-.51,35.43-1.02,70.86-1.53,106.28-.46.37-.91.74-1.37,1.11-.32-51.91-.64-103.82-.99-161.42-14.52,146.58-8.94,317.7-9.84,479.07,1.19.65,2.39,1.3,3.58,1.94Z"/><path class="cls-2" d="m270.08,238.35c-.01-.25-.02-.5-.03-.74,0,.17,0,.34,0,.51l.03.24Z"/><path class="cls-2" d="m271.34,575.56c.03,6.67.06,13.34.09,20.02,0,0,.31-2.75.35-3.1,0-.02,0-.04,0-.04-.15-5.63-.29-11.25-.44-16.88Z"/><path class="cls-2" d="m269.88,233.97c-1.71-38.29-3.47-77.53-6.39-142.74v410.07c.08.09.16.19.24.28v-218.25c2.84,109.09,5.24,201.16,7.61,292.23-.51-113.22-1.02-226.45-1.53-339.67.02-.64.05-1.28.07-1.91Z"/><path class="cls-2" d="m269.86,236.35c0-.06-.01-.12-.02-.17l.02.17Z"/><path class="cls-2" d="m77.64,183.87c-.6.37-1.21.74-1.81,1.1v566.82c.6.14,1.21.28,1.81.42V183.87Z"/><path class="cls-2" d="m311.71,568.05V208.31c-1.25.6-2.51,1.19-3.76,1.79.92,119.57,1.84,239.15,2.76,358.72l1-.76Z"/><path class="cls-2" d="m91.19,607.11c.03.23.09.78.08.69v-.35c0-144.12-.01-288.16-.01-432.19-.03.02-.06.04-.09.06v431.7s0,.04.01.1Z"/><path class="cls-2" d="m201.05,614.51V116.81c-.43-.05-.86-.1-1.3-.15v493.95c.43,1.3.86,2.6,1.3,3.9Z"/><path class="cls-2" d="m256.68,108.96c-1.08.52-2.15,1.03-3.23,1.55,1.03,106.61,2.06,213.22,3.23,334.37V108.96Z"/><path class="cls-2" d="m240.96,757.56v-248.87c-.58-.45-1.17-.9-1.75-1.35v249.3c.58.31,1.17.62,1.75.92Z"/><path class="cls-2" d="m396.83,299.23v312.69c.33.13.67.26,1,.39v-312.89c-.33-.06-.67-.13-1-.19Z"/><path class="cls-2" d="m391.82,396.73v287.64c.32.08.64.17.97.25v-287.43c-.32-.15-.65-.31-.97-.46Z"/><path class="cls-2" d="m23.99,209.43c-.96.28-1.92.54-2.88.79-.44,41.9-.87,83.79-1.31,125.69,1.11.84,2.23,1.69,3.34,2.53.28-43,.56-86,.85-129.01Z"/><path class="cls-2" d="m470.5,81.75c0,10.58,0,21.15,0,31.73.1-9.59.19-19.18.29-28.78,0,0-.32-3.2-.3-2.96Z"/><path class="cls-2" d="m470.52,382.96c0-89.77,0-179.54-.02-269.48-.91,89.48-1.81,178.96-2.72,268.45.91.35,1.82.69,2.74,1.04Z"/><path class="cls-2" d="m464.29,440.04v268.05c.41.02.82.04,1.23.06v-268.03c-.41-.02-.82-.05-1.23-.07Z"/><path class="cls-2" d="m320.51,395.44c1.05,75.17,2.1,150.35,3.15,225.52.92-.99,1.84-1.98,2.76-2.97l-3.45-224.72c-.82.72-1.64,1.45-2.46,2.17Z"/><path class="cls-2" d="m430.51,739.65v-228.89c-.12-.42-.24-.85-.36-1.27l-1.89,221.52c.75,2.88,1.5,5.76,2.25,8.64Z"/><path class="cls-2" d="m150.81,541.28v-218.58c-.36-.26-.73-.51-1.09-.77v217.56c.36.6.73,1.19,1.09,1.79Z"/><path class="cls-2" d="m453.66,617.71c.67-.51,1.34-1.01,2-1.52-.37-48.96-.74-97.92-1.11-146.88-1.42.69-2.85,1.38-4.27,2.07,1.13,48.78,2.25,97.55,3.38,146.33Z"/><path class="cls-2" d="m384.55,262.67c.05,2.1.1,4.21.14,6.31-.01-1.83-.02-3.65-.03-5.48,0,0,0-.06-.02-.15-.03-.26-.1-.74-.09-.68Z"/><path class="cls-2" d="m389.44,476.98c-1.58-69.31-3.16-138.62-4.75-208,.44,70.98.88,141.95,1.31,212.93,1.15-1.64,2.29-3.29,3.44-4.93Z"/><path class="cls-2" d="m335.87,117.51c-.41-.03-.81-.06-1.22-.09v200.61c.41.03.82.06,1.22.08V117.51Z"/><path class="cls-2" d="m218.52,658.93c-1.66-61.13-3.32-122.26-4.98-183.39.62,62.78,1.24,125.56,1.86,188.34,1.04-1.65,2.08-3.3,3.13-4.95Z"/><path class="cls-2" d="m213.48,469.5l-.09.52c.05,1.84.1,3.68.15,5.52-.02-2.01-.04-4.02-.06-6.04Z"/><path class="cls-2" d="m454.3,388.86c1.25-.41,2.49-.83,3.74-1.24v-132.41c-.59-.09-1.18-.17-1.77-.26-.66,44.64-1.31,89.27-1.97,133.91Z"/><path class="cls-2" d="m317.66,409.83v-177.31c-.38-.09-.75-.18-1.12-.27v177.34c.38.08.75.16,1.12.24Z"/><path class="cls-2" d="m374.99,398.29c1.14,1.94,2.28,3.88,3.42,5.82.8-39.26,1.6-78.52,2.4-117.78-1.13-1.91-2.27-3.83-3.4-5.74-.81,39.23-1.61,78.47-2.42,117.7Z"/><path class="cls-2" d="m305.12,60.59c.5,36.93,1,73.85,1.5,110.78,1.23-1.41,2.45-2.81,3.68-4.22-.51-38.1-1.02-76.21-1.53-114.31-1.22,2.58-2.43,5.16-3.65,7.75Z"/><path class="cls-2" d="m335.26,412.41c-.56,26.27-1.12,52.54-1.68,78.81,2.11-19.26,4.23-38.52,6.34-57.78-1.55-7.01-3.11-14.02-4.66-21.03Z"/><path class="cls-2" d="m333.42,499.12c.06-2.64.11-5.27.17-7.91-.17,1.58-.35,3.16-.52,4.73,0,0,.21,1.93.31,2.77.02.17.03.3.04.36,0,.02,0,.04,0,.04Z"/><path class="cls-2" d="m27.51,506.9c.56-34.53,1.13-69.05,1.69-103.58-1.11-.97-2.23-1.94-3.34-2.91v105.12c.55.46,1.1.92,1.65,1.37Z"/><path class="cls-2" d="m227.09,186.96c-.43-.24-.86-.47-1.29-.71v129.82c.43.43.86.87,1.29,1.3v-130.41Z"/><path class="cls-2" d="m211.47,249.76V118.79c-.38-.18-.77-.35-1.15-.53v127.16l1.15,4.34Z"/><path class="cls-2" d="m300.23,545.41c-1.22-37.75-2.45-75.51-3.67-113.26l-1.82,3.18c.9,40.83,1.8,81.67,2.7,122.5l2.79-12.43Z"/><path class="cls-2" d="m104.2,349.57c-.02,1.51-.04,3.03-.06,4.54,0,0,.11.91.1.81-.02-1.78-.03-3.56-.05-5.35Z"/><path class="cls-2" d="m102.91,206.23c.43,47.75.85,95.5,1.29,143.34.59-47.78,1.18-95.57,1.77-143.35-1.02,0-2.03,0-3.05.01Z"/><path class="cls-2" d="m429.25,205.87c-.43,0-.86-.01-1.29-.02v114.05c.43-1.38.86-2.75,1.29-4.13v-109.9Z"/><path class="cls-2" d="m363.1,229.4c.39.03.79.06,1.18.09v-117.11l-1.18-.09v117.11Z"/><path class="cls-2" d="m213.5,469.29c-.02-1.57-.04-3.14-.06-4.71-.02,1.82-.03,3.63-.05,5.45,0,0,.09-.52.11-.73Z"/><path class="cls-2" d="m211.72,321.29c.58,47.7,1.16,95.4,1.72,143.29.45-47.81.9-95.62,1.34-143.42-1.02.05-2.04.09-3.07.14Z"/><path class="cls-2" d="m138.7,156.46c-.43.09-.86.19-1.29.28v94.4c.43-.85.86-1.7,1.29-2.55v-92.13Z"/><path class="cls-2" d="m432.95,366.92c.49.17.98.34,1.48.51.17-29.96.35-59.93.52-89.89-.67-1.82-1.33-3.64-1.99-5.45v94.83Z"/><path class="cls-2" d="m230.81,662.4c.34.09.69.18,1.03.27v-92.37l-1.03-.21v92.31Z"/><path class="cls-2" d="m346.15,523.83l-1.29.05v94.81l1.29-1.17v-93.69Z"/><path class="cls-2" d="m479.83,762.15c.61-.66,1.23-1.32,1.84-1.97-.29-31.23-.59-62.47-.88-93.7-.91.96-1.81,1.92-2.72,2.88.59,30.93,1.17,61.86,1.76,92.79Z"/><path class="cls-2" d="m140.49,786.52c-.02,1.24-.04,2.48-.06,3.73,0,0,.13,1.03.12.92-.02-1.55-.04-3.1-.06-4.65Z"/><path class="cls-2" d="m139.28,687.17c.4,33.08.8,66.17,1.21,99.34.53-32.89,1.06-65.78,1.59-98.67-.93-.23-1.86-.45-2.79-.68Z"/><path class="cls-2" d="m180.23,254.43c.16-24.93.32-49.86.48-74.79-.63.81-1.26,1.62-1.89,2.43v71.97c.47.13.94.27,1.41.4Z"/><path class="cls-2" d="m453.47,707.41c.32,9.64,1.98,15.8,3.05,23.47.61-8.17,1.23-16.34,2.06-27.37-1.42-10.79-2.61-19.9-3.81-29-.49,11.11-1.6,23.85-1.3,32.9Z"/><path class="cls-2" d="m247.61,277.86c.18-24.82.36-49.63.54-74.45-.65.73-1.3,1.45-1.95,2.18v71.74c.47.18.94.35,1.4.53Z"/><path class="cls-2" d="m378.6,153.64v80.28h1.28v-80.28h-1.28Z"/><path class="cls-2" d="m187.54,675.51l-.11.66c.07,1.11.14,2.23.2,3.34-.03-1.34-.06-2.67-.09-4.01Z"/><path class="cls-2" d="m192.01,751.01c-1.46-23.83-2.91-47.66-4.37-71.49.61,26.3,1.23,52.6,1.84,78.9.84-2.47,1.68-4.93,2.52-7.4Z"/><path class="cls-2" d="m406.67,113.5c.35,34.87.55,54.28.74,73.69.5-13.86,1.15-27.5,1.43-41.7.1-5.04-.73-11.47-2.17-31.99Z"/><path class="cls-2" d="m186.94,598.73c.21,24.69.42,49.38.61,74.3.87-23.76,1.74-47.51,2.61-71.27-1.07-1.01-2.15-2.02-3.22-3.03Z"/><path class="cls-2" d="m187.57,675.26c0-.75-.01-1.49-.02-2.24-.04,1.05-.08,2.1-.12,3.15,0,0,.11-.66.13-.91Z"/><path class="cls-2" d="m33.26,336.15c.57,10.73,1.86,18.48,2.85,27.46.37-4.65.73-9.31,1.11-14.14-.95-13.09-1.85-25.34-2.74-37.59-.45,8.26-1.5,19.05-1.22,24.27Z"/><path class="cls-2" d="m284.41,652.31c.13-5.04-.63-11.88-1.64-28.95v67.06c.57-12.65,1.3-24.98,1.64-38.11Z"/><path class="cls-2" d="m48.01,200.12c-.47.22-.93.43-1.39.65-.16,17.75-.32,35.51-.49,53.26.63.72,1.25,1.44,1.88,2.17v-56.07Z"/><path class="cls-2" d="m7.3,744.94c.21,7.2,1.01,13.07,1.56,19.51.28-6.41.55-12.81.95-22.04-.54-5.04-1.17-10.83-1.79-16.61-.26,6.44-.87,13.64-.71,19.14Z"/><path class="cls-2" d="m347.85,195.36c-.3,6.34-.95,13.25-.83,18.89.18,8.29.9,15.67,1.39,23.44.32-6.28.63-12.57,1.09-21.57-.5-6.28-1.07-13.52-1.64-20.75Z"/><path class="cls-2" d="m323.18,225.38c-.58-11.47-1.25-22.59-1.92-33.71.14,14.27.27,28.53.41,42.8.53-3.13,1.55-8.24,1.51-9.09Z"/><path class="cls-2" d="m321.26,191.67c-.04-3.67-.07-7.35-.11-11.02,0,0-.29,2.37-.36,2.96-.01.08-.02.13-.02.13.16,2.64.32,5.28.48,7.92Z"/><path class="cls-2" d="m490.5,399.02c.45-4.27,1.26-8.37,1.29-12.84.06-9.89-.27-19.97-.5-33.14-.77,7.68-1.6,12.21-1.58,16.42.05,9.94.5,19.72.79,29.57Z"/><path class="cls-2" d="m328.42,409.15c.06-9.89-.27-19.97-.5-33.14-.77,7.68-1.6,12.21-1.58,16.42.05,9.94.5,19.72.79,29.57.45-4.27,1.26-8.37,1.29-12.84Z"/><path class="cls-2" d="m424.7,259.98c-.54-5.04-1.17-10.83-1.79-16.61-.26,6.44-.87,13.64-.71,19.14.21,7.2,1.01,13.07,1.56,19.51.28-6.41.55-12.81.95-22.04Z"/><path class="cls-2" d="m137.84,352.52c.56-7.34,1.13-14.69,1.62-21.11-.47-8.84-.79-15.04-1.12-21.25-.48,7.85-1.19,15.34-1.35,23.68-.11,5.6.54,12.41.86,18.68Z"/><path class="cls-2" d="m51.41,696.67c.18,8.29.9,15.67,1.39,23.44.32-6.28.63-12.57,1.09-21.57-.5-6.28-1.07-13.52-1.64-20.75-.3,6.34-.95,13.25-.83,18.89Z"/><path class="cls-2" d="m376.57,446.53c-.35,9.71-.91,19.31-.99,29.18-.04,5.55.72,11.56,1.35,20.89.34-13.01.79-22.92.78-32.8,0-5.78-.74-11.51-1.15-17.27Z"/><path class="cls-2" d="m299.8,89.27c-.01-.11-.02-.18-.02-.18,0,2.29.02,4.58.03,6.87.11-1.26.22-2.52.33-3.77l-.33-2.92Z"/><path class="cls-2" d="m299.95,136.12l.35-3.13c-.12-.68-.25-1.37-.37-2.05,0,1.73.01,3.46.02,5.19Z"/><path class="cls-2" d="m297.79,119.06c.71,3.96,1.43,7.92,2.14,11.88-.04-11.66-.09-23.31-.13-34.97-.67,7.7-1.34,15.4-2.01,23.09Z"/><path class="cls-2" d="m417.86,100.08c-.25,6.48-.59,12.84-.7,19.5-.04,2.28.52,5.3.81,7.98.41-4.98.81-9.95,1.22-14.88-.46-4.39-.9-8.5-1.33-12.6Z"/><path class="cls-2" d="m345.6,726.35c.33-6.31.66-12.63.99-18.9-.54-3.02-1.04-5.81-1.54-8.6-.12,6.63-.35,13.3-.33,19.89,0,2.62.57,5.08.88,7.61Z"/><path class="cls-2" d="m288.55,657.43c.33-6.31.66-12.63.99-18.9-.54-3.03-1.04-5.81-1.54-8.6-.12,6.63-.35,13.3-.32,19.89,0,2.62.57,5.08.87,7.61Z"/><path class="cls-2" d="m360.29,626.85c0,2.62.57,5.08.87,7.61.33-6.31.66-12.63.99-18.9-.54-3.02-1.04-5.81-1.54-8.6-.12,6.63-.35,13.3-.32,19.89Z"/><path class="cls-2" d="m474.29,611.51c.15,6.53.3,13.06.48,20.93.54-4.2,1.09-7.13,1.4-11.4.17-2.24-.02-9.68-.14-9.86-.56-.82-1.16.06-1.74.33Z"/><path class="cls-2" d="m6.69,556.85c-.15-11.16-.31-22.33-.47-33.63-.42,11.07-.84,22.15-1.25,33.22.58.14,1.15.27,1.73.41Z"/><path class="cls-2" d="m6.32,518.84c-.07-.61-.19-1.71-.2-1.83h0c.03,2.08.06,4.14.09,6.21.05-1.32.1-2.65.15-3.97,0,0-.01-.13-.04-.33,0-.02,0-.05,0-.07Z"/><path class="cls-2" d="m6.12,517.01h0s0-.02,0,0Z"/><path class="cls-2" d="m475.02,564.05c.41-4.98.81-9.95,1.22-14.88-.46-4.39-.9-8.5-1.33-12.6-.25,6.48-.59,12.84-.7,19.5-.04,2.28.52,5.3.81,7.98Z"/><path class="cls-2" d="m230.82,493.63c-.03,6.54-.13,13.15-.05,19.58.02,1.92.56,3.32.86,4.97.27-6.45.55-12.91.82-19.37-.55-1.74-1.09-3.46-1.63-5.18Z"/><path class="cls-2" d="m285.23,467.27c.02,1.92.56,3.32.86,4.96.27-6.45.55-12.91.82-19.37-.55-1.74-1.09-3.45-1.63-5.17-.03,6.54-.13,13.15-.05,19.58Z"/><path class="cls-2" d="m302.39,458.62c-.04-5.19-.72-9.96-1.13-14.91-.28,2.76-.82,5.82-.79,8.21.1,6.64.44,13.01.72,20.54.48-5.15,1.23-9.75,1.2-13.84Z"/><path class="cls-2" d="m158.17,421.32c.02,1.92.56,3.32.86,4.97.27-6.45.55-12.91.82-19.37-.55-1.74-1.09-3.46-1.63-5.18-.03,6.54-.13,13.15-.05,19.58Z"/><path class="cls-2" d="m361.53,347.09c-.09,5,0,10.27.04,15.45.74-1.33,1.47-2.66,2.36-4.27-.47-4.8-.8-9.64-1.29-12.43-.25-1.46-1.09.19-1.11,1.25Z"/><path class="cls-2" d="m356.92,315.02c-.55-1.74-1.09-3.45-1.63-5.17-.03,6.54-.13,13.15-.05,19.58.02,1.92.56,3.32.86,4.96.27-6.45.55-12.91.82-19.37Z"/><path class="cls-2" d="m20.73,444.29c.02,1.92.56,3.32.86,4.97.27-6.45.55-12.91.82-19.37-.55-1.74-1.09-3.46-1.63-5.18-.03,6.54-.13,13.15-.05,19.58Z"/><path class="cls-2" d="m269.49,198.28c.15,11.16.31,22.33.47,33.63.42-11.07.84-22.15,1.25-33.22-.58-.14-1.15-.27-1.73-.41Z"/><path class="cls-2" d="m270.05,238.12h0s0,.02,0,0Z"/><path class="cls-2" d="m269.84,236.17c0,.05.01.11.02.17.07.62.18,1.66.19,1.77h0c0-.17,0-.34,0-.51-.03-1.9-.06-3.8-.08-5.69-.03.69-.05,1.37-.08,2.06-.02.64-.05,1.28-.07,1.91,0,0,.01.11.03.29Z"/><path class="cls-2" d="m297.11,197.67c-.56-.82-1.16.06-1.74.33.15,6.53.3,13.06.48,20.93.54-4.2,1.09-7.13,1.4-11.4.17-2.24-.02-9.68-.14-9.86Z"/><path class="cls-2" d="m433.04,191.59c.02,1.92.56,3.32.86,4.97.27-6.45.55-12.91.82-19.37-.55-1.74-1.09-3.46-1.63-5.17-.03,6.54-.13,13.15-.05,19.58Z"/><path class="cls-2" d="m470.85,767.66c-.3-2.33-.6-4.66-.9-6.99-.26,2.64-.74,5.4-.73,7.9.02,2.47.55,6.64.83,6.47.28-.17.53-4.74.8-7.38Z"/><path class="cls-2" d="m485.51,760.62c-.26,2.64-.53,5.29-.79,7.93.3,2.33.6,4.66.9,6.99.26-2.64.75-5.41.73-7.88-.02-2.51-.53-4.71-.83-7.04Z"/><path class="cls-2" d="m476.03,491.93c-.3-2.33-.61-6.61-.89-6.44-.28.17-.53,4.74-.8,7.38l.9,6.99c.26-2.64.53-5.29.79-7.93Z"/><path class="cls-2" d="m334.1,526.24c-.23-9.06-.46-18.09-.69-27.12,0,0,0-.01,0-.04,0-.06-.02-.19-.04-.36-.09-.84-.3-2.73-.28-2.55.23,11.23.44,22.24.65,33.22,0,0,0,0,0-.01,0-.06.1-.87.19-1.66.09-.75.17-1.47.17-1.49Z"/><path class="cls-2" d="m223.71,522.34c.28-.17.53-4.74.8-7.38-.3-2.33-.6-4.66-.9-6.99-.26,2.64-.74,5.4-.73,7.9.02,2.47.55,6.64.83,6.47Z"/><path class="cls-2" d="m363.64,416.57c-.28.17-.53,4.74-.8,7.38.3,2.33.6,4.66.9,6.99.26-2.64.53-5.29.79-7.93-.3-2.33-.61-6.61-.89-6.44Z"/><path class="cls-2" d="m225.41,446.92c.3,2.33.6,4.66.9,6.99.26-2.64.53-5.29.79-7.93-.3-2.33-.61-6.61-.89-6.44-.28.17-.53,4.74-.79,7.38Z"/><path class="cls-2" d="m132.96,293.11c.26-2.64.75-5.41.73-7.88-.02-2.51-.53-4.71-.83-7.04-.26,2.64-.53,5.29-.79,7.93.3,2.33.6,4.66.9,6.99Z"/><path class="cls-2" d="m384.38,531.44c-.28.17-.53,4.74-.8,7.38.3,2.33.6,4.66.9,6.99.26-2.64.53-5.29.79-7.93-.3-2.33-.61-6.61-.89-6.44Z"/><path class="cls-2" d="m296.22,278.19c-.26,2.64-.53,5.29-.79,7.93.3,2.33.6,4.66.9,6.99.26-2.64.75-5.41.73-7.88-.02-2.51-.53-4.71-.83-7.04Z"/><path class="cls-2" d="m277.27,538.81c.3,2.33.6,4.66.9,6.99.26-2.64.53-5.29.79-7.93-.3-2.33-.61-6.61-.89-6.44-.28.18-.53,4.74-.8,7.38Z"/><path class="cls-2" d="m490.7,278.19c-.26,2.64-.53,5.29-.79,7.93.3,2.33.6,4.66.9,6.99.26-2.64.75-5.41.73-7.88-.02-2.51-.53-4.71-.83-7.04Z"/><path class="cls-2" d="m481.22,560.91c-.3-2.33-.6-4.66-.9-6.99-.26,2.64-.74,5.4-.73,7.9.02,2.47.55,6.64.83,6.47.28-.17.53-4.74.8-7.38Z"/><path class="cls-2" d="m412.91,576.84c-.26,2.64-.53,5.29-.79,7.93.3,2.33.6,4.66.9,6.99.26-2.64.75-5.41.73-7.88-.02-2.51-.53-4.71-.83-7.04Z"/><path class="cls-2" d="m384.38,576.84c-.26,2.65-.53,5.29-.79,7.93.3,2.33.6,4.66.9,6.99.26-2.64.75-5.41.73-7.88-.02-2.51-.53-4.71-.83-7.04Z"/><path class="cls-2" d="m342.99,270.18c.26-2.64.53-5.29.79-7.93-.3-2.33-.61-6.58-.89-6.44-.28.14-.75,4.87-.73,7.33.02,2.51.53,4.71.83,7.04Z"/><path class="cls-2" d="m241.87,430.95c.26-2.64.75-5.41.73-7.88-.02-2.51-.53-4.71-.83-7.04-.26,2.64-.53,5.29-.79,7.93.3,2.33.6,4.66.9,6.99Z"/><path class="cls-2" d="m237.41,239.29c-.02-2.51-.53-4.71-.83-7.04-.26,2.64-.53,5.29-.79,7.93.3,2.33.6,4.66.9,6.99.26-2.64.75-5.41.73-7.88Z"/><path class="cls-2" d="m375.81,584.77c.3,2.33.6,4.66.9,6.99.26-2.64.75-5.41.73-7.88-.02-2.51-.53-4.71-.83-7.04-.26,2.64-.53,5.29-.79,7.93Z"/><path class="cls-2" d="m272.56,611.92c-.26-6.49-.52-12.98-.78-19.47h0s0,.01,0,.04c-.04.34-.35,3.1-.35,3.14.38,5.46.76,10.88,1.14,16.29Z"/><path class="cls-2" d="m53.35,629.81c-.3-2.33-.61-6.58-.89-6.44-.28.14-.75,4.87-.73,7.33.02,2.51.53,4.71.83,7.04.26-2.64.53-5.29.79-7.93Z"/><path class="cls-2" d="m383.59,653.69c.3,2.33.6,4.66.9,6.99.26-2.64.75-5.41.73-7.88-.02-2.51-.53-4.71-.83-7.04-.26,2.64-.53,5.29-.79,7.93Z"/><path class="cls-2" d="m155.39,217.19c.3,2.33.6,4.66.9,6.99.26-2.64.53-5.29.79-7.93-.3-2.33-.61-6.61-.89-6.44-.28.18-.53,4.74-.8,7.38Z"/><path class="cls-2" d="m71.51,354.09c-.3-2.33-.61-6.61-.89-6.44-.28.17-.53,4.74-.8,7.38.3,2.33.6,4.66.9,6.99.26-2.64.53-5.29.79-7.93Z"/><path class="cls-2" d="m70.72,430.45c.28-.18.53-4.74.8-7.38-.3-2.33-.6-4.66-.9-6.99-.26,2.64-.74,5.4-.73,7.9.02,2.47.55,6.64.83,6.47Z"/><path class="cls-2" d="m342.99,223.69c.28-.18.53-4.74.8-7.38-.3-2.33-.6-4.66-.9-6.99-.26,2.64-.74,5.4-.73,7.9.02,2.47.55,6.64.83,6.47Z"/><path class="cls-2" d="m446.61,209.86c-.28.14-.75,4.87-.73,7.33.02,2.51.53,4.71.83,7.04.26-2.64.53-5.29.79-7.93-.3-2.33-.61-6.58-.89-6.44Z"/><path class="cls-2" d="m220.22,194.22c.3,2.33.6,4.66.9,6.99.26-2.64.53-5.29.79-7.93-.3-2.33-.61-6.61-.89-6.44-.28.17-.53,4.74-.8,7.38Z"/><path class="cls-2" d="m296.32,660.68c.26-2.64.75-5.41.73-7.88-.02-2.51-.53-4.71-.83-7.04-.26,2.64-.53,5.29-.79,7.93.3,2.33.6,4.66.9,6.99Z"/><path class="cls-2" d="m295.43,355.05c.3,2.33.6,4.66.9,6.99.26-2.64.75-5.41.73-7.88-.02-2.51-.53-4.71-.83-7.04-.26,2.64-.53,5.29-.79,7.93Z"/><path class="cls-2" d="m428.56,476.93c.26-2.64.53-5.29.79-7.93-.3-2.33-.61-6.58-.89-6.44-.28.14-.75,4.87-.73,7.33.02,2.51.53,4.71.83,7.04Z"/><path class="cls-2" d="m96.55,715.22c-.28.18-.53,4.74-.8,7.38l.9,6.99c.26-2.64.53-5.29.79-7.93-.3-2.33-.61-6.61-.89-6.44Z"/><path class="cls-2" d="m320.8,183.62c.07-.59.36-2.96.35-2.97-.14-.88-.29-1.75-.43-2.63.02,1.91.04,3.82.06,5.73,0,0,0-.05.02-.13Z"/><path class="cls-2" d="m320.54,158.18c-.01-.11-.02-.17-.02-.17.01,1.45.03,2.9.04,4.34l.31-1.24-.33-2.93Z"/><path class="cls-2" d="m320.72,178.02c-.05-5.22-.11-10.44-.16-15.67-.48,1.94-.96,3.88-1.45,5.82.54,3.28,1.07,6.57,1.61,9.85Z"/><path class="cls-2" d="m42.09,738.23c-.28.14-.75,4.87-.73,7.33.02,2.51.53,4.71.83,7.04.26-2.64.53-5.29.79-7.93-.3-2.33-.61-6.58-.89-6.44Z"/><path class="cls-2" d="m385.92,802.86c0-.07.01-.11.01-.12-.38-5.46-.76-10.88-1.14-16.29.25,6.29.51,12.58.76,18.87,0,.2.02.4.02.6,0,0,.28-2.5.34-3.06Z"/><path class="cls-2" d="m187.31,140.36c-.26,2.64-.53,5.29-.79,7.93.3,2.33.6,4.66.9,6.99.26-2.64.75-5.41.73-7.88-.02-2.51-.53-4.71-.83-7.04Z"/><path class="cls-2" d="m300.3,132.99s-.35,3.13-.35,3.18c.38,5.46.76,10.88,1.14,16.29-.26-6.49-.52-12.98-.78-19.47Z"/><path class="cls-2" d="m320.88,161.13c.62-3.34,1.23-6.69,1.84-10.04-.73,2.31-1.47,4.62-2.2,6.92,0,0,0,.07.02.17.07.65.33,2.93.34,2.94Z"/><path class="cls-2" d="m348.08,347.65c-.28.18-.53,4.74-.8,7.38.3,2.33.6,4.66.9,6.99.26-2.64.53-5.29.79-7.93-.3-2.33-.61-6.61-.89-6.44Z"/><path class="cls-2" d="m274.74,400.97c.02,2.51.53,4.71.83,7.04.26-2.64.53-5.29.79-7.93-.3-2.33-.61-6.58-.89-6.44-.28.14-.75,4.87-.73,7.33Z"/><path class="cls-2" d="m433.75,453.96c.26-2.64.53-5.29.79-7.93-.3-2.33-.61-6.59-.89-6.44-.28.14-.75,4.87-.73,7.33.02,2.51.53,4.71.83,7.04Z"/><path class="cls-2" d="m432.92,125.33c.02,2.47.55,6.64.83,6.47.28-.18.53-4.74.8-7.38-.3-2.33-.6-4.66-.9-6.99-.26,2.64-.74,5.4-.73,7.9Z"/><path class="cls-2" d="m462.17,94.41c-.26,2.64-.53,5.29-.79,7.93.3,2.33.6,4.66.9,6.99.26-2.64.75-5.41.73-7.88-.02-2.51-.53-4.71-.83-7.04Z"/><path class="cls-2" d="m300.13,92.21c.62-3.34,1.23-6.69,1.84-10.04-.73,2.31-1.47,4.62-2.2,6.92,0,0,0,.07.02.18.07.65.33,2.92.34,2.94Z"/><path class="cls-2" d="m528.69,630.17c-1.07-2.81-2.14-5.62-3.21-8.44-.89,31.35-1.79,62.7-2.68,94.06.79,1.98,1.57,3.95,2.36,5.93,1.18-30.52,2.35-61.03,3.53-91.55Z"/><path class="cls-2" d="m525.45,575.1c.17-2.24-.02-9.68-.14-9.86-.56-.82-1.16.06-1.74.33.15,6.53.3,13.06.48,20.93.54-4.2,1.09-7.13,1.4-11.4Z"/><path class="cls-2" d="m533.29,135.66c-.46-4.39-.9-8.5-1.33-12.6-.25,6.48-.59,12.84-.7,19.5-.04,2.28.52,5.3.81,7.98.41-4.98.81-9.95,1.22-14.88Z"/><path class="cls-2" d="m525.24,55.51c-.02-2.51-.53-4.71-.83-7.05-.26,2.64-.53,5.29-.79,7.93l.9,6.99c.26-2.64.75-5.41.73-7.88Z"/></g></svg>